<svg width="44" height="44" viewBox="0 0 44 44" fill="none" xmlns="http://www.w3.org/2000/svg">
<g clip-path="url(#clip0_37_742)">
<circle cx="22" cy="22" r="22" fill="#1C9CF2"/>
<g filter="url(#filter0_d_37_742)">
<path d="M21.9994 36.8381C17.2999 36.8381 12.8751 35.4597 9.52952 32.9529C7.87636 31.7118 6.57149 30.2598 5.65907 28.6361C4.69758 26.9289 4.20703 25.109 4.20703 23.2351C4.20703 19.9876 5.69831 16.8824 8.42088 14.4297C8.40125 14.2285 8.39144 14.0225 8.39144 13.8165C8.39144 10.3532 11.2072 7.53741 14.6705 7.53741C16.5297 7.53741 18.281 8.36154 19.4681 9.76452C21.136 9.58302 22.8529 9.58302 24.5208 9.76452C25.7079 8.35664 27.4592 7.53741 29.3184 7.53741C32.7817 7.53741 35.5975 10.3532 35.5975 13.8165C35.5975 14.0225 35.5877 14.2236 35.568 14.4297C38.2906 16.8824 39.7819 19.9876 39.7819 23.2351C39.7819 25.1139 39.2913 26.9289 38.3299 28.6361C37.4125 30.2598 36.1126 31.7118 34.4594 32.9529C31.1236 35.4597 26.6989 36.8381 21.9994 36.8381Z" fill="white"/>
</g>
<g filter="url(#filter1_d_37_742)">
<path d="M21.9994 36.8381C17.2999 36.8381 12.8751 35.4597 9.52952 32.9529C7.87636 31.7118 6.57149 30.2598 5.65907 28.6361C4.69758 26.9289 4.20703 25.109 4.20703 23.2351C4.20703 19.9876 5.69831 16.8824 8.42088 14.4297C8.40125 14.2285 8.39144 14.0225 8.39144 13.8165C8.39144 10.3532 11.2072 7.53741 14.6705 7.53741C16.5297 7.53741 18.281 8.36154 19.4681 9.76452C21.136 9.58302 22.8529 9.58302 24.5208 9.76452C25.7079 8.35664 27.4592 7.53741 29.3184 7.53741C32.7817 7.53741 35.5975 10.3532 35.5975 13.8165C35.5975 14.0225 35.5877 14.2236 35.568 14.4297C38.2906 16.8824 39.7819 19.9876 39.7819 23.2351C39.7819 25.1139 39.2913 26.9289 38.3299 28.6361C37.4125 30.2598 36.1126 31.7118 34.4594 32.9529C31.1236 35.4597 26.6989 36.8381 21.9994 36.8381ZM14.6754 9.62717C12.3649 9.62717 10.491 11.506 10.491 13.8116C10.491 14.0863 10.5204 14.3659 10.5695 14.6357L10.6921 15.244L10.2163 15.6413C7.69486 17.7458 6.3066 20.4389 6.3066 23.2302C6.3066 26.2471 7.90089 29.1021 10.7902 31.2752C13.7728 33.5122 17.7561 34.7434 22.0043 34.7434C26.2525 34.7434 30.2357 33.5122 33.2183 31.2752C36.1126 29.107 37.7019 26.2471 37.7019 23.2302C37.7019 20.4438 36.3137 17.7458 33.7922 15.6413L33.3164 15.244L33.439 14.6357C33.493 14.3659 33.5175 14.0912 33.5175 13.8116C33.5175 11.5011 31.6387 9.62717 29.3331 9.62717C27.9449 9.62717 26.6498 10.3139 25.8698 11.4618L25.5068 11.9965L24.8642 11.9082C22.9952 11.6531 21.0232 11.6531 19.1542 11.9082L18.5115 11.9965L18.1485 11.4618C17.3587 10.3139 16.0637 9.62717 14.6754 9.62717Z" fill="#1E1E1E"/>
</g>
<g filter="url(#filter2_d_37_742)">
<path d="M21.9996 32.6537C18.9925 32.6537 16.1522 31.8246 13.9987 30.3186C11.7323 28.7341 10.4863 26.5904 10.4863 24.2799C10.4863 23.7011 10.9573 23.235 11.5312 23.235C12.1052 23.235 12.581 23.7011 12.581 24.2799C12.581 25.884 13.513 27.4195 15.2005 28.6017C17.0009 29.8624 19.4193 30.559 21.9996 30.559C24.5799 30.559 26.9983 29.8624 28.7986 28.6017C30.4861 27.4195 31.4182 25.884 31.4182 24.2799C31.4182 23.7011 31.8891 23.235 32.4631 23.235C33.037 23.235 33.5079 23.706 33.5079 24.2799C33.5079 26.5904 32.2619 28.7341 29.9956 30.3186C27.847 31.8246 25.0067 32.6537 21.9996 32.6537Z" fill="#1E1E1E"/>
</g>
<path d="M13.6309 13.8164C13.6309 14.0935 13.7409 14.3593 13.9369 14.5553C14.1328 14.7512 14.3986 14.8613 14.6757 14.8613C14.9529 14.8613 15.2186 14.7512 15.4146 14.5553C15.6105 14.3593 15.7206 14.0935 15.7206 13.8164C15.7206 13.5393 15.6105 13.2735 15.4146 13.0776C15.2186 12.8816 14.9529 12.7715 14.6757 12.7715C14.3986 12.7715 14.1328 12.8816 13.9369 13.0776C13.7409 13.2735 13.6309 13.5393 13.6309 13.8164Z" fill="#FF9100"/>
<path d="M28.2793 13.8165C28.2793 14.0936 28.3894 14.3594 28.5853 14.5553C28.7813 14.7513 29.0471 14.8614 29.3242 14.8614C29.6013 14.8614 29.8671 14.7513 30.063 14.5553C30.259 14.3594 30.369 14.0936 30.369 13.8165C30.369 13.5394 30.259 13.2736 30.063 13.0776C29.8671 12.8817 29.6013 12.7716 29.3242 12.7716C29.0471 12.7716 28.7813 12.8817 28.5853 13.0776C28.3894 13.2736 28.2793 13.5394 28.2793 13.8165Z" fill="#FF9100"/>
<path d="M14.6752 15.1753C13.9247 15.1753 13.3164 14.567 13.3164 13.8165C13.3164 13.0659 13.9247 12.4576 14.6752 12.4576C15.4258 12.4576 16.0341 13.0659 16.0341 13.8165C16.0341 14.567 15.4258 15.1753 14.6752 15.1753ZM14.6752 13.0806C14.273 13.0806 13.9443 13.4093 13.9443 13.8116C13.9443 14.2138 14.273 14.5425 14.6752 14.5425C15.0775 14.5425 15.4062 14.2138 15.4062 13.8116C15.4062 13.4093 15.0775 13.0806 14.6752 13.0806Z" fill="#FF9100"/>
<path d="M29.3217 15.1753C28.5712 15.1753 27.9629 14.567 27.9629 13.8165C27.9629 13.0659 28.5712 12.4576 29.3217 12.4576C30.0723 12.4576 30.6806 13.0659 30.6806 13.8165C30.6855 14.567 30.0723 15.1753 29.3217 15.1753ZM29.3217 13.0806C28.9195 13.0806 28.5908 13.4093 28.5908 13.8116C28.5908 14.2138 28.9195 14.5425 29.3217 14.5425C29.724 14.5425 30.0526 14.2138 30.0526 13.8116C30.0576 13.4093 29.7289 13.0806 29.3217 13.0806Z" fill="#FF9100"/>
</g>
<defs>
<filter id="filter0_d_37_742" x="4.20703" y="7.53741" width="35.5742" height="30.4084" filterUnits="userSpaceOnUse" color-interpolation-filters="sRGB">
<feFlood flood-opacity="0" result="BackgroundImageFix"/>
<feColorMatrix in="SourceAlpha" type="matrix" values="0 0 0 0 0 0 0 0 0 0 0 0 0 0 0 0 0 0 127 0" result="hardAlpha"/>
<feOffset dy="1.10769"/>
<feComposite in2="hardAlpha" operator="out"/>
<feColorMatrix type="matrix" values="0 0 0 0 0.109804 0 0 0 0 0.611765 0 0 0 0 0.94902 0 0 0 1 0"/>
<feBlend mode="normal" in2="BackgroundImageFix" result="effect1_dropShadow_37_742"/>
<feBlend mode="normal" in="SourceGraphic" in2="effect1_dropShadow_37_742" result="shape"/>
</filter>
<filter id="filter1_d_37_742" x="4.20703" y="7.53741" width="35.5742" height="30.4084" filterUnits="userSpaceOnUse" color-interpolation-filters="sRGB">
<feFlood flood-opacity="0" result="BackgroundImageFix"/>
<feColorMatrix in="SourceAlpha" type="matrix" values="0 0 0 0 0 0 0 0 0 0 0 0 0 0 0 0 0 0 127 0" result="hardAlpha"/>
<feOffset dy="1.10769"/>
<feComposite in2="hardAlpha" operator="out"/>
<feColorMatrix type="matrix" values="0 0 0 0 0.109804 0 0 0 0 0.611765 0 0 0 0 0.94902 0 0 0 1 0"/>
<feBlend mode="normal" in2="BackgroundImageFix" result="effect1_dropShadow_37_742"/>
<feBlend mode="normal" in="SourceGraphic" in2="effect1_dropShadow_37_742" result="shape"/>
</filter>
<filter id="filter2_d_37_742" x="10.4863" y="23.235" width="23.0215" height="10.5263" filterUnits="userSpaceOnUse" color-interpolation-filters="sRGB">
<feFlood flood-opacity="0" result="BackgroundImageFix"/>
<feColorMatrix in="SourceAlpha" type="matrix" values="0 0 0 0 0 0 0 0 0 0 0 0 0 0 0 0 0 0 127 0" result="hardAlpha"/>
<feOffset dy="1.10769"/>
<feComposite in2="hardAlpha" operator="out"/>
<feColorMatrix type="matrix" values="0 0 0 0 0.109804 0 0 0 0 0.611765 0 0 0 0 0.94902 0 0 0 1 0"/>
<feBlend mode="normal" in2="BackgroundImageFix" result="effect1_dropShadow_37_742"/>
<feBlend mode="normal" in="SourceGraphic" in2="effect1_dropShadow_37_742" result="shape"/>
</filter>
<clipPath id="clip0_37_742">
<rect width="44" height="44" fill="white"/>
</clipPath>
</defs>
</svg>
