<svg width="374" height="138" viewBox="0 0 374 138" fill="none" xmlns="http://www.w3.org/2000/svg">
<rect x="1" y="1" width="372" height="136" rx="3" fill="white" stroke="#1E1E1E" stroke-width="2"/>
<path opacity="0.8" d="M24.8164 30.2285C23.3984 30.2285 22.168 29.8242 21.125 29.0156C20.9375 28.875 20.832 28.6816 20.8086 28.4355C20.7969 28.4121 20.791 28.3828 20.791 28.3477C20.791 28.1484 20.8555 27.9668 20.9844 27.8027C21.1133 27.627 21.2891 27.5273 21.5117 27.5039C21.5352 27.5039 21.5645 27.5039 21.5996 27.5039C21.7871 27.5039 21.957 27.5625 22.1094 27.6797C22.8594 28.2539 23.6797 28.541 24.5703 28.541C25.332 28.541 25.959 28.2891 26.4512 27.7852C26.9551 27.2695 27.207 26.5781 27.207 25.7109C27.207 24.8438 26.9785 24.1699 26.5215 23.6895C26.0645 23.1973 25.4492 22.9512 24.6758 22.9512C24.125 22.9512 23.5918 23.0977 23.0762 23.3906C22.9004 23.4844 22.7305 23.5312 22.5664 23.5312C22.3906 23.5312 22.2207 23.4785 22.0566 23.373C21.7168 23.1504 21.5586 22.834 21.582 22.4238L21.8809 17.7832C21.8926 17.4902 22.0039 17.2441 22.2148 17.0449C22.4375 16.8457 22.6953 16.7461 22.9883 16.7461H27.7871C28.0215 16.7461 28.2266 16.834 28.4023 17.0098C28.5781 17.1738 28.666 17.3789 28.666 17.625C28.666 17.8711 28.5781 18.082 28.4023 18.2578C28.2266 18.4219 28.0215 18.5039 27.7871 18.5039H23.8672C23.7852 18.5039 23.7383 18.5449 23.7266 18.627L23.4453 21.7734C23.4453 21.7969 23.457 21.8203 23.4805 21.8438C23.5039 21.8555 23.5273 21.8555 23.5508 21.8438C24.1133 21.5742 24.6816 21.4395 25.2559 21.4395C26.4395 21.4395 27.4062 21.7969 28.1562 22.5117C28.9062 23.2148 29.2812 24.2578 29.2812 25.6406C29.2812 26.5898 29.0703 27.4219 28.6484 28.1367C28.2266 28.8398 27.6816 29.3672 27.0137 29.7188C26.3457 30.0586 25.6133 30.2285 24.8164 30.2285ZM35.3809 30.2285C34.0449 30.2285 32.9961 29.6426 32.2344 28.4707C31.4727 27.2988 31.0918 25.582 31.0918 23.3203C31.0918 21.082 31.4727 19.3887 32.2344 18.2402C32.9961 17.0801 34.0449 16.5 35.3809 16.5C36.7051 16.5 37.748 17.0801 38.5098 18.2402C39.2832 19.4004 39.6699 21.0938 39.6699 23.3203C39.6699 25.5703 39.2832 27.2871 38.5098 28.4707C37.748 29.6426 36.7051 30.2285 35.3809 30.2285ZM33.6934 27.3281C34.1035 28.1719 34.666 28.5938 35.3809 28.5938C36.0957 28.5938 36.6582 28.1719 37.0684 27.3281C37.4785 26.4844 37.6836 25.1484 37.6836 23.3203C37.6836 19.8633 36.916 18.1348 35.3809 18.1348C33.8457 18.1348 33.0781 19.8633 33.0781 23.3203C33.0781 25.1484 33.2832 26.4844 33.6934 27.3281ZM46.4902 23.7773C45.9277 24.5156 45.1777 24.8848 44.2402 24.8848C43.3027 24.8848 42.5527 24.5156 41.9902 23.7773C41.4277 23.0273 41.1465 21.9961 41.1465 20.6836C41.1465 19.3711 41.4277 18.3457 41.9902 17.6074C42.5527 16.8691 43.3027 16.5 44.2402 16.5C45.1777 16.5 45.9277 16.8691 46.4902 17.6074C47.0645 18.3457 47.3516 19.3711 47.3516 20.6836C47.3516 21.9961 47.0645 23.0273 46.4902 23.7773ZM44.2402 23.6719C44.7324 23.6719 45.1191 23.4199 45.4004 22.916C45.6934 22.4004 45.8398 21.6562 45.8398 20.6836C45.8398 19.6875 45.6934 18.9492 45.4004 18.4688C45.1191 17.9766 44.7324 17.7305 44.2402 17.7305C43.7598 17.7305 43.373 17.9766 43.0801 18.4688C42.7988 18.9492 42.6582 19.6875 42.6582 20.6836C42.6582 21.6562 42.7988 22.4004 43.0801 22.916C43.373 23.4199 43.7598 23.6719 44.2402 23.6719ZM45.2949 30.2285C45.1543 30.2285 45.043 30.1699 44.9609 30.0527C44.9258 29.9824 44.9082 29.9121 44.9082 29.8418C44.9082 29.7832 44.9258 29.7246 44.9609 29.666L51.6055 17.0801C51.8047 16.6934 52.127 16.5 52.5723 16.5C52.7129 16.5 52.8184 16.5645 52.8887 16.6934C52.9707 16.8223 52.9766 16.9512 52.9062 17.0801L46.2617 29.666C46.0508 30.041 45.7285 30.2285 45.2949 30.2285ZM53.6621 30.2285C52.7129 30.2285 51.9512 29.8594 51.377 29.1211C50.8145 28.3828 50.5332 27.3574 50.5332 26.0449C50.5332 24.7324 50.8145 23.707 51.377 22.9688C51.9512 22.2305 52.7129 21.8613 53.6621 21.8613C54.5879 21.8613 55.332 22.2305 55.8945 22.9688C56.4688 23.707 56.7559 24.7324 56.7559 26.0449C56.7559 27.3574 56.4688 28.3828 55.8945 29.1211C55.332 29.8594 54.5879 30.2285 53.6621 30.2285ZM53.6621 29.0332C54.1309 29.0332 54.5117 28.7812 54.8047 28.2773C55.0977 27.7617 55.2441 27.0176 55.2441 26.0449C55.2441 25.0605 55.0977 24.3223 54.8047 23.8301C54.5234 23.3379 54.1426 23.0918 53.6621 23.0918C53.1699 23.0918 52.7773 23.3379 52.4844 23.8301C52.1914 24.3105 52.0449 25.0488 52.0449 26.0449C52.0449 27.0293 52.1914 27.7734 52.4844 28.2773C52.7773 28.7812 53.1699 29.0332 53.6621 29.0332Z" fill="#1E1E1E"/>
<path opacity="0.8" d="M22.5137 70.7266C22.502 70.75 22.502 70.7734 22.5137 70.7969C22.5254 70.8203 22.5488 70.832 22.584 70.832H25.959C26.041 70.832 26.082 70.791 26.082 70.709V67.3516C26.082 67.0703 26.1172 66.2324 26.1875 64.8379C26.1875 64.8145 26.1758 64.8027 26.1523 64.8027C26.1289 64.8027 26.1113 64.8145 26.0996 64.8379C25.8066 65.4473 25.4609 66.1152 25.0625 66.8418L22.5137 70.7266ZM28.9121 70.832C29.1348 70.832 29.3223 70.9141 29.4746 71.0781C29.6387 71.2305 29.7207 71.418 29.7207 71.6406C29.7207 71.8633 29.6387 72.0508 29.4746 72.2031C29.3223 72.3555 29.1348 72.4316 28.9121 72.4316H28.1562C28.0742 72.4316 28.0332 72.4785 28.0332 72.5723V75.0332C28.0332 75.3027 27.9336 75.5312 27.7344 75.7188C27.5469 75.9062 27.3184 76 27.0488 76C26.791 76 26.5625 75.9062 26.3633 75.7188C26.1758 75.5312 26.082 75.3027 26.082 75.0332V72.5723C26.082 72.4785 26.041 72.4316 25.959 72.4316H21.0547C20.8672 72.4316 20.7031 72.3672 20.5625 72.2383C20.4219 72.0977 20.3516 71.9336 20.3516 71.7461C20.3516 71.2773 20.4805 70.8496 20.7383 70.4629L25.0801 63.625C25.2559 63.3555 25.4844 63.1445 25.7656 62.9922C26.0469 62.8281 26.3516 62.7461 26.6797 62.7461H26.9961C27.2773 62.7461 27.5176 62.8516 27.7168 63.0625C27.9277 63.2617 28.0332 63.502 28.0332 63.7832V70.709C28.0332 70.791 28.0742 70.832 28.1562 70.832H28.9121ZM32.7617 70.7266C32.75 70.75 32.75 70.7734 32.7617 70.7969C32.7734 70.8203 32.7969 70.832 32.832 70.832H36.207C36.2891 70.832 36.3301 70.791 36.3301 70.709V67.3516C36.3301 67.0703 36.3652 66.2324 36.4355 64.8379C36.4355 64.8145 36.4238 64.8027 36.4004 64.8027C36.377 64.8027 36.3594 64.8145 36.3477 64.8379C36.0547 65.4473 35.709 66.1152 35.3105 66.8418L32.7617 70.7266ZM39.1602 70.832C39.3828 70.832 39.5703 70.9141 39.7227 71.0781C39.8867 71.2305 39.9688 71.418 39.9688 71.6406C39.9688 71.8633 39.8867 72.0508 39.7227 72.2031C39.5703 72.3555 39.3828 72.4316 39.1602 72.4316H38.4043C38.3223 72.4316 38.2812 72.4785 38.2812 72.5723V75.0332C38.2812 75.3027 38.1816 75.5312 37.9824 75.7188C37.7949 75.9062 37.5664 76 37.2969 76C37.0391 76 36.8105 75.9062 36.6113 75.7188C36.4238 75.5312 36.3301 75.3027 36.3301 75.0332V72.5723C36.3301 72.4785 36.2891 72.4316 36.207 72.4316H31.3027C31.1152 72.4316 30.9512 72.3672 30.8105 72.2383C30.6699 72.0977 30.5996 71.9336 30.5996 71.7461C30.5996 71.2773 30.7285 70.8496 30.9863 70.4629L35.3281 63.625C35.5039 63.3555 35.7324 63.1445 36.0137 62.9922C36.2949 62.8281 36.5996 62.7461 36.9277 62.7461H37.2441C37.5254 62.7461 37.7656 62.8516 37.9648 63.0625C38.1758 63.2617 38.2812 63.502 38.2812 63.7832V70.709C38.2812 70.791 38.3223 70.832 38.4043 70.832H39.1602ZM44.1523 75.8242C43.8945 76.0938 43.5664 76.2285 43.168 76.2285C42.7812 76.2285 42.4531 76.0938 42.1836 75.8242C41.9258 75.5547 41.7969 75.2148 41.7969 74.8047C41.7969 74.3828 41.9258 74.0312 42.1836 73.75C42.4531 73.457 42.7812 73.3105 43.168 73.3105C43.5664 73.3105 43.8945 73.457 44.1523 73.75C44.4219 74.0312 44.5566 74.3828 44.5566 74.8047C44.5566 75.2148 44.4219 75.5547 44.1523 75.8242ZM48.2656 76C48.0312 76 47.8262 75.918 47.6504 75.7539C47.4863 75.5898 47.4043 75.3906 47.4043 75.1562C47.4043 74.9102 47.4863 74.7051 47.6504 74.541C47.8262 74.377 48.0312 74.2949 48.2656 74.2949H50.1641C50.2578 74.2949 50.3047 74.248 50.3047 74.1543V65.207C50.3047 65.1133 50.2578 65.0664 50.1641 65.0664H48.582C48.4062 65.0664 48.2539 65.0078 48.125 64.8906C47.9961 64.7617 47.9316 64.6035 47.9316 64.416C47.9316 64.2285 47.9902 64.0645 48.1074 63.9238C48.2246 63.7715 48.377 63.6719 48.5645 63.625C49.1621 63.4844 49.6777 63.3145 50.1113 63.1152C50.6621 62.8691 51.1543 62.7461 51.5879 62.7461C51.8105 62.7461 51.998 62.8223 52.1504 62.9746C52.3027 63.127 52.3789 63.3145 52.3789 63.5371V74.1543C52.3789 74.248 52.4199 74.2949 52.502 74.2949H54.1191C54.3535 74.2949 54.5527 74.377 54.7168 74.541C54.8809 74.7051 54.9629 74.9102 54.9629 75.1562C54.9629 75.3906 54.8809 75.5898 54.7168 75.7539C54.5527 75.918 54.3535 76 54.1191 76H48.2656ZM62.0996 69.7773C61.5371 70.5156 60.7871 70.8848 59.8496 70.8848C58.9121 70.8848 58.1621 70.5156 57.5996 69.7773C57.0371 69.0273 56.7559 67.9961 56.7559 66.6836C56.7559 65.3711 57.0371 64.3457 57.5996 63.6074C58.1621 62.8691 58.9121 62.5 59.8496 62.5C60.7871 62.5 61.5371 62.8691 62.0996 63.6074C62.6738 64.3457 62.9609 65.3711 62.9609 66.6836C62.9609 67.9961 62.6738 69.0273 62.0996 69.7773ZM59.8496 69.6719C60.3418 69.6719 60.7285 69.4199 61.0098 68.916C61.3027 68.4004 61.4492 67.6562 61.4492 66.6836C61.4492 65.6875 61.3027 64.9492 61.0098 64.4688C60.7285 63.9766 60.3418 63.7305 59.8496 63.7305C59.3691 63.7305 58.9824 63.9766 58.6895 64.4688C58.4082 64.9492 58.2676 65.6875 58.2676 66.6836C58.2676 67.6562 58.4082 68.4004 58.6895 68.916C58.9824 69.4199 59.3691 69.6719 59.8496 69.6719ZM60.9043 76.2285C60.7637 76.2285 60.6523 76.1699 60.5703 76.0527C60.5352 75.9824 60.5176 75.9121 60.5176 75.8418C60.5176 75.7832 60.5352 75.7246 60.5703 75.666L67.2148 63.0801C67.4141 62.6934 67.7363 62.5 68.1816 62.5C68.3223 62.5 68.4277 62.5645 68.498 62.6934C68.5801 62.8223 68.5859 62.9512 68.5156 63.0801L61.8711 75.666C61.6602 76.041 61.3379 76.2285 60.9043 76.2285ZM69.2715 76.2285C68.3223 76.2285 67.5605 75.8594 66.9863 75.1211C66.4238 74.3828 66.1426 73.3574 66.1426 72.0449C66.1426 70.7324 66.4238 69.707 66.9863 68.9688C67.5605 68.2305 68.3223 67.8613 69.2715 67.8613C70.1973 67.8613 70.9414 68.2305 71.5039 68.9688C72.0781 69.707 72.3652 70.7324 72.3652 72.0449C72.3652 73.3574 72.0781 74.3828 71.5039 75.1211C70.9414 75.8594 70.1973 76.2285 69.2715 76.2285ZM69.2715 75.0332C69.7402 75.0332 70.1211 74.7812 70.4141 74.2773C70.707 73.7617 70.8535 73.0176 70.8535 72.0449C70.8535 71.0605 70.707 70.3223 70.4141 69.8301C70.1328 69.3379 69.752 69.0918 69.2715 69.0918C68.7793 69.0918 68.3867 69.3379 68.0938 69.8301C67.8008 70.3105 67.6543 71.0488 67.6543 72.0449C67.6543 73.0293 67.8008 73.7734 68.0938 74.2773C68.3867 74.7812 68.7793 75.0332 69.2715 75.0332Z" fill="#1E1E1E"/>
<path opacity="0.8" d="M24.8164 122.229C23.3984 122.229 22.168 121.824 21.125 121.016C20.9375 120.875 20.832 120.682 20.8086 120.436C20.7969 120.412 20.791 120.383 20.791 120.348C20.791 120.148 20.8555 119.967 20.9844 119.803C21.1133 119.627 21.2891 119.527 21.5117 119.504C21.5352 119.504 21.5645 119.504 21.5996 119.504C21.7871 119.504 21.957 119.562 22.1094 119.68C22.8594 120.254 23.6797 120.541 24.5703 120.541C25.332 120.541 25.959 120.289 26.4512 119.785C26.9551 119.27 27.207 118.578 27.207 117.711C27.207 116.844 26.9785 116.17 26.5215 115.689C26.0645 115.197 25.4492 114.951 24.6758 114.951C24.125 114.951 23.5918 115.098 23.0762 115.391C22.9004 115.484 22.7305 115.531 22.5664 115.531C22.3906 115.531 22.2207 115.479 22.0566 115.373C21.7168 115.15 21.5586 114.834 21.582 114.424L21.8809 109.783C21.8926 109.49 22.0039 109.244 22.2148 109.045C22.4375 108.846 22.6953 108.746 22.9883 108.746H27.7871C28.0215 108.746 28.2266 108.834 28.4023 109.01C28.5781 109.174 28.666 109.379 28.666 109.625C28.666 109.871 28.5781 110.082 28.4023 110.258C28.2266 110.422 28.0215 110.504 27.7871 110.504H23.8672C23.7852 110.504 23.7383 110.545 23.7266 110.627L23.4453 113.773C23.4453 113.797 23.457 113.82 23.4805 113.844C23.5039 113.855 23.5273 113.855 23.5508 113.844C24.1133 113.574 24.6816 113.439 25.2559 113.439C26.4395 113.439 27.4062 113.797 28.1562 114.512C28.9062 115.215 29.2812 116.258 29.2812 117.641C29.2812 118.59 29.0703 119.422 28.6484 120.137C28.2266 120.84 27.6816 121.367 27.0137 121.719C26.3457 122.059 25.6133 122.229 24.8164 122.229ZM33.9043 121.824C33.6465 122.094 33.3184 122.229 32.9199 122.229C32.5332 122.229 32.2051 122.094 31.9355 121.824C31.6777 121.555 31.5488 121.215 31.5488 120.805C31.5488 120.383 31.6777 120.031 31.9355 119.75C32.2051 119.457 32.5332 119.311 32.9199 119.311C33.3184 119.311 33.6465 119.457 33.9043 119.75C34.1738 120.031 34.3086 120.383 34.3086 120.805C34.3086 121.215 34.1738 121.555 33.9043 121.824ZM40.4434 115.514C41.3457 115.514 42.166 115.01 42.9043 114.002C42.9512 113.932 42.9688 113.855 42.957 113.773C42.8516 112.543 42.5703 111.623 42.1133 111.014C41.6562 110.404 41.0645 110.1 40.3379 110.1C39.752 110.1 39.2656 110.352 38.8789 110.855C38.5039 111.348 38.3164 112.016 38.3164 112.859C38.3164 113.703 38.498 114.359 38.8613 114.828C39.2363 115.285 39.7637 115.514 40.4434 115.514ZM37.2441 121.385C37.0332 121.232 36.9277 121.027 36.9277 120.77C36.9277 120.547 37.0039 120.354 37.1562 120.189C37.2969 120.025 37.4844 119.938 37.7188 119.926C37.7422 119.926 37.7656 119.926 37.7891 119.926C38 119.926 38.1934 119.984 38.3691 120.102C38.8379 120.395 39.3477 120.541 39.8984 120.541C40.7656 120.541 41.4805 120.148 42.043 119.363C42.6055 118.578 42.9277 117.324 43.0098 115.602C43.0098 115.578 42.998 115.566 42.9746 115.566C42.9512 115.555 42.9336 115.555 42.9219 115.566C42.5352 116.012 42.0898 116.363 41.5859 116.621C41.082 116.879 40.584 117.008 40.0918 117.008C38.9551 117.008 38.0527 116.656 37.3848 115.953C36.7168 115.238 36.3828 114.207 36.3828 112.859C36.3828 111.57 36.7637 110.521 37.5254 109.713C38.2871 108.904 39.2188 108.5 40.3203 108.5C41.668 108.5 42.7695 109.051 43.625 110.152C44.4805 111.242 44.9082 112.836 44.9082 114.934C44.9082 116.188 44.7734 117.295 44.5039 118.256C44.2344 119.217 43.8652 119.984 43.3965 120.559C42.9277 121.121 42.4062 121.543 41.832 121.824C41.2578 122.094 40.6426 122.229 39.9863 122.229C38.9434 122.229 38.0293 121.947 37.2441 121.385ZM51.8516 115.777C51.2891 116.516 50.5391 116.885 49.6016 116.885C48.6641 116.885 47.9141 116.516 47.3516 115.777C46.7891 115.027 46.5078 113.996 46.5078 112.684C46.5078 111.371 46.7891 110.346 47.3516 109.607C47.9141 108.869 48.6641 108.5 49.6016 108.5C50.5391 108.5 51.2891 108.869 51.8516 109.607C52.4258 110.346 52.7129 111.371 52.7129 112.684C52.7129 113.996 52.4258 115.027 51.8516 115.777ZM49.6016 115.672C50.0938 115.672 50.4805 115.42 50.7617 114.916C51.0547 114.4 51.2012 113.656 51.2012 112.684C51.2012 111.688 51.0547 110.949 50.7617 110.469C50.4805 109.977 50.0938 109.73 49.6016 109.73C49.1211 109.73 48.7344 109.977 48.4414 110.469C48.1602 110.949 48.0195 111.688 48.0195 112.684C48.0195 113.656 48.1602 114.4 48.4414 114.916C48.7344 115.42 49.1211 115.672 49.6016 115.672ZM50.6562 122.229C50.5156 122.229 50.4043 122.17 50.3223 122.053C50.2871 121.982 50.2695 121.912 50.2695 121.842C50.2695 121.783 50.2871 121.725 50.3223 121.666L56.9668 109.08C57.166 108.693 57.4883 108.5 57.9336 108.5C58.0742 108.5 58.1797 108.564 58.25 108.693C58.332 108.822 58.3379 108.951 58.2676 109.08L51.623 121.666C51.4121 122.041 51.0898 122.229 50.6562 122.229ZM59.0234 122.229C58.0742 122.229 57.3125 121.859 56.7383 121.121C56.1758 120.383 55.8945 119.357 55.8945 118.045C55.8945 116.732 56.1758 115.707 56.7383 114.969C57.3125 114.23 58.0742 113.861 59.0234 113.861C59.9492 113.861 60.6934 114.23 61.2559 114.969C61.8301 115.707 62.1172 116.732 62.1172 118.045C62.1172 119.357 61.8301 120.383 61.2559 121.121C60.6934 121.859 59.9492 122.229 59.0234 122.229ZM59.0234 121.033C59.4922 121.033 59.873 120.781 60.166 120.277C60.459 119.762 60.6055 119.018 60.6055 118.045C60.6055 117.061 60.459 116.322 60.166 115.83C59.8848 115.338 59.5039 115.092 59.0234 115.092C58.5312 115.092 58.1387 115.338 57.8457 115.83C57.5527 116.311 57.4062 117.049 57.4062 118.045C57.4062 119.029 57.5527 119.773 57.8457 120.277C58.1387 120.781 58.5312 121.033 59.0234 121.033Z" fill="#1E1E1E"/>
<path opacity="0.8" d="M140.777 30C140.496 30 140.25 29.9004 140.039 29.7012C139.84 29.4902 139.74 29.2441 139.74 28.9629V17.7832C139.74 17.502 139.84 17.2617 140.039 17.0625C140.25 16.8516 140.496 16.7461 140.777 16.7461H140.795C141.088 16.7461 141.334 16.8516 141.533 17.0625C141.732 17.2617 141.832 17.502 141.832 17.7832V28.1016C141.832 28.1953 141.879 28.2422 141.973 28.2422H146.543C146.789 28.2422 147 28.3301 147.176 28.5059C147.352 28.6699 147.439 28.875 147.439 29.1211C147.439 29.3672 147.352 29.5781 147.176 29.7539C147 29.918 146.789 30 146.543 30H140.777ZM151.342 29.7012C151.143 29.9004 150.896 30 150.604 30C150.322 30 150.082 29.9004 149.883 29.7012C149.684 29.502 149.584 29.2617 149.584 28.9805V21.123C149.584 20.8418 149.684 20.6016 149.883 20.4023C150.082 20.2031 150.322 20.1035 150.604 20.1035C150.896 20.1035 151.143 20.2031 151.342 20.4023C151.541 20.6016 151.641 20.8418 151.641 21.123V28.9805C151.641 29.2617 151.541 29.502 151.342 29.7012ZM151.553 17.9062C151.307 18.1289 150.99 18.2402 150.604 18.2402C150.229 18.2402 149.918 18.1289 149.672 17.9062C149.426 17.6719 149.303 17.3789 149.303 17.0273C149.303 16.6641 149.426 16.3711 149.672 16.1484C149.918 15.9141 150.229 15.7969 150.604 15.7969C150.99 15.7969 151.307 15.9141 151.553 16.1484C151.811 16.3711 151.939 16.6641 151.939 17.0273C151.939 17.3789 151.811 17.6719 151.553 17.9062ZM162.662 33.7441C162.463 33.9551 162.217 34.0605 161.924 34.0605C161.643 34.0605 161.396 33.9551 161.186 33.7441C160.986 33.5449 160.887 33.3047 160.887 33.0234V30.6855L160.975 29.1211C160.975 29.0977 160.963 29.0801 160.939 29.0684C160.928 29.0566 160.91 29.0566 160.887 29.0684C160.02 29.877 159.111 30.2812 158.162 30.2812C156.908 30.2812 155.912 29.8242 155.174 28.9102C154.436 27.9961 154.066 26.7305 154.066 25.1133C154.066 23.5547 154.482 22.2949 155.314 21.334C156.158 20.373 157.16 19.8926 158.32 19.8926C159.305 19.8926 160.213 20.2852 161.045 21.0703C161.068 21.0938 161.092 21.1055 161.115 21.1055C161.139 21.1055 161.15 21.0938 161.15 21.0703L161.168 20.9473C161.215 20.7129 161.326 20.5195 161.502 20.3672C161.689 20.2148 161.9 20.1387 162.135 20.1387C162.369 20.1387 162.562 20.2207 162.715 20.3848C162.879 20.5488 162.961 20.7422 162.961 20.9648V33.0234C162.961 33.3047 162.861 33.5449 162.662 33.7441ZM158.637 28.5762C159.41 28.5762 160.131 28.207 160.799 27.4688C160.857 27.3984 160.887 27.3164 160.887 27.2227V22.6523C160.887 22.5586 160.857 22.4824 160.799 22.4238C160.166 21.8848 159.469 21.6152 158.707 21.6152C158.004 21.6152 157.412 21.9316 156.932 22.5645C156.451 23.1973 156.211 24.0352 156.211 25.0781C156.211 26.2031 156.422 27.0703 156.844 27.6797C157.266 28.2773 157.863 28.5762 158.637 28.5762ZM168.973 30.2285C166.957 30.2285 165.949 28.9277 165.949 26.3262V21.1406C165.949 20.8477 166.049 20.6016 166.248 20.4023C166.447 20.2031 166.688 20.1035 166.969 20.1035C167.262 20.1035 167.508 20.2031 167.707 20.4023C167.918 20.6016 168.023 20.8477 168.023 21.1406V26.0801C168.023 26.9238 168.152 27.5332 168.41 27.9082C168.668 28.2715 169.09 28.4531 169.676 28.4531C170.109 28.4531 170.496 28.3477 170.836 28.1367C171.188 27.9258 171.562 27.5742 171.961 27.082C172.02 27.0117 172.049 26.9297 172.049 26.8359V21.1406C172.049 20.8477 172.148 20.6016 172.348 20.4023C172.559 20.2031 172.805 20.1035 173.086 20.1035C173.367 20.1035 173.607 20.2031 173.807 20.4023C174.018 20.6016 174.123 20.8477 174.123 21.1406V29.1562C174.123 29.3906 174.041 29.5898 173.877 29.7539C173.713 29.918 173.514 30 173.279 30C173.033 30 172.822 29.9238 172.646 29.7715C172.471 29.6074 172.365 29.4023 172.33 29.1562L172.277 28.541C172.266 28.5176 172.248 28.5059 172.225 28.5059C172.213 28.5059 172.201 28.5117 172.189 28.5234C171.709 29.0859 171.211 29.5137 170.695 29.8066C170.191 30.0879 169.617 30.2285 168.973 30.2285ZM178.975 29.7012C178.775 29.9004 178.529 30 178.236 30C177.955 30 177.715 29.9004 177.516 29.7012C177.316 29.502 177.217 29.2617 177.217 28.9805V21.123C177.217 20.8418 177.316 20.6016 177.516 20.4023C177.715 20.2031 177.955 20.1035 178.236 20.1035C178.529 20.1035 178.775 20.2031 178.975 20.4023C179.174 20.6016 179.273 20.8418 179.273 21.123V28.9805C179.273 29.2617 179.174 29.502 178.975 29.7012ZM179.186 17.9062C178.939 18.1289 178.623 18.2402 178.236 18.2402C177.861 18.2402 177.551 18.1289 177.305 17.9062C177.059 17.6719 176.936 17.3789 176.936 17.0273C176.936 16.6641 177.059 16.3711 177.305 16.1484C177.551 15.9141 177.861 15.7969 178.236 15.7969C178.623 15.7969 178.939 15.9141 179.186 16.1484C179.443 16.3711 179.572 16.6641 179.572 17.0273C179.572 17.3789 179.443 17.6719 179.186 17.9062ZM185.795 30.2285C184.541 30.2285 183.545 29.7773 182.807 28.875C182.068 27.9609 181.699 26.6895 181.699 25.0605C181.699 23.5137 182.115 22.2598 182.947 21.2988C183.791 20.3262 184.793 19.8398 185.953 19.8398C186.457 19.8398 186.902 19.9277 187.289 20.1035C187.688 20.2676 188.098 20.5254 188.52 20.877C188.531 20.8887 188.549 20.8945 188.572 20.8945C188.596 20.8828 188.607 20.8594 188.607 20.8242L188.52 19.3301V16.6934C188.52 16.4004 188.619 16.1543 188.818 15.9551C189.029 15.7559 189.275 15.6562 189.557 15.6562C189.85 15.6562 190.096 15.7559 190.295 15.9551C190.494 16.1543 190.594 16.4004 190.594 16.6934V29.1562C190.594 29.3906 190.512 29.5898 190.348 29.7539C190.184 29.918 189.984 30 189.75 30C189.504 30 189.287 29.9238 189.1 29.7715C188.912 29.6074 188.801 29.4023 188.766 29.1562L188.73 28.9102C188.73 28.8984 188.719 28.8926 188.695 28.8926C188.672 28.8926 188.654 28.8984 188.643 28.9102C187.775 29.7891 186.826 30.2285 185.795 30.2285ZM186.27 28.5234C187.043 28.5234 187.764 28.1543 188.432 27.416C188.49 27.3574 188.52 27.2812 188.52 27.1875V22.5996C188.52 22.5176 188.49 22.4473 188.432 22.3887C187.787 21.8496 187.09 21.5801 186.34 21.5801C185.637 21.5801 185.045 21.8965 184.564 22.5293C184.084 23.1504 183.844 23.9824 183.844 25.0254C183.844 26.1504 184.055 27.0176 184.477 27.627C184.898 28.2246 185.496 28.5234 186.27 28.5234ZM195.463 29.7012C195.264 29.9004 195.018 30 194.725 30C194.443 30 194.203 29.9004 194.004 29.7012C193.805 29.502 193.705 29.2617 193.705 28.9805V21.123C193.705 20.8418 193.805 20.6016 194.004 20.4023C194.203 20.2031 194.443 20.1035 194.725 20.1035C195.018 20.1035 195.264 20.2031 195.463 20.4023C195.662 20.6016 195.762 20.8418 195.762 21.123V28.9805C195.762 29.2617 195.662 29.502 195.463 29.7012ZM195.674 17.9062C195.428 18.1289 195.111 18.2402 194.725 18.2402C194.35 18.2402 194.039 18.1289 193.793 17.9062C193.547 17.6719 193.424 17.3789 193.424 17.0273C193.424 16.6641 193.547 16.3711 193.793 16.1484C194.039 15.9141 194.35 15.7969 194.725 15.7969C195.111 15.7969 195.428 15.9141 195.674 16.1484C195.932 16.3711 196.061 16.6641 196.061 17.0273C196.061 17.3789 195.932 17.6719 195.674 17.9062ZM202.195 30.2285C201.129 30.2285 200.361 29.9297 199.893 29.332C199.424 28.7227 199.189 27.8672 199.189 26.7656V21.8965C199.189 21.8027 199.143 21.7559 199.049 21.7559H198.521C198.299 21.7559 198.111 21.6797 197.959 21.5273C197.818 21.375 197.748 21.1934 197.748 20.9824C197.748 20.7598 197.818 20.5723 197.959 20.4199C198.111 20.2559 198.299 20.168 198.521 20.1562L199.137 20.1035C199.23 20.1035 199.277 20.0566 199.277 19.9629L199.436 18.2402C199.459 17.9941 199.559 17.7891 199.734 17.625C199.922 17.4492 200.139 17.3613 200.385 17.3613C200.619 17.3613 200.818 17.4492 200.982 17.625C201.158 17.7891 201.246 17.9941 201.246 18.2402V19.9629C201.246 20.0566 201.293 20.1035 201.387 20.1035H203.004C203.227 20.1035 203.42 20.1855 203.584 20.3496C203.748 20.502 203.83 20.6953 203.83 20.9297C203.83 21.1523 203.748 21.3457 203.584 21.5098C203.42 21.6738 203.227 21.7559 203.004 21.7559H201.387C201.293 21.7559 201.246 21.8027 201.246 21.8965V26.7832C201.246 27.3809 201.357 27.832 201.58 28.1367C201.814 28.4297 202.184 28.5762 202.688 28.5762C202.781 28.5762 202.887 28.5703 203.004 28.5586C203.051 28.5469 203.098 28.541 203.145 28.541C203.309 28.541 203.461 28.582 203.602 28.6641C203.777 28.7578 203.889 28.9043 203.936 29.1035C203.959 29.1738 203.971 29.2441 203.971 29.3145C203.971 29.4551 203.936 29.5898 203.865 29.7188C203.748 29.918 203.584 30.041 203.373 30.0879C202.951 30.1816 202.559 30.2285 202.195 30.2285ZM212.953 20.1387C213.199 20.1387 213.398 20.2441 213.551 20.4551C213.633 20.584 213.674 20.7188 213.674 20.8594C213.674 20.9297 213.662 21.0117 213.639 21.1055L210.334 30.6328C209.912 31.793 209.396 32.6719 208.787 33.2695C208.189 33.8789 207.404 34.1836 206.432 34.1836C206.279 34.1836 206.133 34.1777 205.992 34.166C205.77 34.1426 205.6 34.0312 205.482 33.832C205.4 33.6914 205.359 33.5449 205.359 33.3926C205.359 33.3223 205.365 33.252 205.377 33.1816C205.436 32.9707 205.559 32.8066 205.746 32.6895C205.934 32.584 206.15 32.5254 206.396 32.5137C207.311 32.4668 207.967 31.8457 208.365 30.6504L208.523 30.1055C208.559 30.0234 208.559 29.9414 208.523 29.8594L205.025 21.1055C204.99 21.0117 204.973 20.9238 204.973 20.8418C204.973 20.7129 205.014 20.584 205.096 20.4551C205.236 20.2441 205.43 20.1387 205.676 20.1387H205.729C206.045 20.1387 206.326 20.2324 206.572 20.4199C206.83 20.5957 207.012 20.8301 207.117 21.123L208.611 25.2363C208.682 25.4707 208.816 25.9043 209.016 26.5371C209.215 27.1699 209.373 27.6562 209.49 27.9961C209.502 28.0195 209.52 28.0312 209.543 28.0312C209.578 28.0312 209.602 28.0137 209.613 27.9785L210.369 25.2363L211.652 21.1055C211.746 20.8242 211.91 20.5957 212.145 20.4199C212.391 20.2324 212.66 20.1387 212.953 20.1387ZM221.021 30C220.74 30 220.494 29.9004 220.283 29.7012C220.084 29.4902 219.984 29.2441 219.984 28.9629V17.7832C219.984 17.502 220.084 17.2617 220.283 17.0625C220.494 16.8516 220.74 16.7461 221.021 16.7461H224.01C227.373 16.7461 229.055 18.082 229.055 20.7539C229.055 22.1484 228.598 23.2031 227.684 23.918C226.781 24.6211 225.58 24.9727 224.08 24.9727H222.217C222.123 24.9727 222.076 25.0195 222.076 25.1133V28.9629C222.076 29.2441 221.977 29.4902 221.777 29.7012C221.578 29.9004 221.332 30 221.039 30H221.021ZM222.076 23.1797C222.076 23.2617 222.123 23.3027 222.217 23.3027H223.887C224.941 23.3027 225.727 23.0977 226.242 22.6875C226.758 22.2656 227.016 21.6211 227.016 20.7539C227.016 19.8984 226.752 19.3008 226.225 18.9609C225.709 18.6094 224.9 18.4336 223.799 18.4336H222.217C222.123 18.4336 222.076 18.4746 222.076 18.5566V23.1797ZM236.754 29.877C236.203 30.1113 235.617 30.2285 234.996 30.2285C234.387 30.2285 233.801 30.1113 233.238 29.877C232.676 29.6426 232.178 29.3145 231.744 28.8926C231.322 28.459 230.982 27.9141 230.725 27.2578C230.467 26.5898 230.338 25.8574 230.338 25.0605C230.338 24.2637 230.467 23.5312 230.725 22.8633C230.982 22.1953 231.322 21.6445 231.744 21.2109C232.178 20.7773 232.676 20.4434 233.238 20.209C233.801 19.9629 234.387 19.8398 234.996 19.8398C235.617 19.8398 236.203 19.9629 236.754 20.209C237.316 20.4434 237.814 20.7773 238.248 21.2109C238.682 21.6445 239.027 22.1953 239.285 22.8633C239.543 23.5312 239.672 24.2637 239.672 25.0605C239.672 25.8574 239.543 26.5898 239.285 27.2578C239.027 27.9141 238.682 28.459 238.248 28.8926C237.814 29.3145 237.316 29.6426 236.754 29.877ZM234.996 28.541C235.781 28.541 236.402 28.2246 236.859 27.5918C237.316 26.959 237.545 26.1152 237.545 25.0605C237.545 24.0059 237.316 23.1621 236.859 22.5293C236.402 21.8848 235.781 21.5625 234.996 21.5625C234.234 21.5625 233.625 21.8848 233.168 22.5293C232.711 23.1621 232.482 24.0059 232.482 25.0605C232.482 26.1152 232.711 26.959 233.168 27.5918C233.625 28.2246 234.234 28.541 234.996 28.541ZM247.793 29.877C247.242 30.1113 246.656 30.2285 246.035 30.2285C245.426 30.2285 244.84 30.1113 244.277 29.877C243.715 29.6426 243.217 29.3145 242.783 28.8926C242.361 28.459 242.021 27.9141 241.764 27.2578C241.506 26.5898 241.377 25.8574 241.377 25.0605C241.377 24.2637 241.506 23.5312 241.764 22.8633C242.021 22.1953 242.361 21.6445 242.783 21.2109C243.217 20.7773 243.715 20.4434 244.277 20.209C244.84 19.9629 245.426 19.8398 246.035 19.8398C246.656 19.8398 247.242 19.9629 247.793 20.209C248.355 20.4434 248.854 20.7773 249.287 21.2109C249.721 21.6445 250.066 22.1953 250.324 22.8633C250.582 23.5312 250.711 24.2637 250.711 25.0605C250.711 25.8574 250.582 26.5898 250.324 27.2578C250.066 27.9141 249.721 28.459 249.287 28.8926C248.854 29.3145 248.355 29.6426 247.793 29.877ZM246.035 28.541C246.82 28.541 247.441 28.2246 247.898 27.5918C248.355 26.959 248.584 26.1152 248.584 25.0605C248.584 24.0059 248.355 23.1621 247.898 22.5293C247.441 21.8848 246.82 21.5625 246.035 21.5625C245.273 21.5625 244.664 21.8848 244.207 22.5293C243.75 23.1621 243.521 24.0059 243.521 25.0605C243.521 26.1152 243.75 26.959 244.207 27.5918C244.664 28.2246 245.273 28.541 246.035 28.541ZM255.176 30.2285C254.449 30.2285 253.922 30.0117 253.594 29.5781C253.277 29.1445 253.119 28.5117 253.119 27.6797V16.6758C253.119 16.3945 253.219 16.1543 253.418 15.9551C253.617 15.7559 253.857 15.6562 254.139 15.6562C254.432 15.6562 254.678 15.7559 254.877 15.9551C255.076 16.1543 255.176 16.3945 255.176 16.6758V27.7852C255.176 28.1367 255.27 28.3711 255.457 28.4883C255.48 28.5 255.533 28.5293 255.615 28.5762C255.697 28.623 255.756 28.6582 255.791 28.6816C255.826 28.7051 255.873 28.7402 255.932 28.7871C255.99 28.8223 256.031 28.8633 256.055 28.9102C256.09 28.957 256.107 29.0098 256.107 29.0684L256.16 29.2969C256.16 29.3438 256.16 29.3965 256.16 29.4551C256.16 29.6191 256.113 29.7715 256.02 29.9121C255.902 30.0996 255.732 30.2051 255.51 30.2285C255.404 30.2285 255.293 30.2285 255.176 30.2285Z" fill="#1E1E1E"/>
<path opacity="0.8" d="M141.779 70.4629C141.768 70.4863 141.773 70.5156 141.797 70.5508C141.82 70.5742 141.844 70.5859 141.867 70.5859H145.225C145.26 70.5859 145.283 70.5742 145.295 70.5508C145.318 70.5156 145.33 70.4863 145.33 70.4629L144.838 68.793C144.615 68.0781 144.199 66.625 143.59 64.4336C143.578 64.4102 143.561 64.3984 143.537 64.3984C143.514 64.3984 143.502 64.4102 143.502 64.4336C143.174 65.7344 142.77 67.1875 142.289 68.793L141.779 70.4629ZM148.02 76C147.715 76 147.439 75.9121 147.193 75.7363C146.947 75.5488 146.777 75.3027 146.684 74.998L145.91 72.3438C145.875 72.2617 145.816 72.2207 145.734 72.2207H141.393C141.299 72.2207 141.24 72.2617 141.217 72.3438L140.426 74.998C140.332 75.3027 140.162 75.5488 139.916 75.7363C139.67 75.9121 139.395 76 139.09 76H139.037C138.779 76 138.574 75.8945 138.422 75.6836C138.328 75.5547 138.281 75.4141 138.281 75.2617C138.281 75.1797 138.299 75.0977 138.334 75.0156L142.061 63.7305C142.166 63.4375 142.342 63.2031 142.588 63.0273C142.834 62.8398 143.115 62.7461 143.432 62.7461H143.766C144.07 62.7461 144.346 62.8398 144.592 63.0273C144.85 63.2031 145.031 63.4375 145.137 63.7305L148.863 75.0156C148.898 75.0977 148.916 75.1797 148.916 75.2617C148.916 75.4141 148.863 75.5547 148.758 75.6836C148.617 75.8945 148.418 76 148.16 76H148.02ZM152.502 75.7012C152.303 75.9004 152.057 76 151.764 76C151.482 76 151.242 75.9004 151.043 75.7012C150.844 75.502 150.744 75.2617 150.744 74.9805V67.123C150.744 66.8418 150.844 66.6016 151.043 66.4023C151.242 66.2031 151.482 66.1035 151.764 66.1035C152.057 66.1035 152.303 66.2031 152.502 66.4023C152.701 66.6016 152.801 66.8418 152.801 67.123V74.9805C152.801 75.2617 152.701 75.502 152.502 75.7012ZM152.713 63.9062C152.467 64.1289 152.15 64.2402 151.764 64.2402C151.389 64.2402 151.078 64.1289 150.832 63.9062C150.586 63.6719 150.463 63.3789 150.463 63.0273C150.463 62.6641 150.586 62.3711 150.832 62.1484C151.078 61.9141 151.389 61.7969 151.764 61.7969C152.15 61.7969 152.467 61.9141 152.713 62.1484C152.971 62.3711 153.1 62.6641 153.1 63.0273C153.1 63.3789 152.971 63.6719 152.713 63.9062ZM157.652 75.7012C157.453 75.9004 157.207 76 156.914 76C156.633 76 156.393 75.9004 156.193 75.7012C155.994 75.502 155.895 75.2617 155.895 74.9805V66.9473C155.895 66.7129 155.977 66.5137 156.141 66.3496C156.305 66.1855 156.504 66.1035 156.738 66.1035C156.984 66.1035 157.195 66.1855 157.371 66.3496C157.547 66.502 157.646 66.7012 157.67 66.9473L157.74 67.8613C157.752 67.873 157.764 67.8789 157.775 67.8789C157.799 67.8789 157.811 67.873 157.811 67.8613C158.162 67.2285 158.584 66.7363 159.076 66.3848C159.568 66.0215 160.078 65.8398 160.605 65.8398C160.688 65.8398 160.764 65.8457 160.834 65.8574C161.092 65.8691 161.291 65.9863 161.432 66.209C161.525 66.373 161.572 66.5488 161.572 66.7363C161.572 66.8066 161.561 66.8828 161.537 66.9648C161.49 67.1992 161.361 67.3809 161.15 67.5098C160.951 67.6387 160.729 67.7031 160.482 67.7031C160.471 67.7031 160.459 67.7031 160.447 67.7031C160.424 67.7031 160.395 67.7031 160.359 67.7031C159.926 67.7031 159.498 67.8672 159.076 68.1953C158.654 68.5117 158.297 69.0156 158.004 69.707C157.969 69.7891 157.951 69.8711 157.951 69.9531V74.9805C157.951 75.2617 157.852 75.502 157.652 75.7012ZM166.494 76.2285C165.24 76.2285 164.244 75.7773 163.506 74.875C162.768 73.9609 162.398 72.6895 162.398 71.0605C162.398 69.5137 162.814 68.2598 163.646 67.2988C164.49 66.3262 165.492 65.8398 166.652 65.8398C167.156 65.8398 167.602 65.9277 167.988 66.1035C168.387 66.2676 168.797 66.5254 169.219 66.877C169.23 66.8887 169.248 66.8945 169.271 66.8945C169.295 66.8828 169.307 66.8594 169.307 66.8242L169.219 65.3301V62.6934C169.219 62.4004 169.318 62.1543 169.518 61.9551C169.729 61.7559 169.975 61.6562 170.256 61.6562C170.549 61.6562 170.795 61.7559 170.994 61.9551C171.193 62.1543 171.293 62.4004 171.293 62.6934V75.1562C171.293 75.3906 171.211 75.5898 171.047 75.7539C170.883 75.918 170.684 76 170.449 76C170.203 76 169.986 75.9238 169.799 75.7715C169.611 75.6074 169.5 75.4023 169.465 75.1562L169.43 74.9102C169.43 74.8984 169.418 74.8926 169.395 74.8926C169.371 74.8926 169.354 74.8984 169.342 74.9102C168.475 75.7891 167.525 76.2285 166.494 76.2285ZM166.969 74.5234C167.742 74.5234 168.463 74.1543 169.131 73.416C169.189 73.3574 169.219 73.2812 169.219 73.1875V68.5996C169.219 68.5176 169.189 68.4473 169.131 68.3887C168.486 67.8496 167.789 67.5801 167.039 67.5801C166.336 67.5801 165.744 67.8965 165.264 68.5293C164.783 69.1504 164.543 69.9824 164.543 71.0254C164.543 72.1504 164.754 73.0176 165.176 73.627C165.598 74.2246 166.195 74.5234 166.969 74.5234ZM176.162 75.7012C175.963 75.9004 175.717 76 175.424 76C175.143 76 174.902 75.9004 174.703 75.7012C174.504 75.502 174.404 75.2617 174.404 74.9805V66.9473C174.404 66.7129 174.486 66.5137 174.65 66.3496C174.814 66.1855 175.014 66.1035 175.248 66.1035C175.494 66.1035 175.705 66.1855 175.881 66.3496C176.057 66.502 176.156 66.7012 176.18 66.9473L176.25 67.8613C176.262 67.873 176.273 67.8789 176.285 67.8789C176.309 67.8789 176.32 67.873 176.32 67.8613C176.672 67.2285 177.094 66.7363 177.586 66.3848C178.078 66.0215 178.588 65.8398 179.115 65.8398C179.197 65.8398 179.273 65.8457 179.344 65.8574C179.602 65.8691 179.801 65.9863 179.941 66.209C180.035 66.373 180.082 66.5488 180.082 66.7363C180.082 66.8066 180.07 66.8828 180.047 66.9648C180 67.1992 179.871 67.3809 179.66 67.5098C179.461 67.6387 179.238 67.7031 178.992 67.7031C178.98 67.7031 178.969 67.7031 178.957 67.7031C178.934 67.7031 178.904 67.7031 178.869 67.7031C178.436 67.7031 178.008 67.8672 177.586 68.1953C177.164 68.5117 176.807 69.0156 176.514 69.707C176.479 69.7891 176.461 69.8711 176.461 69.9531V74.9805C176.461 75.2617 176.361 75.502 176.162 75.7012ZM187.289 75.877C186.738 76.1113 186.152 76.2285 185.531 76.2285C184.922 76.2285 184.336 76.1113 183.773 75.877C183.211 75.6426 182.713 75.3145 182.279 74.8926C181.857 74.459 181.518 73.9141 181.26 73.2578C181.002 72.5898 180.873 71.8574 180.873 71.0605C180.873 70.2637 181.002 69.5312 181.26 68.8633C181.518 68.1953 181.857 67.6445 182.279 67.2109C182.713 66.7773 183.211 66.4434 183.773 66.209C184.336 65.9629 184.922 65.8398 185.531 65.8398C186.152 65.8398 186.738 65.9629 187.289 66.209C187.852 66.4434 188.35 66.7773 188.783 67.2109C189.217 67.6445 189.562 68.1953 189.82 68.8633C190.078 69.5312 190.207 70.2637 190.207 71.0605C190.207 71.8574 190.078 72.5898 189.82 73.2578C189.562 73.9141 189.217 74.459 188.783 74.8926C188.35 75.3145 187.852 75.6426 187.289 75.877ZM185.531 74.541C186.316 74.541 186.938 74.2246 187.395 73.5918C187.852 72.959 188.08 72.1152 188.08 71.0605C188.08 70.0059 187.852 69.1621 187.395 68.5293C186.938 67.8848 186.316 67.5625 185.531 67.5625C184.77 67.5625 184.16 67.8848 183.703 68.5293C183.246 69.1621 183.018 70.0059 183.018 71.0605C183.018 72.1152 183.246 72.959 183.703 73.5918C184.16 74.2246 184.77 74.541 185.531 74.541ZM194.373 79.7617C194.174 79.9609 193.928 80.0605 193.635 80.0605C193.354 80.0605 193.113 79.9609 192.914 79.7617C192.715 79.5625 192.615 79.3164 192.615 79.0234V66.9824C192.615 66.748 192.697 66.5488 192.861 66.3848C193.025 66.2207 193.225 66.1387 193.459 66.1387C193.705 66.1387 193.916 66.2207 194.092 66.3848C194.279 66.5371 194.391 66.7363 194.426 66.9824L194.461 67.1934C194.473 67.2168 194.484 67.2285 194.496 67.2285C194.52 67.2285 194.537 67.2227 194.549 67.2109C195.604 66.332 196.611 65.8926 197.572 65.8926C198.814 65.8926 199.775 66.3496 200.455 67.2637C201.146 68.166 201.492 69.3906 201.492 70.9375C201.492 71.7578 201.375 72.5137 201.141 73.2051C200.906 73.8848 200.59 74.4473 200.191 74.8926C199.793 75.3262 199.336 75.666 198.82 75.9121C198.316 76.1582 197.783 76.2812 197.221 76.2812C196.389 76.2812 195.557 75.9355 194.725 75.2441C194.701 75.2324 194.678 75.2324 194.654 75.2441C194.631 75.2559 194.619 75.2734 194.619 75.2969L194.672 76.8613V79.0234C194.672 79.3164 194.572 79.5625 194.373 79.7617ZM196.834 74.5762C197.572 74.5762 198.176 74.2598 198.645 73.627C199.113 72.9824 199.348 72.0977 199.348 70.9727C199.348 68.7344 198.574 67.6152 197.027 67.6152C196.324 67.6152 195.568 67.9902 194.76 68.7402C194.701 68.7988 194.672 68.8691 194.672 68.9512V73.5391C194.672 73.6211 194.701 73.6914 194.76 73.75C195.439 74.3008 196.131 74.5762 196.834 74.5762Z" fill="#1E1E1E"/>
<path opacity="0.8" d="M144.908 122.229C143.197 122.229 141.785 121.625 140.672 120.418C139.57 119.199 139.02 117.529 139.02 115.408C139.02 114.354 139.172 113.393 139.477 112.525C139.793 111.646 140.221 110.914 140.76 110.328C141.299 109.742 141.932 109.291 142.658 108.975C143.385 108.658 144.164 108.5 144.996 108.5C146.156 108.5 147.199 108.863 148.125 109.59C148.324 109.742 148.424 109.953 148.424 110.223C148.424 110.457 148.348 110.662 148.195 110.838C148.043 111.014 147.85 111.107 147.615 111.119C147.592 111.119 147.568 111.119 147.545 111.119C147.334 111.119 147.141 111.061 146.965 110.943C146.379 110.521 145.734 110.311 145.031 110.311C143.883 110.311 142.951 110.768 142.236 111.682C141.521 112.584 141.164 113.803 141.164 115.338C141.164 116.908 141.504 118.15 142.184 119.064C142.875 119.967 143.807 120.418 144.979 120.418C145.834 120.418 146.602 120.143 147.281 119.592C147.457 119.463 147.65 119.398 147.861 119.398C147.873 119.398 147.891 119.398 147.914 119.398C148.137 119.41 148.324 119.498 148.477 119.662C148.629 119.85 148.705 120.061 148.705 120.295C148.705 120.553 148.611 120.77 148.424 120.945C147.439 121.801 146.268 122.229 144.908 122.229ZM155.314 122.229C153.92 122.229 152.766 121.766 151.852 120.84C150.938 119.914 150.48 118.654 150.48 117.061C150.48 116.287 150.604 115.566 150.85 114.898C151.107 114.23 151.447 113.68 151.869 113.246C152.291 112.801 152.771 112.455 153.311 112.209C153.85 111.963 154.412 111.84 154.998 111.84C156.287 111.84 157.283 112.268 157.986 113.123C158.689 113.967 159.041 115.109 159.041 116.551C159.041 116.551 159.041 116.557 159.041 116.568C159.029 116.85 158.912 117.09 158.689 117.289C158.467 117.488 158.203 117.588 157.898 117.588H152.643C152.561 117.588 152.525 117.635 152.537 117.729C152.631 118.631 152.947 119.34 153.486 119.855C154.037 120.359 154.734 120.611 155.578 120.611C156.164 120.611 156.732 120.488 157.283 120.242C157.4 120.184 157.518 120.154 157.635 120.154C157.705 120.154 157.775 120.166 157.846 120.189C158.045 120.248 158.197 120.365 158.303 120.541C158.361 120.658 158.391 120.781 158.391 120.91C158.391 120.98 158.385 121.051 158.373 121.121C158.314 121.32 158.191 121.467 158.004 121.561C157.148 122.006 156.252 122.229 155.314 122.229ZM152.52 116.059C152.52 116.129 152.555 116.164 152.625 116.164H157.125C157.207 116.164 157.248 116.123 157.248 116.041C157.225 115.221 157.025 114.588 156.65 114.143C156.275 113.697 155.736 113.475 155.033 113.475C154.412 113.475 153.867 113.697 153.398 114.143C152.812 114.717 152.52 115.355 152.52 116.059ZM160.869 122C160.646 122 160.482 121.9 160.377 121.701C160.318 121.607 160.289 121.514 160.289 121.42C160.289 121.314 160.318 121.215 160.377 121.121L162.979 116.938C163.025 116.867 163.025 116.797 162.979 116.727L160.623 112.982C160.564 112.877 160.535 112.777 160.535 112.684C160.535 112.59 160.559 112.496 160.605 112.402C160.711 112.203 160.881 112.104 161.115 112.104H161.273C161.59 112.104 161.889 112.186 162.17 112.35C162.451 112.502 162.674 112.719 162.838 113L163.488 114.09C163.688 114.453 163.992 114.998 164.402 115.725C164.414 115.748 164.432 115.76 164.455 115.76C164.49 115.76 164.508 115.748 164.508 115.725C164.59 115.561 164.678 115.391 164.771 115.215C164.865 115.027 164.965 114.828 165.07 114.617C165.188 114.395 165.275 114.219 165.334 114.09L165.896 113.018C166.037 112.736 166.242 112.514 166.512 112.35C166.793 112.186 167.092 112.104 167.408 112.104H167.496C167.719 112.104 167.889 112.203 168.006 112.402C168.064 112.496 168.094 112.59 168.094 112.684C168.094 112.789 168.064 112.889 168.006 112.982L165.633 116.955C165.586 117.025 165.586 117.102 165.633 117.184L168.182 121.121C168.252 121.227 168.287 121.332 168.287 121.438C168.287 121.52 168.258 121.607 168.199 121.701C168.094 121.9 167.93 122 167.707 122H167.531C167.215 122 166.916 121.924 166.635 121.771C166.354 121.607 166.125 121.391 165.949 121.121L165.211 119.908C164.812 119.182 164.479 118.607 164.209 118.186C164.186 118.162 164.156 118.15 164.121 118.15C164.098 118.15 164.08 118.162 164.068 118.186C163.799 118.678 163.5 119.252 163.172 119.908L162.521 121.086C162.369 121.367 162.152 121.59 161.871 121.754C161.59 121.918 161.291 122 160.975 122H160.869ZM175.846 122C175.564 122 175.318 121.9 175.107 121.701C174.908 121.49 174.809 121.244 174.809 120.963V109.783C174.809 109.502 174.908 109.262 175.107 109.062C175.318 108.852 175.564 108.746 175.846 108.746H175.863C176.156 108.746 176.402 108.852 176.602 109.062C176.801 109.262 176.9 109.502 176.9 109.783V120.102C176.9 120.195 176.947 120.242 177.041 120.242H181.611C181.857 120.242 182.068 120.33 182.244 120.506C182.42 120.67 182.508 120.875 182.508 121.121C182.508 121.367 182.42 121.578 182.244 121.754C182.068 121.918 181.857 122 181.611 122H175.846ZM186.41 121.701C186.211 121.9 185.965 122 185.672 122C185.391 122 185.15 121.9 184.951 121.701C184.752 121.502 184.652 121.262 184.652 120.98V113.123C184.652 112.842 184.752 112.602 184.951 112.402C185.15 112.203 185.391 112.104 185.672 112.104C185.965 112.104 186.211 112.203 186.41 112.402C186.609 112.602 186.709 112.842 186.709 113.123V120.98C186.709 121.262 186.609 121.502 186.41 121.701ZM186.621 109.906C186.375 110.129 186.059 110.24 185.672 110.24C185.297 110.24 184.986 110.129 184.74 109.906C184.494 109.672 184.371 109.379 184.371 109.027C184.371 108.664 184.494 108.371 184.74 108.148C184.986 107.914 185.297 107.797 185.672 107.797C186.059 107.797 186.375 107.914 186.621 108.148C186.879 108.371 187.008 108.664 187.008 109.027C187.008 109.379 186.879 109.672 186.621 109.906ZM192.492 122.229C191.426 122.229 190.406 121.936 189.434 121.35C189.234 121.232 189.117 121.057 189.082 120.822C189.082 120.775 189.082 120.729 189.082 120.682C189.082 120.506 189.135 120.348 189.24 120.207C189.381 120.02 189.562 119.908 189.785 119.873C189.832 119.873 189.879 119.873 189.926 119.873C190.102 119.873 190.26 119.92 190.4 120.014C191.104 120.447 191.818 120.664 192.545 120.664C193.107 120.664 193.535 120.541 193.828 120.295C194.133 120.049 194.285 119.727 194.285 119.328C194.285 119.188 194.262 119.059 194.215 118.941C194.168 118.812 194.074 118.695 193.934 118.59C193.805 118.473 193.693 118.379 193.6 118.309C193.518 118.238 193.359 118.15 193.125 118.045C192.891 117.939 192.727 117.869 192.633 117.834C192.551 117.799 192.369 117.729 192.088 117.623C191.689 117.471 191.35 117.324 191.068 117.184C190.799 117.043 190.506 116.861 190.189 116.639C189.885 116.404 189.65 116.129 189.486 115.812C189.334 115.496 189.258 115.139 189.258 114.74C189.258 113.896 189.574 113.205 190.207 112.666C190.852 112.115 191.707 111.84 192.773 111.84C193.664 111.84 194.52 112.08 195.34 112.561C195.527 112.678 195.639 112.848 195.674 113.07C195.674 113.105 195.674 113.146 195.674 113.193C195.674 113.357 195.621 113.51 195.516 113.65C195.375 113.826 195.193 113.932 194.971 113.967C194.924 113.979 194.871 113.984 194.812 113.984C194.648 113.984 194.496 113.943 194.355 113.861C193.828 113.58 193.312 113.439 192.809 113.439C192.293 113.439 191.9 113.551 191.631 113.773C191.361 113.996 191.227 114.289 191.227 114.652C191.227 114.805 191.262 114.951 191.332 115.092C191.414 115.221 191.502 115.332 191.596 115.426C191.701 115.508 191.854 115.602 192.053 115.707C192.252 115.801 192.416 115.877 192.545 115.936C192.686 115.982 192.891 116.059 193.16 116.164C193.23 116.188 193.289 116.205 193.336 116.217C193.688 116.357 193.969 116.475 194.18 116.568C194.391 116.65 194.643 116.785 194.936 116.973C195.24 117.148 195.475 117.33 195.639 117.518C195.803 117.705 195.943 117.951 196.061 118.256C196.189 118.549 196.254 118.871 196.254 119.223C196.254 120.09 195.92 120.811 195.252 121.385C194.584 121.947 193.664 122.229 192.492 122.229ZM201.773 122.229C200.707 122.229 199.939 121.93 199.471 121.332C199.002 120.723 198.768 119.867 198.768 118.766V113.896C198.768 113.803 198.721 113.756 198.627 113.756H198.1C197.877 113.756 197.689 113.68 197.537 113.527C197.396 113.375 197.326 113.193 197.326 112.982C197.326 112.76 197.396 112.572 197.537 112.42C197.689 112.256 197.877 112.168 198.1 112.156L198.715 112.104C198.809 112.104 198.855 112.057 198.855 111.963L199.014 110.24C199.037 109.994 199.137 109.789 199.312 109.625C199.5 109.449 199.717 109.361 199.963 109.361C200.197 109.361 200.396 109.449 200.561 109.625C200.736 109.789 200.824 109.994 200.824 110.24V111.963C200.824 112.057 200.871 112.104 200.965 112.104H202.582C202.805 112.104 202.998 112.186 203.162 112.35C203.326 112.502 203.408 112.695 203.408 112.93C203.408 113.152 203.326 113.346 203.162 113.51C202.998 113.674 202.805 113.756 202.582 113.756H200.965C200.871 113.756 200.824 113.803 200.824 113.896V118.783C200.824 119.381 200.936 119.832 201.158 120.137C201.393 120.43 201.762 120.576 202.266 120.576C202.359 120.576 202.465 120.57 202.582 120.559C202.629 120.547 202.676 120.541 202.723 120.541C202.887 120.541 203.039 120.582 203.18 120.664C203.355 120.758 203.467 120.904 203.514 121.104C203.537 121.174 203.549 121.244 203.549 121.314C203.549 121.455 203.514 121.59 203.443 121.719C203.326 121.918 203.162 122.041 202.951 122.088C202.529 122.182 202.137 122.229 201.773 122.229ZM207.311 121.701C207.111 121.9 206.865 122 206.572 122C206.291 122 206.051 121.9 205.852 121.701C205.652 121.502 205.553 121.262 205.553 120.98V113.123C205.553 112.842 205.652 112.602 205.852 112.402C206.051 112.203 206.291 112.104 206.572 112.104C206.865 112.104 207.111 112.203 207.311 112.402C207.51 112.602 207.609 112.842 207.609 113.123V120.98C207.609 121.262 207.51 121.502 207.311 121.701ZM207.521 109.906C207.275 110.129 206.959 110.24 206.572 110.24C206.197 110.24 205.887 110.129 205.641 109.906C205.395 109.672 205.271 109.379 205.271 109.027C205.271 108.664 205.395 108.371 205.641 108.148C205.887 107.914 206.197 107.797 206.572 107.797C206.959 107.797 207.275 107.914 207.521 108.148C207.779 108.371 207.908 108.664 207.908 109.027C207.908 109.379 207.779 109.672 207.521 109.906ZM212.461 121.701C212.262 121.9 212.016 122 211.723 122C211.441 122 211.201 121.9 211.002 121.701C210.803 121.502 210.703 121.262 210.703 120.98V112.947C210.703 112.713 210.785 112.514 210.949 112.35C211.113 112.186 211.312 112.104 211.547 112.104C211.793 112.104 212.004 112.186 212.18 112.35C212.367 112.502 212.473 112.701 212.496 112.947L212.549 113.439C212.561 113.463 212.572 113.475 212.584 113.475C212.607 113.475 212.625 113.469 212.637 113.457C213.164 112.941 213.68 112.543 214.184 112.262C214.699 111.98 215.268 111.84 215.889 111.84C217.916 111.84 218.93 113.152 218.93 115.777V120.963C218.93 121.256 218.83 121.502 218.631 121.701C218.432 121.9 218.186 122 217.893 122C217.611 122 217.365 121.9 217.154 121.701C216.955 121.502 216.855 121.256 216.855 120.963V116.023C216.855 115.168 216.721 114.559 216.451 114.195C216.193 113.82 215.771 113.633 215.186 113.633C214.764 113.633 214.383 113.732 214.043 113.932C213.703 114.119 213.305 114.436 212.848 114.881C212.789 114.951 212.76 115.027 212.76 115.109V120.98C212.76 121.262 212.66 121.502 212.461 121.701ZM225.311 126.5C224.08 126.5 223.084 126.271 222.322 125.814C221.572 125.369 221.197 124.725 221.197 123.881C221.197 123.482 221.32 123.096 221.566 122.721C221.812 122.357 222.158 122.035 222.604 121.754C222.627 121.742 222.639 121.725 222.639 121.701C222.639 121.666 222.627 121.637 222.604 121.613C222.029 121.25 221.742 120.711 221.742 119.996C221.742 119.328 222.1 118.725 222.814 118.186C222.826 118.174 222.832 118.156 222.832 118.133C222.832 118.109 222.826 118.092 222.814 118.08C222.451 117.787 222.146 117.412 221.9 116.955C221.666 116.498 221.549 116 221.549 115.461C221.549 114.383 221.918 113.521 222.656 112.877C223.395 112.232 224.303 111.91 225.381 111.91C225.838 111.91 226.277 111.975 226.699 112.104C226.781 112.139 226.863 112.156 226.945 112.156H229.547C229.77 112.156 229.951 112.232 230.092 112.385C230.244 112.537 230.32 112.719 230.32 112.93C230.32 113.141 230.244 113.322 230.092 113.475C229.951 113.627 229.77 113.703 229.547 113.703H228.562C228.539 113.703 228.521 113.715 228.51 113.738C228.498 113.762 228.504 113.779 228.527 113.791C228.902 114.248 229.09 114.822 229.09 115.514C229.09 116.568 228.738 117.4 228.035 118.01C227.332 118.619 226.447 118.924 225.381 118.924C224.947 118.924 224.525 118.836 224.115 118.66C224.033 118.637 223.957 118.654 223.887 118.713C223.594 118.994 223.447 119.311 223.447 119.662C223.447 119.979 223.57 120.219 223.816 120.383C224.074 120.547 224.502 120.629 225.1 120.629H226.928C228.111 120.629 229.002 120.822 229.6 121.209C230.197 121.596 230.496 122.205 230.496 123.037C230.496 124.021 230.016 124.842 229.055 125.498C228.105 126.166 226.857 126.5 225.311 126.5ZM224.045 117.008C224.408 117.395 224.854 117.588 225.381 117.588C225.908 117.588 226.348 117.395 226.699 117.008C227.062 116.621 227.244 116.105 227.244 115.461C227.244 114.816 227.068 114.307 226.717 113.932C226.365 113.545 225.92 113.352 225.381 113.352C224.842 113.352 224.391 113.539 224.027 113.914C223.676 114.289 223.5 114.805 223.5 115.461C223.5 116.105 223.682 116.621 224.045 117.008ZM225.609 125.129C226.453 125.129 227.145 124.953 227.684 124.602C228.223 124.25 228.492 123.84 228.492 123.371C228.492 122.973 228.34 122.691 228.035 122.527C227.73 122.363 227.262 122.281 226.629 122.281H225.135C224.736 122.281 224.338 122.246 223.939 122.176C223.916 122.164 223.893 122.158 223.869 122.158C223.811 122.158 223.758 122.182 223.711 122.229C223.207 122.615 222.955 123.066 222.955 123.582C222.955 124.062 223.189 124.438 223.658 124.707C224.139 124.988 224.789 125.129 225.609 125.129ZM234.996 122.229C233.93 122.229 232.91 121.936 231.938 121.35C231.738 121.232 231.621 121.057 231.586 120.822C231.586 120.775 231.586 120.729 231.586 120.682C231.586 120.506 231.639 120.348 231.744 120.207C231.885 120.02 232.066 119.908 232.289 119.873C232.336 119.873 232.383 119.873 232.43 119.873C232.605 119.873 232.764 119.92 232.904 120.014C233.607 120.447 234.322 120.664 235.049 120.664C235.611 120.664 236.039 120.541 236.332 120.295C236.637 120.049 236.789 119.727 236.789 119.328C236.789 119.188 236.766 119.059 236.719 118.941C236.672 118.812 236.578 118.695 236.438 118.59C236.309 118.473 236.197 118.379 236.104 118.309C236.021 118.238 235.863 118.15 235.629 118.045C235.395 117.939 235.23 117.869 235.137 117.834C235.055 117.799 234.873 117.729 234.592 117.623C234.193 117.471 233.854 117.324 233.572 117.184C233.303 117.043 233.01 116.861 232.693 116.639C232.389 116.404 232.154 116.129 231.99 115.812C231.838 115.496 231.762 115.139 231.762 114.74C231.762 113.896 232.078 113.205 232.711 112.666C233.355 112.115 234.211 111.84 235.277 111.84C236.168 111.84 237.023 112.08 237.844 112.561C238.031 112.678 238.143 112.848 238.178 113.07C238.178 113.105 238.178 113.146 238.178 113.193C238.178 113.357 238.125 113.51 238.02 113.65C237.879 113.826 237.697 113.932 237.475 113.967C237.428 113.979 237.375 113.984 237.316 113.984C237.152 113.984 237 113.943 236.859 113.861C236.332 113.58 235.816 113.439 235.312 113.439C234.797 113.439 234.404 113.551 234.135 113.773C233.865 113.996 233.73 114.289 233.73 114.652C233.73 114.805 233.766 114.951 233.836 115.092C233.918 115.221 234.006 115.332 234.1 115.426C234.205 115.508 234.357 115.602 234.557 115.707C234.756 115.801 234.92 115.877 235.049 115.936C235.189 115.982 235.395 116.059 235.664 116.164C235.734 116.188 235.793 116.205 235.84 116.217C236.191 116.357 236.473 116.475 236.684 116.568C236.895 116.65 237.146 116.785 237.439 116.973C237.744 117.148 237.979 117.33 238.143 117.518C238.307 117.705 238.447 117.951 238.564 118.256C238.693 118.549 238.758 118.871 238.758 119.223C238.758 120.09 238.424 120.811 237.756 121.385C237.088 121.947 236.168 122.229 234.996 122.229Z" fill="#1E1E1E"/>
<path d="M0 46H374" stroke="#1E1E1E" stroke-width="2"/>
<path d="M0 92H374" stroke="#1E1E1E" stroke-width="2"/>
<path d="M118 138L118 -3.42727e-06" stroke="#1E1E1E" stroke-width="2"/>
</svg>
