<svg width="570" height="138" viewBox="0 0 570 138" fill="none" xmlns="http://www.w3.org/2000/svg">
<rect x="1" y="1" width="568" height="136" rx="3" fill="white" stroke="#1E1E1E" stroke-width="2"/>
<path opacity="0.8" d="M22.4082 30C22.1738 30 21.9688 29.918 21.793 29.7539C21.6289 29.5898 21.5469 29.3906 21.5469 29.1562C21.5469 28.9102 21.6289 28.7051 21.793 28.541C21.9688 28.377 22.1738 28.2949 22.4082 28.2949H24.3066C24.4004 28.2949 24.4473 28.248 24.4473 28.1543V19.207C24.4473 19.1133 24.4004 19.0664 24.3066 19.0664H22.7246C22.5488 19.0664 22.3965 19.0078 22.2676 18.8906C22.1387 18.7617 22.0742 18.6035 22.0742 18.416C22.0742 18.2285 22.1328 18.0645 22.25 17.9238C22.3672 17.7715 22.5195 17.6719 22.707 17.625C23.3047 17.4844 23.8203 17.3145 24.2539 17.1152C24.8047 16.8691 25.2969 16.7461 25.7305 16.7461C25.9531 16.7461 26.1406 16.8223 26.293 16.9746C26.4453 17.127 26.5215 17.3145 26.5215 17.5371V28.1543C26.5215 28.248 26.5625 28.2949 26.6445 28.2949H28.2617C28.4961 28.2949 28.6953 28.377 28.8594 28.541C29.0234 28.7051 29.1055 28.9102 29.1055 29.1562C29.1055 29.3906 29.0234 29.5898 28.8594 29.7539C28.6953 29.918 28.4961 30 28.2617 30H22.4082ZM36.2422 23.7773C35.6797 24.5156 34.9297 24.8848 33.9922 24.8848C33.0547 24.8848 32.3047 24.5156 31.7422 23.7773C31.1797 23.0273 30.8984 21.9961 30.8984 20.6836C30.8984 19.3711 31.1797 18.3457 31.7422 17.6074C32.3047 16.8691 33.0547 16.5 33.9922 16.5C34.9297 16.5 35.6797 16.8691 36.2422 17.6074C36.8164 18.3457 37.1035 19.3711 37.1035 20.6836C37.1035 21.9961 36.8164 23.0273 36.2422 23.7773ZM33.9922 23.6719C34.4844 23.6719 34.8711 23.4199 35.1523 22.916C35.4453 22.4004 35.5918 21.6562 35.5918 20.6836C35.5918 19.6875 35.4453 18.9492 35.1523 18.4688C34.8711 17.9766 34.4844 17.7305 33.9922 17.7305C33.5117 17.7305 33.125 17.9766 32.832 18.4688C32.5508 18.9492 32.4102 19.6875 32.4102 20.6836C32.4102 21.6562 32.5508 22.4004 32.832 22.916C33.125 23.4199 33.5117 23.6719 33.9922 23.6719ZM35.0469 30.2285C34.9062 30.2285 34.7949 30.1699 34.7129 30.0527C34.6777 29.9824 34.6602 29.9121 34.6602 29.8418C34.6602 29.7832 34.6777 29.7246 34.7129 29.666L41.3574 17.0801C41.5566 16.6934 41.8789 16.5 42.3242 16.5C42.4648 16.5 42.5703 16.5645 42.6406 16.6934C42.7227 16.8223 42.7285 16.9512 42.6582 17.0801L36.0137 29.666C35.8027 30.041 35.4805 30.2285 35.0469 30.2285ZM43.4141 30.2285C42.4648 30.2285 41.7031 29.8594 41.1289 29.1211C40.5664 28.3828 40.2852 27.3574 40.2852 26.0449C40.2852 24.7324 40.5664 23.707 41.1289 22.9688C41.7031 22.2305 42.4648 21.8613 43.4141 21.8613C44.3398 21.8613 45.084 22.2305 45.6465 22.9688C46.2207 23.707 46.5078 24.7324 46.5078 26.0449C46.5078 27.3574 46.2207 28.3828 45.6465 29.1211C45.084 29.8594 44.3398 30.2285 43.4141 30.2285ZM43.4141 29.0332C43.8828 29.0332 44.2637 28.7812 44.5566 28.2773C44.8496 27.7617 44.9961 27.0176 44.9961 26.0449C44.9961 25.0605 44.8496 24.3223 44.5566 23.8301C44.2754 23.3379 43.8945 23.0918 43.4141 23.0918C42.9219 23.0918 42.5293 23.3379 42.2363 23.8301C41.9434 24.3105 41.7969 25.0488 41.7969 26.0449C41.7969 27.0293 41.9434 27.7734 42.2363 28.2773C42.5293 28.7812 42.9219 29.0332 43.4141 29.0332Z" fill="#1E1E1E"/>
<path opacity="0.8" d="M21.3887 76C21.2246 76 21.084 75.9414 20.9668 75.8242C20.8496 75.707 20.791 75.5664 20.791 75.4023C20.791 75.0039 20.9434 74.6699 21.248 74.4004C23.0996 72.7246 24.4707 71.2598 25.3613 70.0059C26.2637 68.752 26.7148 67.6094 26.7148 66.5781C26.7148 65.8398 26.5156 65.2539 26.1172 64.8203C25.7305 64.375 25.1797 64.1523 24.4648 64.1523C23.7734 64.1523 23.0938 64.4512 22.4258 65.0488C22.2617 65.2012 22.0684 65.2773 21.8457 65.2773C21.834 65.2773 21.8281 65.2773 21.8281 65.2773C21.6172 65.2773 21.4297 65.2012 21.2656 65.0488C21.1016 64.8848 21.0195 64.6914 21.0195 64.4688C21.0195 64.2461 21.1016 64.0586 21.2656 63.9062C22.2852 62.9688 23.4336 62.5 24.7109 62.5C25.9297 62.5 26.9023 62.8633 27.6289 63.5898C28.3555 64.3164 28.7188 65.2773 28.7188 66.4727C28.7188 67.668 28.3027 68.9043 27.4707 70.1816C26.6387 71.459 25.4727 72.8242 23.9727 74.2773C23.9492 74.2891 23.9434 74.3066 23.9551 74.3301C23.9668 74.3418 23.9844 74.3477 24.0078 74.3477C24.7578 74.2773 25.4316 74.2422 26.0293 74.2422H28.4551C28.7012 74.2422 28.9062 74.3301 29.0703 74.5059C29.2461 74.6699 29.334 74.875 29.334 75.1211C29.334 75.3672 29.2461 75.5781 29.0703 75.7539C28.9062 75.918 28.7012 76 28.4551 76H21.3887ZM36.2422 69.7773C35.6797 70.5156 34.9297 70.8848 33.9922 70.8848C33.0547 70.8848 32.3047 70.5156 31.7422 69.7773C31.1797 69.0273 30.8984 67.9961 30.8984 66.6836C30.8984 65.3711 31.1797 64.3457 31.7422 63.6074C32.3047 62.8691 33.0547 62.5 33.9922 62.5C34.9297 62.5 35.6797 62.8691 36.2422 63.6074C36.8164 64.3457 37.1035 65.3711 37.1035 66.6836C37.1035 67.9961 36.8164 69.0273 36.2422 69.7773ZM33.9922 69.6719C34.4844 69.6719 34.8711 69.4199 35.1523 68.916C35.4453 68.4004 35.5918 67.6562 35.5918 66.6836C35.5918 65.6875 35.4453 64.9492 35.1523 64.4688C34.8711 63.9766 34.4844 63.7305 33.9922 63.7305C33.5117 63.7305 33.125 63.9766 32.832 64.4688C32.5508 64.9492 32.4102 65.6875 32.4102 66.6836C32.4102 67.6562 32.5508 68.4004 32.832 68.916C33.125 69.4199 33.5117 69.6719 33.9922 69.6719ZM35.0469 76.2285C34.9062 76.2285 34.7949 76.1699 34.7129 76.0527C34.6777 75.9824 34.6602 75.9121 34.6602 75.8418C34.6602 75.7832 34.6777 75.7246 34.7129 75.666L41.3574 63.0801C41.5566 62.6934 41.8789 62.5 42.3242 62.5C42.4648 62.5 42.5703 62.5645 42.6406 62.6934C42.7227 62.8223 42.7285 62.9512 42.6582 63.0801L36.0137 75.666C35.8027 76.041 35.4805 76.2285 35.0469 76.2285ZM43.4141 76.2285C42.4648 76.2285 41.7031 75.8594 41.1289 75.1211C40.5664 74.3828 40.2852 73.3574 40.2852 72.0449C40.2852 70.7324 40.5664 69.707 41.1289 68.9688C41.7031 68.2305 42.4648 67.8613 43.4141 67.8613C44.3398 67.8613 45.084 68.2305 45.6465 68.9688C46.2207 69.707 46.5078 70.7324 46.5078 72.0449C46.5078 73.3574 46.2207 74.3828 45.6465 75.1211C45.084 75.8594 44.3398 76.2285 43.4141 76.2285ZM43.4141 75.0332C43.8828 75.0332 44.2637 74.7812 44.5566 74.2773C44.8496 73.7617 44.9961 73.0176 44.9961 72.0449C44.9961 71.0605 44.8496 70.3223 44.5566 69.8301C44.2754 69.3379 43.8945 69.0918 43.4141 69.0918C42.9219 69.0918 42.5293 69.3379 42.2363 69.8301C41.9434 70.3105 41.7969 71.0488 41.7969 72.0449C41.7969 73.0293 41.9434 73.7734 42.2363 74.2773C42.5293 74.7812 42.9219 75.0332 43.4141 75.0332Z" fill="#1E1E1E"/>
<path opacity="0.8" d="M21.3887 122C21.2246 122 21.084 121.941 20.9668 121.824C20.8496 121.707 20.791 121.566 20.791 121.402C20.791 121.004 20.9434 120.67 21.248 120.4C23.0996 118.725 24.4707 117.26 25.3613 116.006C26.2637 114.752 26.7148 113.609 26.7148 112.578C26.7148 111.84 26.5156 111.254 26.1172 110.82C25.7305 110.375 25.1797 110.152 24.4648 110.152C23.7734 110.152 23.0938 110.451 22.4258 111.049C22.2617 111.201 22.0684 111.277 21.8457 111.277C21.834 111.277 21.8281 111.277 21.8281 111.277C21.6172 111.277 21.4297 111.201 21.2656 111.049C21.1016 110.885 21.0195 110.691 21.0195 110.469C21.0195 110.246 21.1016 110.059 21.2656 109.906C22.2852 108.969 23.4336 108.5 24.7109 108.5C25.9297 108.5 26.9023 108.863 27.6289 109.59C28.3555 110.316 28.7188 111.277 28.7188 112.473C28.7188 113.668 28.3027 114.904 27.4707 116.182C26.6387 117.459 25.4727 118.824 23.9727 120.277C23.9492 120.289 23.9434 120.307 23.9551 120.33C23.9668 120.342 23.9844 120.348 24.0078 120.348C24.7578 120.277 25.4316 120.242 26.0293 120.242H28.4551C28.7012 120.242 28.9062 120.33 29.0703 120.506C29.2461 120.67 29.334 120.875 29.334 121.121C29.334 121.367 29.2461 121.578 29.0703 121.754C28.9062 121.918 28.7012 122 28.4551 122H21.3887ZM36.2422 115.777C35.6797 116.516 34.9297 116.885 33.9922 116.885C33.0547 116.885 32.3047 116.516 31.7422 115.777C31.1797 115.027 30.8984 113.996 30.8984 112.684C30.8984 111.371 31.1797 110.346 31.7422 109.607C32.3047 108.869 33.0547 108.5 33.9922 108.5C34.9297 108.5 35.6797 108.869 36.2422 109.607C36.8164 110.346 37.1035 111.371 37.1035 112.684C37.1035 113.996 36.8164 115.027 36.2422 115.777ZM33.9922 115.672C34.4844 115.672 34.8711 115.42 35.1523 114.916C35.4453 114.4 35.5918 113.656 35.5918 112.684C35.5918 111.688 35.4453 110.949 35.1523 110.469C34.8711 109.977 34.4844 109.73 33.9922 109.73C33.5117 109.73 33.125 109.977 32.832 110.469C32.5508 110.949 32.4102 111.688 32.4102 112.684C32.4102 113.656 32.5508 114.4 32.832 114.916C33.125 115.42 33.5117 115.672 33.9922 115.672ZM35.0469 122.229C34.9062 122.229 34.7949 122.17 34.7129 122.053C34.6777 121.982 34.6602 121.912 34.6602 121.842C34.6602 121.783 34.6777 121.725 34.7129 121.666L41.3574 109.08C41.5566 108.693 41.8789 108.5 42.3242 108.5C42.4648 108.5 42.5703 108.564 42.6406 108.693C42.7227 108.822 42.7285 108.951 42.6582 109.08L36.0137 121.666C35.8027 122.041 35.4805 122.229 35.0469 122.229ZM43.4141 122.229C42.4648 122.229 41.7031 121.859 41.1289 121.121C40.5664 120.383 40.2852 119.357 40.2852 118.045C40.2852 116.732 40.5664 115.707 41.1289 114.969C41.7031 114.23 42.4648 113.861 43.4141 113.861C44.3398 113.861 45.084 114.23 45.6465 114.969C46.2207 115.707 46.5078 116.732 46.5078 118.045C46.5078 119.357 46.2207 120.383 45.6465 121.121C45.084 121.859 44.3398 122.229 43.4141 122.229ZM43.4141 121.033C43.8828 121.033 44.2637 120.781 44.5566 120.277C44.8496 119.762 44.9961 119.018 44.9961 118.045C44.9961 117.061 44.8496 116.322 44.5566 115.83C44.2754 115.338 43.8945 115.092 43.4141 115.092C42.9219 115.092 42.5293 115.338 42.2363 115.83C41.9434 116.311 41.7969 117.049 41.7969 118.045C41.7969 119.029 41.9434 119.773 42.2363 120.277C42.5293 120.781 42.9219 121.033 43.4141 121.033Z" fill="#1E1E1E"/>
<path opacity="0.8" d="M140.777 30C140.496 30 140.25 29.9004 140.039 29.7012C139.84 29.4902 139.74 29.2441 139.74 28.9629V17.7832C139.74 17.502 139.84 17.2617 140.039 17.0625C140.25 16.8516 140.496 16.7461 140.777 16.7461H143.854C145.307 16.7461 146.449 17.0098 147.281 17.5371C148.113 18.0527 148.529 18.8789 148.529 20.0156C148.529 20.6484 148.359 21.2344 148.02 21.7734C147.691 22.3008 147.246 22.6641 146.684 22.8633C146.66 22.875 146.648 22.8984 146.648 22.9336C146.648 22.957 146.66 22.9688 146.684 22.9688C147.469 23.1445 148.09 23.502 148.547 24.041C149.016 24.5684 149.25 25.2598 149.25 26.1152C149.25 27.3809 148.787 28.3477 147.861 29.0156C146.936 29.6719 145.705 30 144.17 30H140.777ZM141.832 22.1426C141.832 22.2363 141.879 22.2832 141.973 22.2832H143.607C145.518 22.2832 146.473 21.6152 146.473 20.2793C146.473 19.5996 146.244 19.1133 145.787 18.8203C145.33 18.5156 144.627 18.3633 143.678 18.3633H141.973C141.879 18.3633 141.832 18.4102 141.832 18.5039V22.1426ZM141.832 28.2246C141.832 28.3184 141.879 28.3652 141.973 28.3652H143.941C146.109 28.3652 147.193 27.5801 147.193 26.0098C147.193 24.5801 146.109 23.8652 143.941 23.8652H141.973C141.879 23.8652 141.832 23.9062 141.832 23.9883V28.2246ZM154.471 30.2285C152.455 30.2285 151.447 28.9277 151.447 26.3262V21.1406C151.447 20.8477 151.547 20.6016 151.746 20.4023C151.945 20.2031 152.186 20.1035 152.467 20.1035C152.76 20.1035 153.006 20.2031 153.205 20.4023C153.416 20.6016 153.521 20.8477 153.521 21.1406V26.0801C153.521 26.9238 153.65 27.5332 153.908 27.9082C154.166 28.2715 154.588 28.4531 155.174 28.4531C155.607 28.4531 155.994 28.3477 156.334 28.1367C156.686 27.9258 157.061 27.5742 157.459 27.082C157.518 27.0117 157.547 26.9297 157.547 26.8359V21.1406C157.547 20.8477 157.646 20.6016 157.846 20.4023C158.057 20.2031 158.303 20.1035 158.584 20.1035C158.865 20.1035 159.105 20.2031 159.305 20.4023C159.516 20.6016 159.621 20.8477 159.621 21.1406V29.1562C159.621 29.3906 159.539 29.5898 159.375 29.7539C159.211 29.918 159.012 30 158.777 30C158.531 30 158.32 29.9238 158.145 29.7715C157.969 29.6074 157.863 29.4023 157.828 29.1562L157.775 28.541C157.764 28.5176 157.746 28.5059 157.723 28.5059C157.711 28.5059 157.699 28.5117 157.688 28.5234C157.207 29.0859 156.709 29.5137 156.193 29.8066C155.689 30.0879 155.115 30.2285 154.471 30.2285ZM164.473 29.7012C164.273 29.9004 164.027 30 163.734 30C163.453 30 163.213 29.9004 163.014 29.7012C162.814 29.502 162.715 29.2617 162.715 28.9805V20.9473C162.715 20.7129 162.797 20.5137 162.961 20.3496C163.125 20.1855 163.324 20.1035 163.559 20.1035C163.805 20.1035 164.016 20.1855 164.191 20.3496C164.367 20.502 164.467 20.7012 164.49 20.9473L164.561 21.8613C164.572 21.873 164.584 21.8789 164.596 21.8789C164.619 21.8789 164.631 21.873 164.631 21.8613C164.982 21.2285 165.404 20.7363 165.896 20.3848C166.389 20.0215 166.898 19.8398 167.426 19.8398C167.508 19.8398 167.584 19.8457 167.654 19.8574C167.912 19.8691 168.111 19.9863 168.252 20.209C168.346 20.373 168.393 20.5488 168.393 20.7363C168.393 20.8066 168.381 20.8828 168.357 20.9648C168.311 21.1992 168.182 21.3809 167.971 21.5098C167.771 21.6387 167.549 21.7031 167.303 21.7031C167.291 21.7031 167.279 21.7031 167.268 21.7031C167.244 21.7031 167.215 21.7031 167.18 21.7031C166.746 21.7031 166.318 21.8672 165.896 22.1953C165.475 22.5117 165.117 23.0156 164.824 23.707C164.789 23.7891 164.771 23.8711 164.771 23.9531V28.9805C164.771 29.2617 164.672 29.502 164.473 29.7012ZM171.82 29.7012C171.621 29.9004 171.375 30 171.082 30C170.801 30 170.561 29.9004 170.361 29.7012C170.162 29.502 170.062 29.2617 170.062 28.9805V20.9473C170.062 20.7129 170.145 20.5137 170.309 20.3496C170.473 20.1855 170.672 20.1035 170.906 20.1035C171.152 20.1035 171.363 20.1855 171.539 20.3496C171.727 20.502 171.832 20.7012 171.855 20.9473L171.908 21.4395C171.92 21.4629 171.932 21.4746 171.943 21.4746C171.967 21.4746 171.984 21.4688 171.996 21.457C172.523 20.9414 173.039 20.543 173.543 20.2617C174.059 19.9805 174.627 19.8398 175.248 19.8398C177.275 19.8398 178.289 21.1523 178.289 23.7773V28.9629C178.289 29.2559 178.189 29.502 177.99 29.7012C177.791 29.9004 177.545 30 177.252 30C176.971 30 176.725 29.9004 176.514 29.7012C176.314 29.502 176.215 29.2559 176.215 28.9629V24.0234C176.215 23.168 176.08 22.5586 175.811 22.1953C175.553 21.8203 175.131 21.6328 174.545 21.6328C174.123 21.6328 173.742 21.7324 173.402 21.9316C173.062 22.1191 172.664 22.4355 172.207 22.8809C172.148 22.9512 172.119 23.0273 172.119 23.1094V28.9805C172.119 29.2617 172.02 29.502 171.82 29.7012Z" fill="#1E1E1E"/>
<path opacity="0.8" d="M140.777 76C140.496 76 140.25 75.9004 140.039 75.7012C139.84 75.4902 139.74 75.2441 139.74 74.9629V63.7832C139.74 63.502 139.84 63.2617 140.039 63.0625C140.25 62.8516 140.496 62.7461 140.777 62.7461H143.186C145.236 62.7461 146.812 63.3086 147.914 64.4336C149.016 65.5469 149.566 67.1758 149.566 69.3203C149.566 71.4648 149.016 73.1172 147.914 74.2773C146.824 75.4258 145.283 76 143.291 76H140.777ZM141.832 74.1543C141.832 74.248 141.879 74.2949 141.973 74.2949H143.045C144.475 74.2949 145.559 73.8789 146.297 73.0469C147.047 72.2031 147.422 70.9609 147.422 69.3203C147.422 66.0742 145.963 64.4512 143.045 64.4512H141.973C141.879 64.4512 141.832 64.4922 141.832 64.5742V74.1543ZM156.264 76.2285C154.869 76.2285 153.715 75.7656 152.801 74.8398C151.887 73.9141 151.43 72.6543 151.43 71.0605C151.43 70.2871 151.553 69.5664 151.799 68.8984C152.057 68.2305 152.396 67.6797 152.818 67.2461C153.24 66.8008 153.721 66.4551 154.26 66.209C154.799 65.9629 155.361 65.8398 155.947 65.8398C157.236 65.8398 158.232 66.2676 158.936 67.123C159.639 67.9668 159.99 69.1094 159.99 70.5508C159.99 70.5508 159.99 70.5566 159.99 70.5684C159.979 70.8496 159.861 71.0898 159.639 71.2891C159.416 71.4883 159.152 71.5879 158.848 71.5879H153.592C153.51 71.5879 153.475 71.6348 153.486 71.7285C153.58 72.6309 153.896 73.3398 154.436 73.8555C154.986 74.3594 155.684 74.6113 156.527 74.6113C157.113 74.6113 157.682 74.4883 158.232 74.2422C158.35 74.1836 158.467 74.1543 158.584 74.1543C158.654 74.1543 158.725 74.166 158.795 74.1895C158.994 74.248 159.146 74.3652 159.252 74.541C159.311 74.6582 159.34 74.7812 159.34 74.9102C159.34 74.9805 159.334 75.0508 159.322 75.1211C159.264 75.3203 159.141 75.4668 158.953 75.5605C158.098 76.0059 157.201 76.2285 156.264 76.2285ZM153.469 70.0586C153.469 70.1289 153.504 70.1641 153.574 70.1641H158.074C158.156 70.1641 158.197 70.123 158.197 70.041C158.174 69.2207 157.975 68.5879 157.6 68.1426C157.225 67.6973 156.686 67.4746 155.982 67.4746C155.361 67.4746 154.816 67.6973 154.348 68.1426C153.762 68.7168 153.469 69.3555 153.469 70.0586ZM165.51 76C165.205 76 164.924 75.9121 164.666 75.7363C164.408 75.5488 164.227 75.3086 164.121 75.0156L161.309 67.0703C161.273 66.9883 161.256 66.9062 161.256 66.8242C161.256 66.6836 161.303 66.543 161.396 66.4023C161.549 66.2031 161.748 66.1035 161.994 66.1035H162.047C162.352 66.1035 162.627 66.1973 162.873 66.3848C163.131 66.5605 163.307 66.7949 163.4 67.0879L164.771 71.4297C164.889 71.8281 165.176 72.8008 165.633 74.3477C165.645 74.3711 165.662 74.3828 165.686 74.3828C165.709 74.3828 165.721 74.3711 165.721 74.3477C166.178 72.8008 166.465 71.8281 166.582 71.4297L167.971 67.0527C168.053 66.7715 168.217 66.543 168.463 66.3672C168.709 66.1914 168.979 66.1035 169.271 66.1035C169.518 66.1035 169.717 66.2031 169.869 66.4023C169.963 66.5312 170.01 66.666 170.01 66.8066C170.01 66.8887 169.992 66.9707 169.957 67.0527L167.197 75.0156C167.104 75.3086 166.928 75.5488 166.67 75.7363C166.424 75.9121 166.143 76 165.826 76H165.51ZM176.127 76.2285C174.732 76.2285 173.578 75.7656 172.664 74.8398C171.75 73.9141 171.293 72.6543 171.293 71.0605C171.293 70.2871 171.416 69.5664 171.662 68.8984C171.92 68.2305 172.26 67.6797 172.682 67.2461C173.104 66.8008 173.584 66.4551 174.123 66.209C174.662 65.9629 175.225 65.8398 175.811 65.8398C177.1 65.8398 178.096 66.2676 178.799 67.123C179.502 67.9668 179.854 69.1094 179.854 70.5508C179.854 70.5508 179.854 70.5566 179.854 70.5684C179.842 70.8496 179.725 71.0898 179.502 71.2891C179.279 71.4883 179.016 71.5879 178.711 71.5879H173.455C173.373 71.5879 173.338 71.6348 173.35 71.7285C173.443 72.6309 173.76 73.3398 174.299 73.8555C174.85 74.3594 175.547 74.6113 176.391 74.6113C176.977 74.6113 177.545 74.4883 178.096 74.2422C178.213 74.1836 178.33 74.1543 178.447 74.1543C178.518 74.1543 178.588 74.166 178.658 74.1895C178.857 74.248 179.01 74.3652 179.115 74.541C179.174 74.6582 179.203 74.7812 179.203 74.9102C179.203 74.9805 179.197 75.0508 179.186 75.1211C179.127 75.3203 179.004 75.4668 178.816 75.5605C177.961 76.0059 177.064 76.2285 176.127 76.2285ZM173.332 70.0586C173.332 70.1289 173.367 70.1641 173.438 70.1641H177.938C178.02 70.1641 178.061 70.123 178.061 70.041C178.037 69.2207 177.838 68.5879 177.463 68.1426C177.088 67.6973 176.549 67.4746 175.846 67.4746C175.225 67.4746 174.68 67.6973 174.211 68.1426C173.625 68.7168 173.332 69.3555 173.332 70.0586ZM184.213 76.2285C183.486 76.2285 182.959 76.0117 182.631 75.5781C182.314 75.1445 182.156 74.5117 182.156 73.6797V62.6758C182.156 62.3945 182.256 62.1543 182.455 61.9551C182.654 61.7559 182.895 61.6562 183.176 61.6562C183.469 61.6562 183.715 61.7559 183.914 61.9551C184.113 62.1543 184.213 62.3945 184.213 62.6758V73.7852C184.213 74.1367 184.307 74.3711 184.494 74.4883C184.518 74.5 184.57 74.5293 184.652 74.5762C184.734 74.623 184.793 74.6582 184.828 74.6816C184.863 74.7051 184.91 74.7402 184.969 74.7871C185.027 74.8223 185.068 74.8633 185.092 74.9102C185.127 74.957 185.145 75.0098 185.145 75.0684L185.197 75.2969C185.197 75.3438 185.197 75.3965 185.197 75.4551C185.197 75.6191 185.15 75.7715 185.057 75.9121C184.939 76.0996 184.77 76.2051 184.547 76.2285C184.441 76.2285 184.33 76.2285 184.213 76.2285ZM193.23 75.877C192.68 76.1113 192.094 76.2285 191.473 76.2285C190.863 76.2285 190.277 76.1113 189.715 75.877C189.152 75.6426 188.654 75.3145 188.221 74.8926C187.799 74.459 187.459 73.9141 187.201 73.2578C186.943 72.5898 186.814 71.8574 186.814 71.0605C186.814 70.2637 186.943 69.5312 187.201 68.8633C187.459 68.1953 187.799 67.6445 188.221 67.2109C188.654 66.7773 189.152 66.4434 189.715 66.209C190.277 65.9629 190.863 65.8398 191.473 65.8398C192.094 65.8398 192.68 65.9629 193.23 66.209C193.793 66.4434 194.291 66.7773 194.725 67.2109C195.158 67.6445 195.504 68.1953 195.762 68.8633C196.02 69.5312 196.148 70.2637 196.148 71.0605C196.148 71.8574 196.02 72.5898 195.762 73.2578C195.504 73.9141 195.158 74.459 194.725 74.8926C194.291 75.3145 193.793 75.6426 193.23 75.877ZM191.473 74.541C192.258 74.541 192.879 74.2246 193.336 73.5918C193.793 72.959 194.021 72.1152 194.021 71.0605C194.021 70.0059 193.793 69.1621 193.336 68.5293C192.879 67.8848 192.258 67.5625 191.473 67.5625C190.711 67.5625 190.102 67.8848 189.645 68.5293C189.188 69.1621 188.959 70.0059 188.959 71.0605C188.959 72.1152 189.188 72.959 189.645 73.5918C190.102 74.2246 190.711 74.541 191.473 74.541ZM200.314 79.7617C200.115 79.9609 199.869 80.0605 199.576 80.0605C199.295 80.0605 199.055 79.9609 198.855 79.7617C198.656 79.5625 198.557 79.3164 198.557 79.0234V66.9824C198.557 66.748 198.639 66.5488 198.803 66.3848C198.967 66.2207 199.166 66.1387 199.4 66.1387C199.646 66.1387 199.857 66.2207 200.033 66.3848C200.221 66.5371 200.332 66.7363 200.367 66.9824L200.402 67.1934C200.414 67.2168 200.426 67.2285 200.438 67.2285C200.461 67.2285 200.479 67.2227 200.49 67.2109C201.545 66.332 202.553 65.8926 203.514 65.8926C204.756 65.8926 205.717 66.3496 206.396 67.2637C207.088 68.166 207.434 69.3906 207.434 70.9375C207.434 71.7578 207.316 72.5137 207.082 73.2051C206.848 73.8848 206.531 74.4473 206.133 74.8926C205.734 75.3262 205.277 75.666 204.762 75.9121C204.258 76.1582 203.725 76.2812 203.162 76.2812C202.33 76.2812 201.498 75.9355 200.666 75.2441C200.643 75.2324 200.619 75.2324 200.596 75.2441C200.572 75.2559 200.561 75.2734 200.561 75.2969L200.613 76.8613V79.0234C200.613 79.3164 200.514 79.5625 200.314 79.7617ZM202.775 74.5762C203.514 74.5762 204.117 74.2598 204.586 73.627C205.055 72.9824 205.289 72.0977 205.289 70.9727C205.289 68.7344 204.516 67.6152 202.969 67.6152C202.266 67.6152 201.51 67.9902 200.701 68.7402C200.643 68.7988 200.613 68.8691 200.613 68.9512V73.5391C200.613 73.6211 200.643 73.6914 200.701 73.75C201.381 74.3008 202.072 74.5762 202.775 74.5762ZM211.652 75.7012C211.453 75.9004 211.207 76 210.914 76C210.633 76 210.393 75.9004 210.193 75.7012C209.994 75.502 209.895 75.2617 209.895 74.9805V66.9473C209.895 66.7129 209.977 66.5137 210.141 66.3496C210.305 66.1855 210.504 66.1035 210.738 66.1035C210.984 66.1035 211.195 66.1855 211.371 66.3496C211.559 66.502 211.664 66.7012 211.688 66.9473L211.74 67.457C211.752 67.4805 211.764 67.4922 211.775 67.4922C211.799 67.4922 211.816 67.4863 211.828 67.4746C212.848 66.3848 213.861 65.8398 214.869 65.8398C216.182 65.8398 217.078 66.4082 217.559 67.5449C217.582 67.627 217.629 67.6328 217.699 67.5625C218.215 67.0117 218.725 66.5898 219.229 66.2969C219.732 65.9922 220.266 65.8398 220.828 65.8398C222.855 65.8398 223.869 67.1523 223.869 69.7773V74.9629C223.869 75.2559 223.764 75.502 223.553 75.7012C223.354 75.9004 223.107 76 222.814 76C222.533 76 222.293 75.9004 222.094 75.7012C221.895 75.502 221.795 75.2559 221.795 74.9629V70.0234C221.795 69.1797 221.66 68.5703 221.391 68.1953C221.121 67.8203 220.705 67.6328 220.143 67.6328C219.498 67.6328 218.783 68.0488 217.998 68.8809C217.939 68.9512 217.91 69.0273 217.91 69.1094V74.9629C217.91 75.2559 217.805 75.502 217.594 75.7012C217.395 75.9004 217.148 76 216.855 76C216.574 76 216.334 75.9004 216.135 75.7012C215.936 75.502 215.836 75.2559 215.836 74.9629V70.0234C215.836 69.1797 215.701 68.5703 215.432 68.1953C215.174 67.8203 214.758 67.6328 214.184 67.6328C213.539 67.6328 212.824 68.0488 212.039 68.8809C211.98 68.9512 211.951 69.0273 211.951 69.1094V74.9805C211.951 75.2617 211.852 75.502 211.652 75.7012ZM230.971 76.2285C229.576 76.2285 228.422 75.7656 227.508 74.8398C226.594 73.9141 226.137 72.6543 226.137 71.0605C226.137 70.2871 226.26 69.5664 226.506 68.8984C226.764 68.2305 227.104 67.6797 227.525 67.2461C227.947 66.8008 228.428 66.4551 228.967 66.209C229.506 65.9629 230.068 65.8398 230.654 65.8398C231.943 65.8398 232.939 66.2676 233.643 67.123C234.346 67.9668 234.697 69.1094 234.697 70.5508C234.697 70.5508 234.697 70.5566 234.697 70.5684C234.686 70.8496 234.568 71.0898 234.346 71.2891C234.123 71.4883 233.859 71.5879 233.555 71.5879H228.299C228.217 71.5879 228.182 71.6348 228.193 71.7285C228.287 72.6309 228.604 73.3398 229.143 73.8555C229.693 74.3594 230.391 74.6113 231.234 74.6113C231.82 74.6113 232.389 74.4883 232.939 74.2422C233.057 74.1836 233.174 74.1543 233.291 74.1543C233.361 74.1543 233.432 74.166 233.502 74.1895C233.701 74.248 233.854 74.3652 233.959 74.541C234.018 74.6582 234.047 74.7812 234.047 74.9102C234.047 74.9805 234.041 75.0508 234.029 75.1211C233.971 75.3203 233.848 75.4668 233.66 75.5605C232.805 76.0059 231.908 76.2285 230.971 76.2285ZM228.176 70.0586C228.176 70.1289 228.211 70.1641 228.281 70.1641H232.781C232.863 70.1641 232.904 70.123 232.904 70.041C232.881 69.2207 232.682 68.5879 232.307 68.1426C231.932 67.6973 231.393 67.4746 230.689 67.4746C230.068 67.4746 229.523 67.6973 229.055 68.1426C228.469 68.7168 228.176 69.3555 228.176 70.0586ZM238.758 75.7012C238.559 75.9004 238.312 76 238.02 76C237.738 76 237.498 75.9004 237.299 75.7012C237.1 75.502 237 75.2617 237 74.9805V66.9473C237 66.7129 237.082 66.5137 237.246 66.3496C237.41 66.1855 237.609 66.1035 237.844 66.1035C238.09 66.1035 238.301 66.1855 238.477 66.3496C238.664 66.502 238.77 66.7012 238.793 66.9473L238.846 67.4395C238.857 67.4629 238.869 67.4746 238.881 67.4746C238.904 67.4746 238.922 67.4688 238.934 67.457C239.461 66.9414 239.977 66.543 240.48 66.2617C240.996 65.9805 241.564 65.8398 242.186 65.8398C244.213 65.8398 245.227 67.1523 245.227 69.7773V74.9629C245.227 75.2559 245.127 75.502 244.928 75.7012C244.729 75.9004 244.482 76 244.189 76C243.908 76 243.662 75.9004 243.451 75.7012C243.252 75.502 243.152 75.2559 243.152 74.9629V70.0234C243.152 69.168 243.018 68.5586 242.748 68.1953C242.49 67.8203 242.068 67.6328 241.482 67.6328C241.061 67.6328 240.68 67.7324 240.34 67.9316C240 68.1191 239.602 68.4355 239.145 68.8809C239.086 68.9512 239.057 69.0273 239.057 69.1094V74.9805C239.057 75.2617 238.957 75.502 238.758 75.7012ZM251.555 76.2285C250.488 76.2285 249.721 75.9297 249.252 75.332C248.783 74.7227 248.549 73.8672 248.549 72.7656V67.8965C248.549 67.8027 248.502 67.7559 248.408 67.7559H247.881C247.658 67.7559 247.471 67.6797 247.318 67.5273C247.178 67.375 247.107 67.1934 247.107 66.9824C247.107 66.7598 247.178 66.5723 247.318 66.4199C247.471 66.2559 247.658 66.168 247.881 66.1562L248.496 66.1035C248.59 66.1035 248.637 66.0566 248.637 65.9629L248.795 64.2402C248.818 63.9941 248.918 63.7891 249.094 63.625C249.281 63.4492 249.498 63.3613 249.744 63.3613C249.979 63.3613 250.178 63.4492 250.342 63.625C250.518 63.7891 250.605 63.9941 250.605 64.2402V65.9629C250.605 66.0566 250.652 66.1035 250.746 66.1035H252.363C252.586 66.1035 252.779 66.1855 252.943 66.3496C253.107 66.502 253.189 66.6953 253.189 66.9297C253.189 67.1523 253.107 67.3457 252.943 67.5098C252.779 67.6738 252.586 67.7559 252.363 67.7559H250.746C250.652 67.7559 250.605 67.8027 250.605 67.8965V72.7832C250.605 73.3809 250.717 73.832 250.939 74.1367C251.174 74.4297 251.543 74.5762 252.047 74.5762C252.141 74.5762 252.246 74.5703 252.363 74.5586C252.41 74.5469 252.457 74.541 252.504 74.541C252.668 74.541 252.82 74.582 252.961 74.6641C253.137 74.7578 253.248 74.9043 253.295 75.1035C253.318 75.1738 253.33 75.2441 253.33 75.3145C253.33 75.4551 253.295 75.5898 253.225 75.7188C253.107 75.918 252.943 76.041 252.732 76.0879C252.311 76.1816 251.918 76.2285 251.555 76.2285Z" fill="#1E1E1E"/>
<path opacity="0.8" d="M140.777 122C140.496 122 140.25 121.9 140.039 121.701C139.84 121.49 139.74 121.244 139.74 120.963V109.783C139.74 109.502 139.84 109.262 140.039 109.062C140.25 108.852 140.496 108.746 140.777 108.746H146.719C146.965 108.746 147.17 108.834 147.334 109.01C147.51 109.174 147.598 109.379 147.598 109.625C147.598 109.871 147.51 110.082 147.334 110.258C147.17 110.422 146.965 110.504 146.719 110.504H141.973C141.879 110.504 141.832 110.545 141.832 110.627V114.424C141.832 114.506 141.879 114.547 141.973 114.547H145.857C146.104 114.547 146.309 114.635 146.473 114.811C146.648 114.975 146.736 115.18 146.736 115.426C146.736 115.66 146.648 115.865 146.473 116.041C146.309 116.205 146.104 116.287 145.857 116.287H141.973C141.879 116.287 141.832 116.334 141.832 116.428V120.963C141.832 121.244 141.732 121.49 141.533 121.701C141.334 121.9 141.088 122 140.795 122H140.777ZM151.799 122.229C151.072 122.229 150.545 122.012 150.217 121.578C149.9 121.145 149.742 120.512 149.742 119.68V108.676C149.742 108.395 149.842 108.154 150.041 107.955C150.24 107.756 150.48 107.656 150.762 107.656C151.055 107.656 151.301 107.756 151.5 107.955C151.699 108.154 151.799 108.395 151.799 108.676V119.785C151.799 120.137 151.893 120.371 152.08 120.488C152.104 120.5 152.156 120.529 152.238 120.576C152.32 120.623 152.379 120.658 152.414 120.682C152.449 120.705 152.496 120.74 152.555 120.787C152.613 120.822 152.654 120.863 152.678 120.91C152.713 120.957 152.73 121.01 152.73 121.068L152.783 121.297C152.783 121.344 152.783 121.396 152.783 121.455C152.783 121.619 152.736 121.771 152.643 121.912C152.525 122.1 152.355 122.205 152.133 122.229C152.027 122.229 151.916 122.229 151.799 122.229ZM159.234 122.229C157.84 122.229 156.686 121.766 155.771 120.84C154.857 119.914 154.4 118.654 154.4 117.061C154.4 116.287 154.523 115.566 154.77 114.898C155.027 114.23 155.367 113.68 155.789 113.246C156.211 112.801 156.691 112.455 157.23 112.209C157.77 111.963 158.332 111.84 158.918 111.84C160.207 111.84 161.203 112.268 161.906 113.123C162.609 113.967 162.961 115.109 162.961 116.551C162.961 116.551 162.961 116.557 162.961 116.568C162.949 116.85 162.832 117.09 162.609 117.289C162.387 117.488 162.123 117.588 161.818 117.588H156.562C156.48 117.588 156.445 117.635 156.457 117.729C156.551 118.631 156.867 119.34 157.406 119.855C157.957 120.359 158.654 120.611 159.498 120.611C160.084 120.611 160.652 120.488 161.203 120.242C161.32 120.184 161.438 120.154 161.555 120.154C161.625 120.154 161.695 120.166 161.766 120.189C161.965 120.248 162.117 120.365 162.223 120.541C162.281 120.658 162.311 120.781 162.311 120.91C162.311 120.98 162.305 121.051 162.293 121.121C162.234 121.32 162.111 121.467 161.924 121.561C161.068 122.006 160.172 122.229 159.234 122.229ZM156.439 116.059C156.439 116.129 156.475 116.164 156.545 116.164H161.045C161.127 116.164 161.168 116.123 161.168 116.041C161.145 115.221 160.945 114.588 160.57 114.143C160.195 113.697 159.656 113.475 158.953 113.475C158.332 113.475 157.787 113.697 157.318 114.143C156.732 114.717 156.439 115.355 156.439 116.059ZM164.789 122C164.566 122 164.402 121.9 164.297 121.701C164.238 121.607 164.209 121.514 164.209 121.42C164.209 121.314 164.238 121.215 164.297 121.121L166.898 116.938C166.945 116.867 166.945 116.797 166.898 116.727L164.543 112.982C164.484 112.877 164.455 112.777 164.455 112.684C164.455 112.59 164.479 112.496 164.525 112.402C164.631 112.203 164.801 112.104 165.035 112.104H165.193C165.51 112.104 165.809 112.186 166.09 112.35C166.371 112.502 166.594 112.719 166.758 113L167.408 114.09C167.607 114.453 167.912 114.998 168.322 115.725C168.334 115.748 168.352 115.76 168.375 115.76C168.41 115.76 168.428 115.748 168.428 115.725C168.51 115.561 168.598 115.391 168.691 115.215C168.785 115.027 168.885 114.828 168.99 114.617C169.107 114.395 169.195 114.219 169.254 114.09L169.816 113.018C169.957 112.736 170.162 112.514 170.432 112.35C170.713 112.186 171.012 112.104 171.328 112.104H171.416C171.639 112.104 171.809 112.203 171.926 112.402C171.984 112.496 172.014 112.59 172.014 112.684C172.014 112.789 171.984 112.889 171.926 112.982L169.553 116.955C169.506 117.025 169.506 117.102 169.553 117.184L172.102 121.121C172.172 121.227 172.207 121.332 172.207 121.438C172.207 121.52 172.178 121.607 172.119 121.701C172.014 121.9 171.85 122 171.627 122H171.451C171.135 122 170.836 121.924 170.555 121.771C170.273 121.607 170.045 121.391 169.869 121.121L169.131 119.908C168.732 119.182 168.398 118.607 168.129 118.186C168.105 118.162 168.076 118.15 168.041 118.15C168.018 118.15 168 118.162 167.988 118.186C167.719 118.678 167.42 119.252 167.092 119.908L166.441 121.086C166.289 121.367 166.072 121.59 165.791 121.754C165.51 121.918 165.211 122 164.895 122H164.789ZM176.268 121.701C176.068 121.9 175.822 122 175.529 122C175.248 122 175.008 121.9 174.809 121.701C174.609 121.502 174.51 121.262 174.51 120.98V113.123C174.51 112.842 174.609 112.602 174.809 112.402C175.008 112.203 175.248 112.104 175.529 112.104C175.822 112.104 176.068 112.203 176.268 112.402C176.467 112.602 176.566 112.842 176.566 113.123V120.98C176.566 121.262 176.467 121.502 176.268 121.701ZM176.479 109.906C176.232 110.129 175.916 110.24 175.529 110.24C175.154 110.24 174.844 110.129 174.598 109.906C174.352 109.672 174.229 109.379 174.229 109.027C174.229 108.664 174.352 108.371 174.598 108.148C174.844 107.914 175.154 107.797 175.529 107.797C175.916 107.797 176.232 107.914 176.479 108.148C176.736 108.371 176.865 108.664 176.865 109.027C176.865 109.379 176.736 109.672 176.479 109.906ZM184.266 122.229C183.328 122.229 182.426 121.818 181.559 120.998C181.547 120.986 181.529 120.98 181.506 120.98C181.494 120.98 181.482 120.986 181.471 120.998L181.436 121.209C181.389 121.432 181.271 121.619 181.084 121.771C180.908 121.924 180.703 122 180.469 122C180.246 122 180.053 121.924 179.889 121.771C179.736 121.607 179.66 121.414 179.66 121.191V108.676C179.66 108.395 179.76 108.154 179.959 107.955C180.158 107.756 180.398 107.656 180.68 107.656C180.973 107.656 181.219 107.756 181.418 107.955C181.617 108.154 181.717 108.395 181.717 108.676V111.453L181.664 113.018C181.664 113.041 181.676 113.059 181.699 113.07C181.723 113.082 181.74 113.076 181.752 113.053C182.725 112.244 183.68 111.84 184.617 111.84C185.848 111.84 186.809 112.297 187.5 113.211C188.191 114.125 188.537 115.35 188.537 116.885C188.537 118.525 188.115 119.826 187.271 120.787C186.439 121.748 185.438 122.229 184.266 122.229ZM183.879 120.523C184.617 120.523 185.221 120.207 185.689 119.574C186.158 118.941 186.393 118.057 186.393 116.92C186.393 114.693 185.619 113.58 184.072 113.58C183.346 113.58 182.59 113.949 181.805 114.688C181.746 114.746 181.717 114.822 181.717 114.916V119.486C181.717 119.58 181.752 119.656 181.822 119.715C182.467 120.254 183.152 120.523 183.879 120.523ZM193.037 122.229C192.311 122.229 191.783 122.012 191.455 121.578C191.139 121.145 190.98 120.512 190.98 119.68V108.676C190.98 108.395 191.08 108.154 191.279 107.955C191.479 107.756 191.719 107.656 192 107.656C192.293 107.656 192.539 107.756 192.738 107.955C192.938 108.154 193.037 108.395 193.037 108.676V119.785C193.037 120.137 193.131 120.371 193.318 120.488C193.342 120.5 193.395 120.529 193.477 120.576C193.559 120.623 193.617 120.658 193.652 120.682C193.688 120.705 193.734 120.74 193.793 120.787C193.852 120.822 193.893 120.863 193.916 120.91C193.951 120.957 193.969 121.01 193.969 121.068L194.021 121.297C194.021 121.344 194.021 121.396 194.021 121.455C194.021 121.619 193.975 121.771 193.881 121.912C193.764 122.1 193.594 122.205 193.371 122.229C193.266 122.229 193.154 122.229 193.037 122.229ZM200.473 122.229C199.078 122.229 197.924 121.766 197.01 120.84C196.096 119.914 195.639 118.654 195.639 117.061C195.639 116.287 195.762 115.566 196.008 114.898C196.266 114.23 196.605 113.68 197.027 113.246C197.449 112.801 197.93 112.455 198.469 112.209C199.008 111.963 199.57 111.84 200.156 111.84C201.445 111.84 202.441 112.268 203.145 113.123C203.848 113.967 204.199 115.109 204.199 116.551C204.199 116.551 204.199 116.557 204.199 116.568C204.188 116.85 204.07 117.09 203.848 117.289C203.625 117.488 203.361 117.588 203.057 117.588H197.801C197.719 117.588 197.684 117.635 197.695 117.729C197.789 118.631 198.105 119.34 198.645 119.855C199.195 120.359 199.893 120.611 200.736 120.611C201.322 120.611 201.891 120.488 202.441 120.242C202.559 120.184 202.676 120.154 202.793 120.154C202.863 120.154 202.934 120.166 203.004 120.189C203.203 120.248 203.355 120.365 203.461 120.541C203.52 120.658 203.549 120.781 203.549 120.91C203.549 120.98 203.543 121.051 203.531 121.121C203.473 121.32 203.35 121.467 203.162 121.561C202.307 122.006 201.41 122.229 200.473 122.229ZM197.678 116.059C197.678 116.129 197.713 116.164 197.783 116.164H202.283C202.365 116.164 202.406 116.123 202.406 116.041C202.383 115.221 202.184 114.588 201.809 114.143C201.434 113.697 200.895 113.475 200.191 113.475C199.57 113.475 199.025 113.697 198.557 114.143C197.971 114.717 197.678 115.355 197.678 116.059ZM211.758 122C211.477 122 211.23 121.9 211.02 121.701C210.82 121.49 210.721 121.244 210.721 120.963V109.783C210.721 109.502 210.82 109.262 211.02 109.062C211.23 108.852 211.477 108.746 211.758 108.746H217.699C217.945 108.746 218.15 108.834 218.314 109.01C218.49 109.174 218.578 109.379 218.578 109.625C218.578 109.871 218.49 110.082 218.314 110.258C218.15 110.422 217.945 110.504 217.699 110.504H212.953C212.859 110.504 212.812 110.545 212.812 110.627V114.424C212.812 114.506 212.859 114.547 212.953 114.547H216.838C217.084 114.547 217.289 114.635 217.453 114.811C217.629 114.975 217.717 115.18 217.717 115.426C217.717 115.66 217.629 115.865 217.453 116.041C217.289 116.205 217.084 116.287 216.838 116.287H212.953C212.859 116.287 212.812 116.334 212.812 116.428V120.963C212.812 121.244 212.713 121.49 212.514 121.701C212.314 121.9 212.068 122 211.775 122H211.758ZM223.307 122.229C221.291 122.229 220.283 120.928 220.283 118.326V113.141C220.283 112.848 220.383 112.602 220.582 112.402C220.781 112.203 221.021 112.104 221.303 112.104C221.596 112.104 221.842 112.203 222.041 112.402C222.252 112.602 222.357 112.848 222.357 113.141V118.08C222.357 118.924 222.486 119.533 222.744 119.908C223.002 120.271 223.424 120.453 224.01 120.453C224.443 120.453 224.83 120.348 225.17 120.137C225.521 119.926 225.896 119.574 226.295 119.082C226.354 119.012 226.383 118.93 226.383 118.836V113.141C226.383 112.848 226.482 112.602 226.682 112.402C226.893 112.203 227.139 112.104 227.42 112.104C227.701 112.104 227.941 112.203 228.141 112.402C228.352 112.602 228.457 112.848 228.457 113.141V121.156C228.457 121.391 228.375 121.59 228.211 121.754C228.047 121.918 227.848 122 227.613 122C227.367 122 227.156 121.924 226.98 121.771C226.805 121.607 226.699 121.402 226.664 121.156L226.611 120.541C226.6 120.518 226.582 120.506 226.559 120.506C226.547 120.506 226.535 120.512 226.523 120.523C226.043 121.086 225.545 121.514 225.029 121.807C224.525 122.088 223.951 122.229 223.307 122.229ZM233.309 121.701C233.109 121.9 232.863 122 232.57 122C232.289 122 232.049 121.9 231.85 121.701C231.65 121.502 231.551 121.262 231.551 120.98V112.947C231.551 112.713 231.633 112.514 231.797 112.35C231.961 112.186 232.16 112.104 232.395 112.104C232.641 112.104 232.852 112.186 233.027 112.35C233.215 112.502 233.32 112.701 233.344 112.947L233.396 113.439C233.408 113.463 233.42 113.475 233.432 113.475C233.455 113.475 233.473 113.469 233.484 113.457C234.012 112.941 234.527 112.543 235.031 112.262C235.547 111.98 236.115 111.84 236.736 111.84C238.764 111.84 239.777 113.152 239.777 115.777V120.963C239.777 121.256 239.678 121.502 239.479 121.701C239.279 121.9 239.033 122 238.74 122C238.459 122 238.213 121.9 238.002 121.701C237.803 121.502 237.703 121.256 237.703 120.963V116.023C237.703 115.168 237.568 114.559 237.299 114.195C237.041 113.82 236.619 113.633 236.033 113.633C235.611 113.633 235.23 113.732 234.891 113.932C234.551 114.119 234.152 114.436 233.695 114.881C233.637 114.951 233.607 115.027 233.607 115.109V120.98C233.607 121.262 233.508 121.502 233.309 121.701ZM246.193 122.229C244.939 122.229 243.943 121.777 243.205 120.875C242.467 119.961 242.098 118.689 242.098 117.061C242.098 115.514 242.514 114.26 243.346 113.299C244.189 112.326 245.191 111.84 246.352 111.84C246.855 111.84 247.301 111.928 247.688 112.104C248.086 112.268 248.496 112.525 248.918 112.877C248.93 112.889 248.947 112.895 248.971 112.895C248.994 112.883 249.006 112.859 249.006 112.824L248.918 111.33V108.693C248.918 108.4 249.018 108.154 249.217 107.955C249.428 107.756 249.674 107.656 249.955 107.656C250.248 107.656 250.494 107.756 250.693 107.955C250.893 108.154 250.992 108.4 250.992 108.693V121.156C250.992 121.391 250.91 121.59 250.746 121.754C250.582 121.918 250.383 122 250.148 122C249.902 122 249.686 121.924 249.498 121.771C249.311 121.607 249.199 121.402 249.164 121.156L249.129 120.91C249.129 120.898 249.117 120.893 249.094 120.893C249.07 120.893 249.053 120.898 249.041 120.91C248.174 121.789 247.225 122.229 246.193 122.229ZM246.668 120.523C247.441 120.523 248.162 120.154 248.83 119.416C248.889 119.357 248.918 119.281 248.918 119.188V114.6C248.918 114.518 248.889 114.447 248.83 114.389C248.186 113.85 247.488 113.58 246.738 113.58C246.035 113.58 245.443 113.896 244.963 114.529C244.482 115.15 244.242 115.982 244.242 117.025C244.242 118.15 244.453 119.018 244.875 119.627C245.297 120.225 245.895 120.523 246.668 120.523ZM256.793 122.229C255.727 122.229 254.707 121.936 253.734 121.35C253.535 121.232 253.418 121.057 253.383 120.822C253.383 120.775 253.383 120.729 253.383 120.682C253.383 120.506 253.436 120.348 253.541 120.207C253.682 120.02 253.863 119.908 254.086 119.873C254.133 119.873 254.18 119.873 254.227 119.873C254.402 119.873 254.561 119.92 254.701 120.014C255.404 120.447 256.119 120.664 256.846 120.664C257.408 120.664 257.836 120.541 258.129 120.295C258.434 120.049 258.586 119.727 258.586 119.328C258.586 119.188 258.562 119.059 258.516 118.941C258.469 118.812 258.375 118.695 258.234 118.59C258.105 118.473 257.994 118.379 257.9 118.309C257.818 118.238 257.66 118.15 257.426 118.045C257.191 117.939 257.027 117.869 256.934 117.834C256.852 117.799 256.67 117.729 256.389 117.623C255.99 117.471 255.65 117.324 255.369 117.184C255.1 117.043 254.807 116.861 254.49 116.639C254.186 116.404 253.951 116.129 253.787 115.812C253.635 115.496 253.559 115.139 253.559 114.74C253.559 113.896 253.875 113.205 254.508 112.666C255.152 112.115 256.008 111.84 257.074 111.84C257.965 111.84 258.82 112.08 259.641 112.561C259.828 112.678 259.939 112.848 259.975 113.07C259.975 113.105 259.975 113.146 259.975 113.193C259.975 113.357 259.922 113.51 259.816 113.65C259.676 113.826 259.494 113.932 259.271 113.967C259.225 113.979 259.172 113.984 259.113 113.984C258.949 113.984 258.797 113.943 258.656 113.861C258.129 113.58 257.613 113.439 257.109 113.439C256.594 113.439 256.201 113.551 255.932 113.773C255.662 113.996 255.527 114.289 255.527 114.652C255.527 114.805 255.562 114.951 255.633 115.092C255.715 115.221 255.803 115.332 255.896 115.426C256.002 115.508 256.154 115.602 256.354 115.707C256.553 115.801 256.717 115.877 256.846 115.936C256.986 115.982 257.191 116.059 257.461 116.164C257.531 116.188 257.59 116.205 257.637 116.217C257.988 116.357 258.27 116.475 258.48 116.568C258.691 116.65 258.943 116.785 259.236 116.973C259.541 117.148 259.775 117.33 259.939 117.518C260.104 117.705 260.244 117.951 260.361 118.256C260.49 118.549 260.555 118.871 260.555 119.223C260.555 120.09 260.221 120.811 259.553 121.385C258.885 121.947 257.965 122.229 256.793 122.229ZM270.434 124.426C270.48 124.52 270.504 124.619 270.504 124.725C270.504 124.795 270.492 124.865 270.469 124.936C270.41 125.123 270.299 125.252 270.135 125.322C270.029 125.369 269.918 125.393 269.801 125.393C269.719 125.393 269.637 125.381 269.555 125.357C269.367 125.299 269.221 125.182 269.115 125.006C267.58 122.299 266.812 119.428 266.812 116.393C266.812 113.357 267.58 110.498 269.115 107.814C269.221 107.639 269.367 107.516 269.555 107.445C269.637 107.422 269.719 107.41 269.801 107.41C269.918 107.41 270.029 107.434 270.135 107.48C270.299 107.551 270.41 107.68 270.469 107.867C270.492 107.938 270.504 108.002 270.504 108.061C270.504 108.166 270.48 108.271 270.434 108.377C269.145 110.779 268.5 113.451 268.5 116.393C268.5 119.357 269.145 122.035 270.434 124.426ZM274.371 122C274.09 122 273.844 121.9 273.633 121.701C273.434 121.49 273.334 121.244 273.334 120.963V109.783C273.334 109.502 273.434 109.262 273.633 109.062C273.844 108.852 274.09 108.746 274.371 108.746H274.389C274.682 108.746 274.928 108.852 275.127 109.062C275.326 109.262 275.426 109.502 275.426 109.783V120.102C275.426 120.195 275.473 120.242 275.566 120.242H280.137C280.383 120.242 280.594 120.33 280.77 120.506C280.945 120.67 281.033 120.875 281.033 121.121C281.033 121.367 280.945 121.578 280.77 121.754C280.594 121.918 280.383 122 280.137 122H274.371ZM284.936 121.701C284.736 121.9 284.49 122 284.197 122C283.916 122 283.676 121.9 283.477 121.701C283.277 121.502 283.178 121.262 283.178 120.98V113.123C283.178 112.842 283.277 112.602 283.477 112.402C283.676 112.203 283.916 112.104 284.197 112.104C284.49 112.104 284.736 112.203 284.936 112.402C285.135 112.602 285.234 112.842 285.234 113.123V120.98C285.234 121.262 285.135 121.502 284.936 121.701ZM285.146 109.906C284.9 110.129 284.584 110.24 284.197 110.24C283.822 110.24 283.512 110.129 283.266 109.906C283.02 109.672 282.896 109.379 282.896 109.027C282.896 108.664 283.02 108.371 283.266 108.148C283.512 107.914 283.822 107.797 284.197 107.797C284.584 107.797 284.9 107.914 285.146 108.148C285.404 108.371 285.533 108.664 285.533 109.027C285.533 109.379 285.404 109.672 285.146 109.906ZM290.086 121.701C289.887 121.9 289.641 122 289.348 122C289.066 122 288.826 121.9 288.627 121.701C288.428 121.502 288.328 121.262 288.328 120.98V112.947C288.328 112.713 288.41 112.514 288.574 112.35C288.738 112.186 288.938 112.104 289.172 112.104C289.418 112.104 289.629 112.186 289.805 112.35C289.992 112.502 290.098 112.701 290.121 112.947L290.174 113.439C290.186 113.463 290.197 113.475 290.209 113.475C290.232 113.475 290.25 113.469 290.262 113.457C290.789 112.941 291.305 112.543 291.809 112.262C292.324 111.98 292.893 111.84 293.514 111.84C295.541 111.84 296.555 113.152 296.555 115.777V120.963C296.555 121.256 296.455 121.502 296.256 121.701C296.057 121.9 295.811 122 295.518 122C295.236 122 294.99 121.9 294.779 121.701C294.58 121.502 294.48 121.256 294.48 120.963V116.023C294.48 115.168 294.346 114.559 294.076 114.195C293.818 113.82 293.396 113.633 292.811 113.633C292.389 113.633 292.008 113.732 291.668 113.932C291.328 114.119 290.93 114.436 290.473 114.881C290.414 114.951 290.385 115.027 290.385 115.109V120.98C290.385 121.262 290.285 121.502 290.086 121.701ZM303.674 122.229C302.279 122.229 301.125 121.766 300.211 120.84C299.297 119.914 298.84 118.654 298.84 117.061C298.84 116.287 298.963 115.566 299.209 114.898C299.467 114.23 299.807 113.68 300.229 113.246C300.65 112.801 301.131 112.455 301.67 112.209C302.209 111.963 302.771 111.84 303.357 111.84C304.646 111.84 305.643 112.268 306.346 113.123C307.049 113.967 307.4 115.109 307.4 116.551C307.4 116.551 307.4 116.557 307.4 116.568C307.389 116.85 307.271 117.09 307.049 117.289C306.826 117.488 306.562 117.588 306.258 117.588H301.002C300.92 117.588 300.885 117.635 300.896 117.729C300.99 118.631 301.307 119.34 301.846 119.855C302.396 120.359 303.094 120.611 303.938 120.611C304.523 120.611 305.092 120.488 305.643 120.242C305.76 120.184 305.877 120.154 305.994 120.154C306.064 120.154 306.135 120.166 306.205 120.189C306.404 120.248 306.557 120.365 306.662 120.541C306.721 120.658 306.75 120.781 306.75 120.91C306.75 120.98 306.744 121.051 306.732 121.121C306.674 121.32 306.551 121.467 306.363 121.561C305.508 122.006 304.611 122.229 303.674 122.229ZM300.879 116.059C300.879 116.129 300.914 116.164 300.984 116.164H305.484C305.566 116.164 305.607 116.123 305.607 116.041C305.584 115.221 305.385 114.588 305.01 114.143C304.635 113.697 304.096 113.475 303.393 113.475C302.771 113.475 302.227 113.697 301.758 114.143C301.172 114.717 300.879 115.355 300.879 116.059ZM310.916 122C310.635 122 310.389 121.9 310.178 121.701C309.979 121.49 309.879 121.244 309.879 120.963V109.783C309.879 109.502 309.979 109.262 310.178 109.062C310.389 108.852 310.635 108.746 310.916 108.746H316.857C317.104 108.746 317.309 108.834 317.473 109.01C317.648 109.174 317.736 109.379 317.736 109.625C317.736 109.871 317.648 110.082 317.473 110.258C317.309 110.422 317.104 110.504 316.857 110.504H312.111C312.018 110.504 311.971 110.545 311.971 110.627V114.424C311.971 114.506 312.018 114.547 312.111 114.547H315.996C316.242 114.547 316.447 114.635 316.611 114.811C316.787 114.975 316.875 115.18 316.875 115.426C316.875 115.66 316.787 115.865 316.611 116.041C316.447 116.205 316.242 116.287 315.996 116.287H312.111C312.018 116.287 311.971 116.334 311.971 116.428V120.963C311.971 121.244 311.871 121.49 311.672 121.701C311.473 121.9 311.227 122 310.934 122H310.916ZM321.639 121.701C321.439 121.9 321.193 122 320.9 122C320.619 122 320.379 121.9 320.18 121.701C319.98 121.502 319.881 121.262 319.881 120.98V113.123C319.881 112.842 319.98 112.602 320.18 112.402C320.379 112.203 320.619 112.104 320.9 112.104C321.193 112.104 321.439 112.203 321.639 112.402C321.838 112.602 321.938 112.842 321.938 113.123V120.98C321.938 121.262 321.838 121.502 321.639 121.701ZM321.85 109.906C321.604 110.129 321.287 110.24 320.9 110.24C320.525 110.24 320.215 110.129 319.969 109.906C319.723 109.672 319.6 109.379 319.6 109.027C319.6 108.664 319.723 108.371 319.969 108.148C320.215 107.914 320.525 107.797 320.9 107.797C321.287 107.797 321.604 107.914 321.85 108.148C322.107 108.371 322.236 108.664 322.236 109.027C322.236 109.379 322.107 109.672 321.85 109.906ZM327.176 123.934C327.094 123.969 327.012 123.986 326.93 123.986C326.848 123.986 326.766 123.969 326.684 123.934C326.531 123.863 326.42 123.746 326.35 123.582C326.314 123.5 326.297 123.424 326.297 123.354C326.297 123.271 326.314 123.189 326.35 123.107C326.42 122.943 326.531 122.82 326.684 122.738C327.703 122.246 328.271 121.561 328.389 120.682C328.389 120.658 328.377 120.635 328.354 120.611C328.33 120.588 328.301 120.576 328.266 120.576C328.242 120.576 328.201 120.576 328.143 120.576C327.721 120.576 327.363 120.453 327.07 120.207C326.777 119.949 326.631 119.598 326.631 119.152C326.631 118.707 326.777 118.355 327.07 118.098C327.363 117.84 327.727 117.711 328.16 117.711C328.723 117.711 329.15 117.916 329.443 118.326C329.748 118.725 329.9 119.27 329.9 119.961C329.9 120.852 329.66 121.643 329.18 122.334C328.699 123.025 328.031 123.559 327.176 123.934ZM349.676 109.906C349.863 110.059 349.957 110.258 349.957 110.504C349.957 110.715 349.881 110.902 349.729 111.066C349.588 111.23 349.4 111.318 349.166 111.33C349.154 111.33 349.137 111.33 349.113 111.33C348.914 111.33 348.732 111.266 348.568 111.137C348.053 110.762 347.467 110.574 346.811 110.574C346.236 110.574 345.779 110.732 345.439 111.049C345.111 111.354 344.947 111.775 344.947 112.314C344.947 112.631 345.023 112.918 345.176 113.176C345.34 113.422 345.551 113.633 345.809 113.809C346.066 113.973 346.359 114.148 346.688 114.336C347.027 114.512 347.373 114.682 347.725 114.846C348.076 114.998 348.416 115.191 348.744 115.426C349.072 115.648 349.365 115.895 349.623 116.164C349.893 116.422 350.104 116.756 350.256 117.166C350.42 117.576 350.502 118.027 350.502 118.52C350.502 119.469 350.238 120.266 349.711 120.91C349.184 121.543 348.445 121.953 347.496 122.141C347.414 122.152 347.373 122.205 347.373 122.299V123.494C347.373 123.693 347.303 123.863 347.162 124.004C347.021 124.145 346.852 124.215 346.652 124.215C346.453 124.215 346.283 124.145 346.143 124.004C346.002 123.863 345.932 123.693 345.932 123.494V122.352C345.932 122.258 345.891 122.211 345.809 122.211C344.859 122.082 343.963 121.742 343.119 121.191C342.92 121.062 342.797 120.875 342.75 120.629C342.75 120.57 342.75 120.518 342.75 120.471C342.75 120.283 342.803 120.113 342.908 119.961C343.025 119.773 343.201 119.662 343.436 119.627C343.482 119.615 343.535 119.609 343.594 119.609C343.758 119.609 343.91 119.656 344.051 119.75C344.848 120.277 345.639 120.541 346.424 120.541C347.104 120.541 347.619 120.383 347.971 120.066C348.322 119.738 348.498 119.275 348.498 118.678C348.498 118.279 348.393 117.928 348.182 117.623C347.982 117.307 347.719 117.043 347.391 116.832C347.074 116.609 346.717 116.398 346.318 116.199C345.92 116 345.521 115.789 345.123 115.566C344.736 115.344 344.379 115.098 344.051 114.828C343.723 114.559 343.453 114.219 343.242 113.809C343.043 113.398 342.943 112.93 342.943 112.402C342.943 111.5 343.201 110.744 343.717 110.135C344.232 109.514 344.93 109.115 345.809 108.939C345.891 108.928 345.932 108.875 345.932 108.781V107.604C345.932 107.404 346.002 107.234 346.143 107.094C346.283 106.953 346.453 106.883 346.652 106.883C346.852 106.883 347.021 106.953 347.162 107.094C347.303 107.234 347.373 107.404 347.373 107.604V108.764C347.373 108.846 347.414 108.898 347.496 108.922C348.305 109.039 349.031 109.367 349.676 109.906ZM354.492 122C354.211 122 353.965 121.9 353.754 121.701C353.555 121.49 353.455 121.244 353.455 120.963V109.783C353.455 109.502 353.555 109.262 353.754 109.062C353.965 108.852 354.211 108.746 354.492 108.746H360.434C360.68 108.746 360.885 108.834 361.049 109.01C361.225 109.174 361.312 109.379 361.312 109.625C361.312 109.871 361.225 110.082 361.049 110.258C360.885 110.422 360.68 110.504 360.434 110.504H355.688C355.594 110.504 355.547 110.545 355.547 110.627V114.424C355.547 114.506 355.594 114.547 355.688 114.547H359.572C359.818 114.547 360.023 114.635 360.188 114.811C360.363 114.975 360.451 115.18 360.451 115.426C360.451 115.66 360.363 115.865 360.188 116.041C360.023 116.205 359.818 116.287 359.572 116.287H355.688C355.594 116.287 355.547 116.334 355.547 116.428V120.963C355.547 121.244 355.447 121.49 355.248 121.701C355.049 121.9 354.803 122 354.51 122H354.492ZM372.686 120.365C371.619 121.607 370.225 122.229 368.502 122.229C366.779 122.229 365.385 121.607 364.318 120.365C363.264 119.111 362.736 117.43 362.736 115.32C362.736 113.211 363.264 111.547 364.318 110.328C365.385 109.109 366.779 108.5 368.502 108.5C370.225 108.5 371.619 109.115 372.686 110.346C373.752 111.564 374.285 113.223 374.285 115.32C374.285 117.43 373.752 119.111 372.686 120.365ZM365.865 119.047C366.521 119.961 367.4 120.418 368.502 120.418C369.604 120.418 370.482 119.961 371.139 119.047C371.807 118.121 372.141 116.879 372.141 115.32C372.141 113.773 371.807 112.555 371.139 111.664C370.482 110.762 369.604 110.311 368.502 110.311C367.4 110.311 366.521 110.762 365.865 111.664C365.209 112.555 364.881 113.773 364.881 115.32C364.881 116.879 365.209 118.121 365.865 119.047ZM378.064 122C377.783 122 377.537 121.9 377.326 121.701C377.127 121.49 377.027 121.244 377.027 120.963V109.783C377.027 109.502 377.127 109.262 377.326 109.062C377.537 108.852 377.783 108.746 378.064 108.746H384.006C384.252 108.746 384.457 108.834 384.621 109.01C384.797 109.174 384.885 109.379 384.885 109.625C384.885 109.871 384.797 110.082 384.621 110.258C384.457 110.422 384.252 110.504 384.006 110.504H379.26C379.166 110.504 379.119 110.545 379.119 110.627V114.424C379.119 114.506 379.166 114.547 379.26 114.547H383.145C383.391 114.547 383.596 114.635 383.76 114.811C383.936 114.975 384.023 115.18 384.023 115.426C384.023 115.66 383.936 115.865 383.76 116.041C383.596 116.205 383.391 116.287 383.145 116.287H379.26C379.166 116.287 379.119 116.334 379.119 116.428V120.963C379.119 121.244 379.02 121.49 378.82 121.701C378.621 121.9 378.375 122 378.082 122H378.064ZM396.258 120.365C395.191 121.607 393.797 122.229 392.074 122.229C390.352 122.229 388.957 121.607 387.891 120.365C386.836 119.111 386.309 117.43 386.309 115.32C386.309 113.211 386.836 111.547 387.891 110.328C388.957 109.109 390.352 108.5 392.074 108.5C393.797 108.5 395.191 109.115 396.258 110.346C397.324 111.564 397.857 113.223 397.857 115.32C397.857 117.43 397.324 119.111 396.258 120.365ZM389.438 119.047C390.094 119.961 390.973 120.418 392.074 120.418C393.176 120.418 394.055 119.961 394.711 119.047C395.379 118.121 395.713 116.879 395.713 115.32C395.713 113.773 395.379 112.555 394.711 111.664C394.055 110.762 393.176 110.311 392.074 110.311C390.973 110.311 390.094 110.762 389.438 111.664C388.781 112.555 388.453 113.773 388.453 115.32C388.453 116.879 388.781 118.121 389.438 119.047ZM406.33 121.719C406.143 121.906 405.908 122 405.627 122C405.357 122 405.123 121.906 404.924 121.719C404.736 121.52 404.643 121.285 404.643 121.016V109.783C404.643 109.502 404.742 109.262 404.941 109.062C405.152 108.852 405.398 108.746 405.68 108.746H405.75C406.066 108.746 406.365 108.828 406.646 108.992C406.928 109.156 407.145 109.379 407.297 109.66L411.182 116.533L412.553 119.293C412.564 119.316 412.582 119.328 412.605 119.328C412.641 119.328 412.658 119.316 412.658 119.293C412.482 117.055 412.395 115.602 412.395 114.934V109.748C412.395 109.467 412.488 109.232 412.676 109.045C412.875 108.846 413.109 108.746 413.379 108.746C413.648 108.746 413.877 108.846 414.064 109.045C414.264 109.232 414.363 109.467 414.363 109.748V120.963C414.363 121.244 414.264 121.49 414.064 121.701C413.865 121.9 413.619 122 413.326 122H413.256C412.939 122 412.641 121.918 412.359 121.754C412.09 121.59 411.879 121.373 411.727 121.104L407.842 114.195L406.471 111.453C406.459 111.43 406.436 111.418 406.4 111.418C406.377 111.418 406.365 111.43 406.365 111.453C406.541 113.691 406.629 115.127 406.629 115.76V121.016C406.629 121.285 406.529 121.52 406.33 121.719ZM418.881 122C418.6 122 418.354 121.9 418.143 121.701C417.943 121.49 417.844 121.244 417.844 120.963V109.783C417.844 109.502 417.943 109.262 418.143 109.062C418.354 108.852 418.6 108.746 418.881 108.746H424.822C425.068 108.746 425.273 108.834 425.438 109.01C425.613 109.174 425.701 109.379 425.701 109.625C425.701 109.871 425.613 110.082 425.438 110.258C425.273 110.422 425.068 110.504 424.822 110.504H420.076C419.982 110.504 419.936 110.545 419.936 110.627V114.424C419.936 114.506 419.982 114.547 420.076 114.547H423.961C424.207 114.547 424.412 114.635 424.576 114.811C424.752 114.975 424.84 115.18 424.84 115.426C424.84 115.66 424.752 115.865 424.576 116.041C424.412 116.205 424.207 116.287 423.961 116.287H420.076C419.982 116.287 419.936 116.334 419.936 116.428V120.963C419.936 121.244 419.836 121.49 419.637 121.701C419.438 121.9 419.191 122 418.898 122H418.881ZM431.766 122C431.473 122 431.227 121.9 431.027 121.701C430.828 121.49 430.729 121.244 430.729 120.963V110.627C430.729 110.545 430.682 110.504 430.588 110.504H427.705C427.471 110.504 427.266 110.422 427.09 110.258C426.926 110.082 426.844 109.871 426.844 109.625C426.844 109.379 426.926 109.174 427.09 109.01C427.266 108.834 427.471 108.746 427.705 108.746H435.844C436.09 108.746 436.295 108.834 436.459 109.01C436.635 109.174 436.723 109.379 436.723 109.625C436.723 109.871 436.635 110.082 436.459 110.258C436.295 110.422 436.09 110.504 435.844 110.504H432.943C432.861 110.504 432.82 110.545 432.82 110.627V120.963C432.82 121.244 432.715 121.49 432.504 121.701C432.305 121.9 432.064 122 431.783 122H431.766ZM440.959 123.934C440.877 123.969 440.795 123.986 440.713 123.986C440.631 123.986 440.549 123.969 440.467 123.934C440.314 123.863 440.203 123.746 440.133 123.582C440.098 123.5 440.08 123.424 440.08 123.354C440.08 123.271 440.098 123.189 440.133 123.107C440.203 122.943 440.314 122.82 440.467 122.738C441.486 122.246 442.055 121.561 442.172 120.682C442.172 120.658 442.16 120.635 442.137 120.611C442.113 120.588 442.084 120.576 442.049 120.576C442.025 120.576 441.984 120.576 441.926 120.576C441.504 120.576 441.146 120.453 440.854 120.207C440.561 119.949 440.414 119.598 440.414 119.152C440.414 118.707 440.561 118.355 440.854 118.098C441.146 117.84 441.51 117.711 441.943 117.711C442.506 117.711 442.934 117.916 443.227 118.326C443.531 118.725 443.684 119.27 443.684 119.961C443.684 120.852 443.443 121.643 442.963 122.334C442.482 123.025 441.814 123.559 440.959 123.934ZM460.77 122.229C459.281 122.229 457.951 121.789 456.779 120.91C456.545 120.746 456.428 120.512 456.428 120.207C456.428 119.961 456.51 119.75 456.674 119.574C456.838 119.375 457.049 119.27 457.307 119.258C457.33 119.258 457.354 119.258 457.377 119.258C457.611 119.258 457.822 119.322 458.01 119.451C458.9 120.096 459.832 120.418 460.805 120.418C461.602 120.418 462.217 120.248 462.65 119.908C463.096 119.568 463.318 119.111 463.318 118.537C463.318 118.303 463.277 118.092 463.195 117.904C463.113 117.717 463.025 117.564 462.932 117.447C462.838 117.318 462.674 117.184 462.439 117.043C462.217 116.902 462.035 116.803 461.895 116.744C461.754 116.674 461.52 116.568 461.191 116.428L459.346 115.637C457.553 114.875 456.656 113.715 456.656 112.156C456.656 111.113 457.066 110.246 457.887 109.555C458.707 108.852 459.75 108.5 461.016 108.5C462.246 108.5 463.365 108.869 464.373 109.607C464.584 109.76 464.689 109.977 464.689 110.258C464.689 110.48 464.619 110.674 464.479 110.838C464.326 111.014 464.133 111.113 463.898 111.137C463.863 111.148 463.828 111.154 463.793 111.154C463.594 111.154 463.412 111.096 463.248 110.979C462.557 110.533 461.812 110.311 461.016 110.311C460.336 110.311 459.791 110.469 459.381 110.785C458.982 111.09 458.783 111.506 458.783 112.033C458.783 112.244 458.824 112.443 458.906 112.631C459 112.818 459.1 112.977 459.205 113.105C459.322 113.223 459.492 113.346 459.715 113.475C459.938 113.592 460.119 113.686 460.26 113.756C460.412 113.826 460.635 113.914 460.928 114.02L462.738 114.793C463.605 115.168 464.273 115.637 464.742 116.199C465.211 116.75 465.445 117.477 465.445 118.379C465.445 119.48 465.018 120.4 464.162 121.139C463.318 121.865 462.188 122.229 460.77 122.229ZM471.088 122.229C470.021 122.229 469.254 121.93 468.785 121.332C468.316 120.723 468.082 119.867 468.082 118.766V113.896C468.082 113.803 468.035 113.756 467.941 113.756H467.414C467.191 113.756 467.004 113.68 466.852 113.527C466.711 113.375 466.641 113.193 466.641 112.982C466.641 112.76 466.711 112.572 466.852 112.42C467.004 112.256 467.191 112.168 467.414 112.156L468.029 112.104C468.123 112.104 468.17 112.057 468.17 111.963L468.328 110.24C468.352 109.994 468.451 109.789 468.627 109.625C468.814 109.449 469.031 109.361 469.277 109.361C469.512 109.361 469.711 109.449 469.875 109.625C470.051 109.789 470.139 109.994 470.139 110.24V111.963C470.139 112.057 470.186 112.104 470.279 112.104H471.896C472.119 112.104 472.312 112.186 472.477 112.35C472.641 112.502 472.723 112.695 472.723 112.93C472.723 113.152 472.641 113.346 472.477 113.51C472.312 113.674 472.119 113.756 471.896 113.756H470.279C470.186 113.756 470.139 113.803 470.139 113.896V118.783C470.139 119.381 470.25 119.832 470.473 120.137C470.707 120.43 471.076 120.576 471.58 120.576C471.674 120.576 471.779 120.57 471.896 120.559C471.943 120.547 471.99 120.541 472.037 120.541C472.201 120.541 472.354 120.582 472.494 120.664C472.67 120.758 472.781 120.904 472.828 121.104C472.852 121.174 472.863 121.244 472.863 121.314C472.863 121.455 472.828 121.59 472.758 121.719C472.641 121.918 472.477 122.041 472.266 122.088C471.844 122.182 471.451 122.229 471.088 122.229ZM476.941 122.229C476.086 122.229 475.383 121.971 474.832 121.455C474.293 120.928 474.023 120.23 474.023 119.363C474.023 118.32 474.48 117.512 475.395 116.938C476.32 116.352 477.797 115.941 479.824 115.707C479.906 115.707 479.947 115.66 479.947 115.566C479.889 114.219 479.262 113.545 478.066 113.545C477.387 113.545 476.66 113.744 475.887 114.143C475.77 114.213 475.641 114.248 475.5 114.248C475.43 114.248 475.359 114.236 475.289 114.213C475.078 114.154 474.92 114.031 474.814 113.844C474.744 113.715 474.709 113.586 474.709 113.457C474.709 113.375 474.715 113.299 474.727 113.229C474.785 113.006 474.914 112.842 475.113 112.736C476.238 112.139 477.34 111.84 478.418 111.84C479.625 111.84 480.527 112.203 481.125 112.93C481.723 113.656 482.021 114.693 482.021 116.041V121.156C482.021 121.391 481.939 121.59 481.775 121.754C481.611 121.918 481.412 122 481.178 122C480.932 122 480.715 121.924 480.527 121.771C480.34 121.607 480.229 121.402 480.193 121.156L480.158 120.893C480.146 120.869 480.129 120.857 480.105 120.857C480.094 120.857 480.082 120.869 480.07 120.893C479.016 121.783 477.973 122.229 476.941 122.229ZM477.574 120.594C478.289 120.594 479.051 120.242 479.859 119.539C479.918 119.48 479.947 119.404 479.947 119.311V117.148C479.947 117.066 479.912 117.025 479.842 117.025C479.842 117.025 479.836 117.025 479.824 117.025C478.453 117.201 477.475 117.471 476.889 117.834C476.314 118.186 476.027 118.648 476.027 119.223C476.027 119.691 476.168 120.037 476.449 120.26C476.73 120.482 477.105 120.594 477.574 120.594ZM486.662 121.701C486.463 121.9 486.223 122 485.941 122C485.672 122 485.438 121.9 485.238 121.701C485.039 121.502 484.939 121.268 484.939 120.998V108.658C484.939 108.377 485.039 108.143 485.238 107.955C485.438 107.756 485.672 107.656 485.941 107.656C486.223 107.656 486.463 107.756 486.662 107.955C486.861 108.143 486.961 108.377 486.961 108.658V116.885C486.961 116.896 486.967 116.902 486.979 116.902C487.002 116.902 487.02 116.896 487.031 116.885L490.248 112.912C490.682 112.373 491.244 112.104 491.936 112.104H492.146C492.357 112.104 492.504 112.197 492.586 112.385C492.668 112.572 492.645 112.742 492.516 112.895L489.896 116.006C489.85 116.076 489.85 116.146 489.896 116.217L493.008 121.121C493.066 121.227 493.096 121.326 493.096 121.42C493.096 121.514 493.072 121.607 493.025 121.701C492.92 121.9 492.756 122 492.533 122H492.357C492.029 122 491.725 121.924 491.443 121.771C491.162 121.607 490.939 121.385 490.775 121.104L488.701 117.623C488.654 117.553 488.602 117.553 488.543 117.623L487.049 119.346C486.99 119.416 486.961 119.492 486.961 119.574V120.998C486.961 121.268 486.861 121.502 486.662 121.701ZM498.984 122.229C497.59 122.229 496.436 121.766 495.521 120.84C494.607 119.914 494.15 118.654 494.15 117.061C494.15 116.287 494.273 115.566 494.52 114.898C494.777 114.23 495.117 113.68 495.539 113.246C495.961 112.801 496.441 112.455 496.98 112.209C497.52 111.963 498.082 111.84 498.668 111.84C499.957 111.84 500.953 112.268 501.656 113.123C502.359 113.967 502.711 115.109 502.711 116.551C502.711 116.551 502.711 116.557 502.711 116.568C502.699 116.85 502.582 117.09 502.359 117.289C502.137 117.488 501.873 117.588 501.568 117.588H496.312C496.23 117.588 496.195 117.635 496.207 117.729C496.301 118.631 496.617 119.34 497.156 119.855C497.707 120.359 498.404 120.611 499.248 120.611C499.834 120.611 500.402 120.488 500.953 120.242C501.07 120.184 501.188 120.154 501.305 120.154C501.375 120.154 501.445 120.166 501.516 120.189C501.715 120.248 501.867 120.365 501.973 120.541C502.031 120.658 502.061 120.781 502.061 120.91C502.061 120.98 502.055 121.051 502.043 121.121C501.984 121.32 501.861 121.467 501.674 121.561C500.818 122.006 499.922 122.229 498.984 122.229ZM496.189 116.059C496.189 116.129 496.225 116.164 496.295 116.164H500.795C500.877 116.164 500.918 116.123 500.918 116.041C500.895 115.221 500.695 114.588 500.32 114.143C499.945 113.697 499.406 113.475 498.703 113.475C498.082 113.475 497.537 113.697 497.068 114.143C496.482 114.717 496.189 115.355 496.189 116.059ZM505.928 125.006C505.834 125.182 505.688 125.299 505.488 125.357C505.406 125.381 505.324 125.393 505.242 125.393C505.137 125.393 505.031 125.369 504.926 125.322C504.75 125.252 504.633 125.123 504.574 124.936C504.551 124.865 504.539 124.795 504.539 124.725C504.539 124.619 504.568 124.52 504.627 124.426C505.904 122.035 506.543 119.357 506.543 116.393C506.543 113.451 505.904 110.779 504.627 108.377C504.568 108.271 504.539 108.166 504.539 108.061C504.539 108.002 504.551 107.938 504.574 107.867C504.633 107.68 504.75 107.551 504.926 107.48C505.031 107.434 505.137 107.41 505.242 107.41C505.324 107.41 505.406 107.422 505.488 107.445C505.688 107.516 505.834 107.639 505.928 107.814C507.475 110.486 508.248 113.346 508.248 116.393C508.248 119.439 507.475 122.311 505.928 125.006Z" fill="#1E1E1E"/>
<path d="M0 46H570" stroke="#1E1E1E" stroke-width="2"/>
<path d="M0 92H570" stroke="#1E1E1E" stroke-width="2"/>
<path d="M118 138L118 -3.42727e-06" stroke="#1E1E1E" stroke-width="2"/>
</svg>
