<svg width="24" height="24" viewBox="0 0 24 24" fill="none" xmlns="http://www.w3.org/2000/svg">
<path d="M5.74945 5.33524C6.10974 5.69553 6.68031 5.72187 7.10775 5.44453C8.51613 4.53072 10.1961 4 12 4C13.8039 4 15.4839 4.53072 16.8923 5.44454C17.3197 5.72188 17.8903 5.69554 18.2506 5.33525L18.364 5.22182C18.7545 4.8313 19.3877 4.8313 19.7782 5.22182C20.1687 5.61235 20.1687 6.24551 19.7782 6.63603L19.6648 6.74946C19.3045 7.10975 19.2781 7.68031 19.5555 8.10775C20.4693 9.51614 21 11.1961 21 13C21 17.9706 16.9706 22 12 22C7.02944 22 3 17.9706 3 13C3 11.1961 3.53072 9.51614 4.44453 8.10775C4.72188 7.68031 4.69553 7.10974 4.33524 6.74945L4.22183 6.63603C3.8313 6.24551 3.8313 5.61235 4.22182 5.22182C4.61235 4.8313 5.24551 4.8313 5.63603 5.22183L5.74945 5.33524ZM12 20C15.866 20 19 16.866 19 13C19 9.13401 15.866 6 12 6C8.13401 6 5 9.13401 5 13C5 16.866 8.13401 20 12 20ZM13 11C13 11.5523 13.4477 12 14 12H15.1877C15.5195 12 15.707 12.3808 15.5047 12.6439L11.717 17.5678C11.4842 17.8706 11 17.7059 11 17.324V15C11 14.4477 10.5523 14 10 14H8.81198C8.48018 14 8.29263 13.6193 8.49484 13.3562L12.2829 8.42817C12.5157 8.12529 13 8.28993 13 8.67194V11ZM8 2C8 1.44772 8.44772 1 9 1H15C15.5523 1 16 1.44772 16 2C16 2.55228 15.5523 3 15 3H9C8.44772 3 8 2.55228 8 2Z" fill="#FF9100"/>
</svg>
