<svg width="65" height="65" viewBox="0 0 65 65" fill="none" xmlns="http://www.w3.org/2000/svg">
<g clip-path="url(#clip0_24_342)">
<g filter="url(#filter0_d_24_342)">
<path d="M32.5 57.4854C24.0149 57.4854 16.0257 54.9966 9.98505 50.4705C7.00018 48.2297 4.64417 45.6079 2.99673 42.6762C1.26072 39.5939 0.375 36.3079 0.375 32.9244C0.375 27.061 3.06759 21.4544 7.98333 17.0258C7.9479 16.6626 7.93019 16.2906 7.93019 15.9186C7.93019 9.66545 13.0142 4.58142 19.2674 4.58142C22.6243 4.58142 25.7863 6.06943 27.9297 8.60259C30.9412 8.27487 34.0412 8.27487 37.0526 8.60259C39.1961 6.06057 42.3581 4.58142 45.715 4.58142C51.9682 4.58142 57.0522 9.66545 57.0522 15.9186C57.0522 16.2906 57.0345 16.6538 56.999 17.0258C61.9148 21.4544 64.6074 27.061 64.6074 32.9244C64.6074 36.3168 63.7217 39.5939 61.9856 42.6762C60.3294 45.6079 57.9822 48.2297 54.9973 50.4705C48.9744 54.9966 40.9852 57.4854 32.5 57.4854ZM19.2763 8.35459C15.1045 8.35459 11.7211 11.7469 11.7211 15.9098C11.7211 16.4058 11.7742 16.9106 11.8628 17.3978L12.0842 18.4961L11.2251 19.2135C6.67246 23.0132 4.16588 27.8758 4.16588 32.9156C4.16588 38.3628 7.04447 43.5176 12.2614 47.4414C17.6465 51.4803 24.8386 53.7034 32.5089 53.7034C40.1792 53.7034 47.3713 51.4803 52.7565 47.4414C57.9822 43.5265 60.8519 38.3628 60.8519 32.9156C60.8519 27.8847 58.3453 23.0132 53.7927 19.2135L52.9336 18.4961L53.155 17.3978C53.2525 16.9106 53.2967 16.4146 53.2967 15.9098C53.2967 11.738 49.9044 8.35459 45.7416 8.35459C43.235 8.35459 40.8967 9.59459 39.4884 11.6672L38.8329 12.6326L37.6726 12.4732C34.2981 12.0126 30.7375 12.0126 27.3629 12.4732L26.2026 12.6326L25.5471 11.6672C24.1211 9.59459 21.7828 8.35459 19.2763 8.35459Z" fill="#1E1E1E"/>
</g>
<g filter="url(#filter1_d_24_342)">
<path d="M32.4988 49.9303C27.0693 49.9303 21.941 48.4334 18.0527 45.7142C13.9607 42.8533 11.7109 38.9828 11.7109 34.811C11.7109 33.7659 12.5612 32.9244 13.5975 32.9244C14.6338 32.9244 15.493 33.7659 15.493 34.811C15.493 37.7073 17.1758 40.4796 20.2227 42.6142C23.4733 44.8905 27.8399 46.1482 32.4988 46.1482C37.1577 46.1482 41.5243 44.8905 44.7748 42.6142C47.8217 40.4796 49.5046 37.7073 49.5046 34.811C49.5046 33.7659 50.3549 32.9244 51.3912 32.9244C52.4275 32.9244 53.2778 33.7747 53.2778 34.811C53.2778 38.9828 51.028 42.8533 46.936 45.7142C43.0566 48.4334 37.9282 49.9303 32.4988 49.9303Z" fill="#1E1E1E"/>
</g>
<path d="M17.3906 15.9186C17.3906 16.419 17.5894 16.8988 17.9432 17.2526C18.297 17.6064 18.7769 17.8052 19.2772 17.8052C19.7776 17.8052 20.2574 17.6064 20.6112 17.2526C20.965 16.8988 21.1638 16.419 21.1638 15.9186C21.1638 15.4183 20.965 14.9384 20.6112 14.5846C20.2574 14.2308 19.7776 14.032 19.2772 14.032C18.7769 14.032 18.297 14.2308 17.9432 14.5846C17.5894 14.9384 17.3906 15.4183 17.3906 15.9186Z" fill="#1E1E1E"/>
<path d="M19.2777 18.372C17.9225 18.372 16.8242 17.2737 16.8242 15.9186C16.8242 14.5634 17.9225 13.4651 19.2777 13.4651C20.6328 13.4651 21.7311 14.5634 21.7311 15.9186C21.7311 17.2737 20.6328 18.372 19.2777 18.372ZM19.2777 14.59C18.5514 14.59 17.9579 15.1834 17.9579 15.9097C17.9579 16.636 18.5514 17.2295 19.2777 17.2295C20.004 17.2295 20.5974 16.636 20.5974 15.9097C20.5974 15.1834 20.004 14.59 19.2777 14.59Z" fill="#1E1E1E"/>
<path d="M43.8359 15.9186C43.8359 16.419 44.0347 16.8988 44.3885 17.2526C44.7423 17.6064 45.2222 17.8052 45.7225 17.8052C46.2229 17.8052 46.7027 17.6064 47.0565 17.2526C47.4103 16.8988 47.6091 16.419 47.6091 15.9186C47.6091 15.4183 47.4103 14.9384 47.0565 14.5846C46.7027 14.2308 46.2229 14.032 45.7225 14.032C45.2222 14.032 44.7423 14.2308 44.3885 14.5846C44.0347 14.9384 43.8359 15.4183 43.8359 15.9186Z" fill="#1E1E1E"/>
<path d="M45.723 18.372C44.3678 18.372 43.2695 17.2737 43.2695 15.9186C43.2695 14.5634 44.3678 13.4651 45.723 13.4651C47.0781 13.4651 48.1764 14.5634 48.1764 15.9186C48.1853 17.2737 47.0781 18.372 45.723 18.372ZM45.723 14.59C44.9967 14.59 44.4033 15.1834 44.4033 15.9097C44.4033 16.636 44.9967 17.2295 45.723 17.2295C46.4493 17.2295 47.0427 16.636 47.0427 15.9097C47.0516 15.1834 46.4581 14.59 45.723 14.59Z" fill="#1E1E1E"/>
</g>
<defs>
<filter id="filter0_d_24_342" x="0.375" y="4.58142" width="64.2324" height="54.9041" filterUnits="userSpaceOnUse" color-interpolation-filters="sRGB">
<feFlood flood-opacity="0" result="BackgroundImageFix"/>
<feColorMatrix in="SourceAlpha" type="matrix" values="0 0 0 0 0 0 0 0 0 0 0 0 0 0 0 0 0 0 127 0" result="hardAlpha"/>
<feOffset dy="2"/>
<feComposite in2="hardAlpha" operator="out"/>
<feColorMatrix type="matrix" values="0 0 0 0 0.109804 0 0 0 0 0.611765 0 0 0 0 0.94902 0 0 0 1 0"/>
<feBlend mode="normal" in2="BackgroundImageFix" result="effect1_dropShadow_24_342"/>
<feBlend mode="normal" in="SourceGraphic" in2="effect1_dropShadow_24_342" result="shape"/>
</filter>
<filter id="filter1_d_24_342" x="11.7109" y="32.9244" width="41.5664" height="19.0058" filterUnits="userSpaceOnUse" color-interpolation-filters="sRGB">
<feFlood flood-opacity="0" result="BackgroundImageFix"/>
<feColorMatrix in="SourceAlpha" type="matrix" values="0 0 0 0 0 0 0 0 0 0 0 0 0 0 0 0 0 0 127 0" result="hardAlpha"/>
<feOffset dy="2"/>
<feComposite in2="hardAlpha" operator="out"/>
<feColorMatrix type="matrix" values="0 0 0 0 0.109804 0 0 0 0 0.611765 0 0 0 0 0.94902 0 0 0 1 0"/>
<feBlend mode="normal" in2="BackgroundImageFix" result="effect1_dropShadow_24_342"/>
<feBlend mode="normal" in="SourceGraphic" in2="effect1_dropShadow_24_342" result="shape"/>
</filter>
<clipPath id="clip0_24_342">
<rect width="65" height="65" fill="white"/>
</clipPath>
</defs>
</svg>
