<svg width="30" height="30" viewBox="0 0 30 30" fill="none" xmlns="http://www.w3.org/2000/svg">
<path d="M15 30C6.71572 30 0 23.2842 0 15C0 6.71572 6.71572 0 15 0C23.2842 0 30 6.71572 30 15C30 23.2842 23.2842 30 15 30ZM15 27C21.6275 27 27 21.6275 27 15C27 8.37258 21.6275 3 15 3C8.37258 3 3 8.37258 3 15C3 21.6275 8.37258 27 15 27ZM8.63604 8.63604C9.25107 8.02101 10.2352 8.11387 10.8502 8.7289L21.2711 19.1498C21.8861 19.7648 21.979 20.749 21.3639 21.3639V21.3639V21.3639C20.749 21.979 19.7648 21.8861 19.1498 21.2711L8.7289 10.8502C8.11387 10.2352 8.02101 9.25107 8.63604 8.63604V8.63604V8.63604Z" fill="#EB7565"/>
</svg>
