<svg width="40" height="40" viewBox="0 0 40 40" fill="none" xmlns="http://www.w3.org/2000/svg">
<path d="M33.736 8.6426C31.2097 7.48342 28.5006 6.62938 25.668 6.14024C25.6165 6.1308 25.5649 6.15439 25.5384 6.20157C25.1899 6.82125 24.804 7.62968 24.5338 8.2651C21.4872 7.809 18.4562 7.809 15.4721 8.2651C15.2018 7.61556 14.8019 6.82125 14.4519 6.20157C14.4253 6.15596 14.3738 6.13237 14.3222 6.14024C11.4912 6.62781 8.78214 7.48185 6.25425 8.6426C6.23236 8.65204 6.21361 8.66778 6.20116 8.68821C1.06256 16.3652 -0.345119 23.8534 0.345441 31.2488C0.348565 31.285 0.368876 31.3196 0.396998 31.3416C3.7873 33.8314 7.07138 35.3429 10.2945 36.3448C10.3461 36.3605 10.4007 36.3416 10.4335 36.2992C11.196 35.258 11.8756 34.1602 12.4583 33.0057C12.4927 32.9381 12.4599 32.8578 12.3896 32.8311C11.3116 32.4222 10.2851 31.9236 9.2977 31.3574C9.2196 31.3118 9.21334 31.2001 9.28519 31.1466C9.49298 30.9909 9.70082 30.8289 9.89923 30.6653C9.93513 30.6354 9.98515 30.6291 10.0274 30.648C16.5142 33.6097 23.537 33.6097 29.9473 30.648C29.9895 30.6276 30.0395 30.6339 30.077 30.6637C30.2754 30.8273 30.4832 30.9909 30.6926 31.1466C30.7644 31.2001 30.7597 31.3118 30.6816 31.3574C29.6942 31.9346 28.6677 32.4222 27.5881 32.8295C27.5179 32.8563 27.4866 32.9381 27.521 33.0057C28.1162 34.1585 28.7958 35.2564 29.5442 36.2976C29.5755 36.3416 29.6317 36.3605 29.6833 36.3448C32.922 35.3429 36.2061 33.8314 39.5964 31.3416C39.6261 31.3196 39.6448 31.2866 39.6479 31.2504C40.4744 22.7005 38.2637 15.2736 33.7875 8.68977C33.7766 8.66778 33.7579 8.65204 33.736 8.6426ZM13.427 26.7458C11.474 26.7458 9.86484 24.9528 9.86484 22.7509C9.86484 20.5489 11.4428 18.7559 13.427 18.7559C15.4268 18.7559 17.0204 20.5646 16.9892 22.7509C16.9892 24.9528 15.4112 26.7458 13.427 26.7458ZM26.5976 26.7458C24.6447 26.7458 23.0355 24.9528 23.0355 22.7509C23.0355 20.5489 24.6134 18.7559 26.5976 18.7559C28.5974 18.7559 30.191 20.5646 30.1598 22.7509C30.1598 24.9528 28.5974 26.7458 26.5976 26.7458Z" fill="#5865F2"/>
</svg>
