<svg width="40" height="40" viewBox="0 0 40 40" fill="none" xmlns="http://www.w3.org/2000/svg">
<path fill-rule="evenodd" clip-rule="evenodd" d="M3.39499 18.8222C13.7308 14.3191 20.623 11.3503 24.0715 9.91596C33.9177 5.8206 35.9636 5.10919 37.2971 5.0857C37.5904 5.08053 38.2462 5.15322 38.671 5.49791C39.0297 5.78896 39.1284 6.18212 39.1756 6.45807C39.2228 6.73401 39.2816 7.36263 39.2349 7.85381C38.7013 13.46 36.3926 27.0649 35.218 33.344C34.721 36.0009 33.7424 36.8918 32.795 36.9789C30.7361 37.1684 29.1726 35.6183 27.1785 34.3111C24.058 32.2655 22.2951 30.9922 19.2661 28.9962C15.7656 26.6894 18.0348 25.4215 20.0298 23.3495C20.5519 22.8073 29.6235 14.5559 29.7991 13.8074C29.8211 13.7137 29.8415 13.3648 29.6342 13.1805C29.4269 12.9963 29.1209 13.0593 28.9001 13.1094C28.5871 13.1804 23.6021 16.4753 13.945 22.9941C12.53 23.9657 11.2484 24.4391 10.1001 24.4143C8.83416 24.387 6.39904 23.6986 4.58877 23.1101C2.36841 22.3884 0.603709 22.0068 0.757375 20.781C0.837413 20.1426 1.71662 19.4896 3.39499 18.8222Z" fill="url(#paint0_linear_42_940)"/>
<defs>
<linearGradient id="paint0_linear_42_940" x1="20" y1="5.08545" x2="20" y2="36.7581" gradientUnits="userSpaceOnUse">
<stop stop-color="#2AABEE"/>
<stop offset="1" stop-color="#229ED9"/>
</linearGradient>
</defs>
</svg>
