<svg width="375" height="345" viewBox="0 0 375 345" fill="none" xmlns="http://www.w3.org/2000/svg">
<circle opacity="0.06" cx="187.5" cy="142.5" r="131.557" stroke="#1C9CF2" stroke-width="1.88612"/>
<path d="M301.158 142.5C301.158 205.261 250.281 256.139 187.52 256.139C124.759 256.139 73.8809 205.261 73.8809 142.5C73.8809 79.7391 124.759 28.8613 187.52 28.8613C250.281 28.8613 301.158 79.7391 301.158 142.5ZM130.7 142.5C130.7 173.881 156.139 199.319 187.52 199.319C218.9 199.319 244.339 173.881 244.339 142.5C244.339 111.12 218.9 85.6807 187.52 85.6807C156.139 85.6807 130.7 111.12 130.7 142.5Z" fill="#1C9CF2"/>
<path d="M141.299 38.6859C167.169 27.1678 196.407 25.7238 223.286 34.6366C250.165 43.5494 272.748 62.1769 286.611 86.87C300.474 111.563 304.617 140.542 298.23 168.131C291.843 195.719 275.385 219.929 252.081 236.018C228.777 252.106 200.306 258.914 172.244 255.108C144.183 251.301 118.554 237.154 100.378 215.439C82.202 193.724 72.7885 166.005 73.9818 137.712C75.1751 109.418 86.8891 82.5903 106.829 62.4826L147.174 102.491C137.204 112.545 131.347 125.959 130.751 140.106C130.154 154.252 134.861 168.112 143.949 178.97C153.037 189.827 165.851 196.901 179.882 198.804C193.913 200.707 208.148 197.303 219.8 189.259C231.453 181.215 239.681 169.11 242.875 155.315C246.068 141.521 243.997 127.032 237.065 114.685C230.134 102.339 218.842 93.0248 205.403 88.5683C191.963 84.1119 177.344 84.834 164.409 90.593L141.299 38.6859Z" fill="#9BD341"/>
<path d="M141.299 38.6859C154.932 32.6161 169.627 29.2909 184.545 28.9003C199.463 28.5096 214.312 31.0612 228.244 36.4092C242.176 41.7572 254.918 49.797 265.743 60.0695C276.568 70.342 285.264 82.6461 291.334 96.2792C297.404 109.912 300.729 124.607 301.119 139.526C301.51 154.444 298.958 169.293 293.61 183.225C288.262 197.157 280.223 209.899 269.95 220.724C259.678 231.549 247.374 240.245 233.74 246.314L210.63 194.407C217.447 191.372 223.599 187.025 228.735 181.612C233.871 176.2 237.891 169.828 240.565 162.862C243.239 155.896 244.515 148.472 244.32 141.013C244.124 133.554 242.462 126.206 239.427 119.39C236.392 112.573 232.044 106.421 226.632 101.285C221.219 96.1485 214.848 92.1286 207.882 89.4546C200.916 86.7806 193.491 85.5049 186.032 85.7002C178.573 85.8955 171.226 87.5581 164.409 90.593L141.299 38.6859Z" fill="#FF9100"/>
<path d="M168.828 138.109C169.047 138.276 169.156 138.5 169.156 138.781C169.156 139.031 169.073 139.245 168.906 139.422L168.703 139.656C168.547 139.844 168.339 139.948 168.078 139.969C168.036 139.979 168 139.984 167.969 139.984C167.75 139.984 167.552 139.927 167.375 139.812C166.979 139.583 166.568 139.469 166.141 139.469C165.703 139.469 165.375 139.557 165.156 139.734C164.948 139.901 164.844 140.177 164.844 140.562C164.844 140.76 164.911 140.943 165.047 141.109C165.182 141.276 165.359 141.422 165.578 141.547C165.807 141.672 166.068 141.807 166.359 141.953C166.651 142.099 166.943 142.24 167.234 142.375C167.536 142.51 167.828 142.682 168.109 142.891C168.401 143.089 168.661 143.307 168.891 143.547C169.12 143.776 169.302 144.062 169.438 144.406C169.573 144.75 169.641 145.13 169.641 145.547C169.641 146.432 169.406 147.188 168.938 147.812C168.479 148.438 167.802 148.859 166.906 149.078C166.833 149.089 166.797 149.135 166.797 149.219V150.078C166.797 150.339 166.703 150.557 166.516 150.734C166.339 150.911 166.125 151 165.875 151H165.844C165.583 151 165.365 150.911 165.188 150.734C165.01 150.557 164.922 150.339 164.922 150.078V149.312C164.922 149.229 164.88 149.182 164.797 149.172C163.943 149.057 163.146 148.776 162.406 148.328C162.188 148.193 162.057 147.995 162.016 147.734C162.005 147.672 162 147.615 162 147.562C162 147.365 162.057 147.182 162.172 147.016L162.422 146.641C162.557 146.432 162.745 146.307 162.984 146.266C163.057 146.245 163.125 146.234 163.188 146.234C163.365 146.234 163.531 146.281 163.688 146.375C164.302 146.74 164.906 146.922 165.5 146.922C165.99 146.922 166.349 146.828 166.578 146.641C166.807 146.443 166.922 146.146 166.922 145.75C166.922 145.521 166.833 145.307 166.656 145.109C166.479 144.901 166.25 144.719 165.969 144.562C165.688 144.396 165.375 144.229 165.031 144.062C164.698 143.896 164.359 143.714 164.016 143.516C163.672 143.307 163.359 143.078 163.078 142.828C162.797 142.578 162.568 142.271 162.391 141.906C162.224 141.542 162.141 141.141 162.141 140.703C162.141 139.807 162.375 139.062 162.844 138.469C163.312 137.875 163.969 137.479 164.812 137.281C164.885 137.26 164.922 137.214 164.922 137.141V136.297C164.922 136.036 165.01 135.818 165.188 135.641C165.365 135.464 165.583 135.375 165.844 135.375H165.875C166.125 135.375 166.339 135.464 166.516 135.641C166.703 135.818 166.797 136.036 166.797 136.297V137.109C166.797 137.182 166.833 137.229 166.906 137.25C167.615 137.375 168.255 137.661 168.828 138.109ZM173.031 149C172.781 149 172.562 148.911 172.375 148.734C172.198 148.547 172.109 148.328 172.109 148.078V138.016C172.109 137.766 172.198 137.552 172.375 137.375C172.562 137.188 172.781 137.094 173.031 137.094H178.781C179.042 137.094 179.26 137.188 179.438 137.375C179.615 137.552 179.703 137.766 179.703 138.016V138.547C179.703 138.797 179.615 139.016 179.438 139.203C179.26 139.38 179.042 139.469 178.781 139.469H175.094C175.01 139.469 174.969 139.505 174.969 139.578V141.953C174.969 142.036 175.01 142.078 175.094 142.078H178.109C178.37 142.078 178.589 142.167 178.766 142.344C178.943 142.521 179.031 142.74 179.031 143V143.531C179.031 143.792 178.943 144.01 178.766 144.188C178.589 144.365 178.37 144.453 178.109 144.453H175.094C175.01 144.453 174.969 144.495 174.969 144.578V148.078C174.969 148.328 174.88 148.547 174.703 148.734C174.526 148.911 174.307 149 174.047 149H173.031ZM190.484 147.547C189.484 148.661 188.161 149.219 186.516 149.219C184.88 149.219 183.562 148.661 182.562 147.547C181.562 146.432 181.062 144.911 181.062 142.984C181.062 141.068 181.557 139.573 182.547 138.5C183.547 137.417 184.87 136.875 186.516 136.875C188.172 136.875 189.495 137.417 190.484 138.5C191.484 139.573 191.984 141.068 191.984 142.984C191.984 144.911 191.484 146.432 190.484 147.547ZM184.672 145.75C185.12 146.427 185.734 146.766 186.516 146.766C187.307 146.766 187.927 146.427 188.375 145.75C188.833 145.062 189.062 144.141 189.062 142.984C189.062 141.839 188.833 140.943 188.375 140.297C187.927 139.641 187.307 139.312 186.516 139.312C185.734 139.312 185.12 139.641 184.672 140.297C184.224 140.943 184 141.839 184 142.984C184 144.151 184.224 145.073 184.672 145.75ZM195.094 149C194.844 149 194.625 148.911 194.438 148.734C194.26 148.547 194.172 148.328 194.172 148.078V138.016C194.172 137.766 194.26 137.552 194.438 137.375C194.625 137.188 194.844 137.094 195.094 137.094H200.844C201.104 137.094 201.323 137.188 201.5 137.375C201.677 137.552 201.766 137.766 201.766 138.016V138.547C201.766 138.797 201.677 139.016 201.5 139.203C201.323 139.38 201.104 139.469 200.844 139.469H197.156C197.073 139.469 197.031 139.505 197.031 139.578V141.953C197.031 142.036 197.073 142.078 197.156 142.078H200.172C200.432 142.078 200.651 142.167 200.828 142.344C201.005 142.521 201.094 142.74 201.094 143V143.531C201.094 143.792 201.005 144.01 200.828 144.188C200.651 144.365 200.432 144.453 200.172 144.453H197.156C197.073 144.453 197.031 144.495 197.031 144.578V148.078C197.031 148.328 196.943 148.547 196.766 148.734C196.589 148.911 196.37 149 196.109 149H195.094ZM212.547 147.547C211.547 148.661 210.224 149.219 208.578 149.219C206.943 149.219 205.625 148.661 204.625 147.547C203.625 146.432 203.125 144.911 203.125 142.984C203.125 141.068 203.62 139.573 204.609 138.5C205.609 137.417 206.932 136.875 208.578 136.875C210.234 136.875 211.557 137.417 212.547 138.5C213.547 139.573 214.047 141.068 214.047 142.984C214.047 144.911 213.547 146.432 212.547 147.547ZM206.734 145.75C207.182 146.427 207.797 146.766 208.578 146.766C209.37 146.766 209.99 146.427 210.438 145.75C210.896 145.062 211.125 144.141 211.125 142.984C211.125 141.839 210.896 140.943 210.438 140.297C209.99 139.641 209.37 139.312 208.578 139.312C207.797 139.312 207.182 139.641 206.734 140.297C206.286 140.943 206.062 141.839 206.062 142.984C206.062 144.151 206.286 145.073 206.734 145.75Z" fill="#1E1E1E"/>
<rect x="61" y="285" width="20" height="20" rx="4" fill="#FF9100"/>
<rect x="61" y="315" width="20" height="20" rx="4" fill="#1C9CF2"/>
<rect x="209" y="285" width="20" height="20" rx="4" fill="#9BD341"/>
<path opacity="0.8" d="M88.2109 300.152C87.2656 300.152 86.4453 299.883 85.75 299.344C85.625 299.25 85.5547 299.121 85.5391 298.957C85.5312 298.941 85.5273 298.922 85.5273 298.898C85.5273 298.766 85.5703 298.645 85.6562 298.535C85.7422 298.418 85.8594 298.352 86.0078 298.336C86.0234 298.336 86.043 298.336 86.0664 298.336C86.1914 298.336 86.3047 298.375 86.4062 298.453C86.9062 298.836 87.4531 299.027 88.0469 299.027C88.5547 299.027 88.9727 298.859 89.3008 298.523C89.6367 298.18 89.8047 297.719 89.8047 297.141C89.8047 296.562 89.6523 296.113 89.3477 295.793C89.043 295.465 88.6328 295.301 88.1172 295.301C87.75 295.301 87.3945 295.398 87.0508 295.594C86.9336 295.656 86.8203 295.688 86.7109 295.688C86.5938 295.688 86.4805 295.652 86.3711 295.582C86.1445 295.434 86.0391 295.223 86.0547 294.949L86.2539 291.855C86.2617 291.66 86.3359 291.496 86.4766 291.363C86.625 291.23 86.7969 291.164 86.9922 291.164H90.1914C90.3477 291.164 90.4844 291.223 90.6016 291.34C90.7188 291.449 90.7773 291.586 90.7773 291.75C90.7773 291.914 90.7188 292.055 90.6016 292.172C90.4844 292.281 90.3477 292.336 90.1914 292.336H87.5781C87.5234 292.336 87.4922 292.363 87.4844 292.418L87.2969 294.516C87.2969 294.531 87.3047 294.547 87.3203 294.562C87.3359 294.57 87.3516 294.57 87.3672 294.562C87.7422 294.383 88.1211 294.293 88.5039 294.293C89.293 294.293 89.9375 294.531 90.4375 295.008C90.9375 295.477 91.1875 296.172 91.1875 297.094C91.1875 297.727 91.0469 298.281 90.7656 298.758C90.4844 299.227 90.1211 299.578 89.6758 299.812C89.2305 300.039 88.7422 300.152 88.2109 300.152ZM95.2539 300.152C94.3633 300.152 93.6641 299.762 93.1562 298.98C92.6484 298.199 92.3945 297.055 92.3945 295.547C92.3945 294.055 92.6484 292.926 93.1562 292.16C93.6641 291.387 94.3633 291 95.2539 291C96.1367 291 96.832 291.387 97.3398 292.16C97.8555 292.934 98.1133 294.062 98.1133 295.547C98.1133 297.047 97.8555 298.191 97.3398 298.98C96.832 299.762 96.1367 300.152 95.2539 300.152ZM94.1289 298.219C94.4023 298.781 94.7773 299.062 95.2539 299.062C95.7305 299.062 96.1055 298.781 96.3789 298.219C96.6523 297.656 96.7891 296.766 96.7891 295.547C96.7891 293.242 96.2773 292.09 95.2539 292.09C94.2305 292.09 93.7188 293.242 93.7188 295.547C93.7188 296.766 93.8555 297.656 94.1289 298.219ZM102.66 295.852C102.285 296.344 101.785 296.59 101.16 296.59C100.535 296.59 100.035 296.344 99.6602 295.852C99.2852 295.352 99.0977 294.664 99.0977 293.789C99.0977 292.914 99.2852 292.23 99.6602 291.738C100.035 291.246 100.535 291 101.16 291C101.785 291 102.285 291.246 102.66 291.738C103.043 292.23 103.234 292.914 103.234 293.789C103.234 294.664 103.043 295.352 102.66 295.852ZM101.16 295.781C101.488 295.781 101.746 295.613 101.934 295.277C102.129 294.934 102.227 294.438 102.227 293.789C102.227 293.125 102.129 292.633 101.934 292.312C101.746 291.984 101.488 291.82 101.16 291.82C100.84 291.82 100.582 291.984 100.387 292.312C100.199 292.633 100.105 293.125 100.105 293.789C100.105 294.438 100.199 294.934 100.387 295.277C100.582 295.613 100.84 295.781 101.16 295.781ZM101.863 300.152C101.77 300.152 101.695 300.113 101.641 300.035C101.617 299.988 101.605 299.941 101.605 299.895C101.605 299.855 101.617 299.816 101.641 299.777L106.07 291.387C106.203 291.129 106.418 291 106.715 291C106.809 291 106.879 291.043 106.926 291.129C106.98 291.215 106.984 291.301 106.938 291.387L102.508 299.777C102.367 300.027 102.152 300.152 101.863 300.152ZM107.441 300.152C106.809 300.152 106.301 299.906 105.918 299.414C105.543 298.922 105.355 298.238 105.355 297.363C105.355 296.488 105.543 295.805 105.918 295.312C106.301 294.82 106.809 294.574 107.441 294.574C108.059 294.574 108.555 294.82 108.93 295.312C109.312 295.805 109.504 296.488 109.504 297.363C109.504 298.238 109.312 298.922 108.93 299.414C108.555 299.906 108.059 300.152 107.441 300.152ZM107.441 299.355C107.754 299.355 108.008 299.188 108.203 298.852C108.398 298.508 108.496 298.012 108.496 297.363C108.496 296.707 108.398 296.215 108.203 295.887C108.016 295.559 107.762 295.395 107.441 295.395C107.113 295.395 106.852 295.559 106.656 295.887C106.461 296.207 106.363 296.699 106.363 297.363C106.363 298.02 106.461 298.516 106.656 298.852C106.852 299.188 107.113 299.355 107.441 299.355ZM114.473 300C114.285 300 114.121 299.934 113.98 299.801C113.848 299.66 113.781 299.496 113.781 299.309V291.855C113.781 291.668 113.848 291.508 113.98 291.375C114.121 291.234 114.285 291.164 114.473 291.164H114.484C114.68 291.164 114.844 291.234 114.977 291.375C115.109 291.508 115.176 291.668 115.176 291.855V298.734C115.176 298.797 115.207 298.828 115.27 298.828H118.316C118.48 298.828 118.621 298.887 118.738 299.004C118.855 299.113 118.914 299.25 118.914 299.414C118.914 299.578 118.855 299.719 118.738 299.836C118.621 299.945 118.48 300 118.316 300H114.473ZM121.516 299.801C121.383 299.934 121.219 300 121.023 300C120.836 300 120.676 299.934 120.543 299.801C120.41 299.668 120.344 299.508 120.344 299.32V294.082C120.344 293.895 120.41 293.734 120.543 293.602C120.676 293.469 120.836 293.402 121.023 293.402C121.219 293.402 121.383 293.469 121.516 293.602C121.648 293.734 121.715 293.895 121.715 294.082V299.32C121.715 299.508 121.648 299.668 121.516 299.801ZM121.656 291.938C121.492 292.086 121.281 292.16 121.023 292.16C120.773 292.16 120.566 292.086 120.402 291.938C120.238 291.781 120.156 291.586 120.156 291.352C120.156 291.109 120.238 290.914 120.402 290.766C120.566 290.609 120.773 290.531 121.023 290.531C121.281 290.531 121.492 290.609 121.656 290.766C121.828 290.914 121.914 291.109 121.914 291.352C121.914 291.586 121.828 291.781 121.656 291.938ZM129.062 302.496C128.93 302.637 128.766 302.707 128.57 302.707C128.383 302.707 128.219 302.637 128.078 302.496C127.945 302.363 127.879 302.203 127.879 302.016V300.457L127.938 299.414C127.938 299.398 127.93 299.387 127.914 299.379C127.906 299.371 127.895 299.371 127.879 299.379C127.301 299.918 126.695 300.188 126.062 300.188C125.227 300.188 124.562 299.883 124.07 299.273C123.578 298.664 123.332 297.82 123.332 296.742C123.332 295.703 123.609 294.863 124.164 294.223C124.727 293.582 125.395 293.262 126.168 293.262C126.824 293.262 127.43 293.523 127.984 294.047C128 294.062 128.016 294.07 128.031 294.07C128.047 294.07 128.055 294.062 128.055 294.047L128.066 293.965C128.098 293.809 128.172 293.68 128.289 293.578C128.414 293.477 128.555 293.426 128.711 293.426C128.867 293.426 128.996 293.48 129.098 293.59C129.207 293.699 129.262 293.828 129.262 293.977V302.016C129.262 302.203 129.195 302.363 129.062 302.496ZM126.379 299.051C126.895 299.051 127.375 298.805 127.82 298.312C127.859 298.266 127.879 298.211 127.879 298.148V295.102C127.879 295.039 127.859 294.988 127.82 294.949C127.398 294.59 126.934 294.41 126.426 294.41C125.957 294.41 125.562 294.621 125.242 295.043C124.922 295.465 124.762 296.023 124.762 296.719C124.762 297.469 124.902 298.047 125.184 298.453C125.465 298.852 125.863 299.051 126.379 299.051ZM133.27 300.152C131.926 300.152 131.254 299.285 131.254 297.551V294.094C131.254 293.898 131.32 293.734 131.453 293.602C131.586 293.469 131.746 293.402 131.934 293.402C132.129 293.402 132.293 293.469 132.426 293.602C132.566 293.734 132.637 293.898 132.637 294.094V297.387C132.637 297.949 132.723 298.355 132.895 298.605C133.066 298.848 133.348 298.969 133.738 298.969C134.027 298.969 134.285 298.898 134.512 298.758C134.746 298.617 134.996 298.383 135.262 298.055C135.301 298.008 135.32 297.953 135.32 297.891V294.094C135.32 293.898 135.387 293.734 135.52 293.602C135.66 293.469 135.824 293.402 136.012 293.402C136.199 293.402 136.359 293.469 136.492 293.602C136.633 293.734 136.703 293.898 136.703 294.094V299.438C136.703 299.594 136.648 299.727 136.539 299.836C136.43 299.945 136.297 300 136.141 300C135.977 300 135.836 299.949 135.719 299.848C135.602 299.738 135.531 299.602 135.508 299.438L135.473 299.027C135.465 299.012 135.453 299.004 135.438 299.004C135.43 299.004 135.422 299.008 135.414 299.016C135.094 299.391 134.762 299.676 134.418 299.871C134.082 300.059 133.699 300.152 133.27 300.152ZM139.938 299.801C139.805 299.934 139.641 300 139.445 300C139.258 300 139.098 299.934 138.965 299.801C138.832 299.668 138.766 299.508 138.766 299.32V294.082C138.766 293.895 138.832 293.734 138.965 293.602C139.098 293.469 139.258 293.402 139.445 293.402C139.641 293.402 139.805 293.469 139.938 293.602C140.07 293.734 140.137 293.895 140.137 294.082V299.32C140.137 299.508 140.07 299.668 139.938 299.801ZM140.078 291.938C139.914 292.086 139.703 292.16 139.445 292.16C139.195 292.16 138.988 292.086 138.824 291.938C138.66 291.781 138.578 291.586 138.578 291.352C138.578 291.109 138.66 290.914 138.824 290.766C138.988 290.609 139.195 290.531 139.445 290.531C139.703 290.531 139.914 290.609 140.078 290.766C140.25 290.914 140.336 291.109 140.336 291.352C140.336 291.586 140.25 291.781 140.078 291.938ZM144.484 300.152C143.648 300.152 142.984 299.852 142.492 299.25C142 298.641 141.754 297.793 141.754 296.707C141.754 295.676 142.031 294.84 142.586 294.199C143.148 293.551 143.816 293.227 144.59 293.227C144.926 293.227 145.223 293.285 145.48 293.402C145.746 293.512 146.02 293.684 146.301 293.918C146.309 293.926 146.32 293.93 146.336 293.93C146.352 293.922 146.359 293.906 146.359 293.883L146.301 292.887V291.129C146.301 290.934 146.367 290.77 146.5 290.637C146.641 290.504 146.805 290.438 146.992 290.438C147.188 290.438 147.352 290.504 147.484 290.637C147.617 290.77 147.684 290.934 147.684 291.129V299.438C147.684 299.594 147.629 299.727 147.52 299.836C147.41 299.945 147.277 300 147.121 300C146.957 300 146.812 299.949 146.688 299.848C146.562 299.738 146.488 299.602 146.465 299.438L146.441 299.273C146.441 299.266 146.434 299.262 146.418 299.262C146.402 299.262 146.391 299.266 146.383 299.273C145.805 299.859 145.172 300.152 144.484 300.152ZM144.801 299.016C145.316 299.016 145.797 298.77 146.242 298.277C146.281 298.238 146.301 298.188 146.301 298.125V295.066C146.301 295.012 146.281 294.965 146.242 294.926C145.812 294.566 145.348 294.387 144.848 294.387C144.379 294.387 143.984 294.598 143.664 295.02C143.344 295.434 143.184 295.988 143.184 296.684C143.184 297.434 143.324 298.012 143.605 298.418C143.887 298.816 144.285 299.016 144.801 299.016ZM150.93 299.801C150.797 299.934 150.633 300 150.438 300C150.25 300 150.09 299.934 149.957 299.801C149.824 299.668 149.758 299.508 149.758 299.32V294.082C149.758 293.895 149.824 293.734 149.957 293.602C150.09 293.469 150.25 293.402 150.438 293.402C150.633 293.402 150.797 293.469 150.93 293.602C151.062 293.734 151.129 293.895 151.129 294.082V299.32C151.129 299.508 151.062 299.668 150.93 299.801ZM151.07 291.938C150.906 292.086 150.695 292.16 150.438 292.16C150.188 292.16 149.98 292.086 149.816 291.938C149.652 291.781 149.57 291.586 149.57 291.352C149.57 291.109 149.652 290.914 149.816 290.766C149.98 290.609 150.188 290.531 150.438 290.531C150.695 290.531 150.906 290.609 151.07 290.766C151.242 290.914 151.328 291.109 151.328 291.352C151.328 291.586 151.242 291.781 151.07 291.938ZM155.418 300.152C154.707 300.152 154.195 299.953 153.883 299.555C153.57 299.148 153.414 298.578 153.414 297.844V294.598C153.414 294.535 153.383 294.504 153.32 294.504H152.969C152.82 294.504 152.695 294.453 152.594 294.352C152.5 294.25 152.453 294.129 152.453 293.988C152.453 293.84 152.5 293.715 152.594 293.613C152.695 293.504 152.82 293.445 152.969 293.438L153.379 293.402C153.441 293.402 153.473 293.371 153.473 293.309L153.578 292.16C153.594 291.996 153.66 291.859 153.777 291.75C153.902 291.633 154.047 291.574 154.211 291.574C154.367 291.574 154.5 291.633 154.609 291.75C154.727 291.859 154.785 291.996 154.785 292.16V293.309C154.785 293.371 154.816 293.402 154.879 293.402H155.957C156.105 293.402 156.234 293.457 156.344 293.566C156.453 293.668 156.508 293.797 156.508 293.953C156.508 294.102 156.453 294.23 156.344 294.34C156.234 294.449 156.105 294.504 155.957 294.504H154.879C154.816 294.504 154.785 294.535 154.785 294.598V297.855C154.785 298.254 154.859 298.555 155.008 298.758C155.164 298.953 155.41 299.051 155.746 299.051C155.809 299.051 155.879 299.047 155.957 299.039C155.988 299.031 156.02 299.027 156.051 299.027C156.16 299.027 156.262 299.055 156.355 299.109C156.473 299.172 156.547 299.27 156.578 299.402C156.594 299.449 156.602 299.496 156.602 299.543C156.602 299.637 156.578 299.727 156.531 299.812C156.453 299.945 156.344 300.027 156.203 300.059C155.922 300.121 155.66 300.152 155.418 300.152ZM162.59 293.426C162.754 293.426 162.887 293.496 162.988 293.637C163.043 293.723 163.07 293.812 163.07 293.906C163.07 293.953 163.062 294.008 163.047 294.07L160.844 300.422C160.562 301.195 160.219 301.781 159.812 302.18C159.414 302.586 158.891 302.789 158.242 302.789C158.141 302.789 158.043 302.785 157.949 302.777C157.801 302.762 157.688 302.688 157.609 302.555C157.555 302.461 157.527 302.363 157.527 302.262C157.527 302.215 157.531 302.168 157.539 302.121C157.578 301.98 157.66 301.871 157.785 301.793C157.91 301.723 158.055 301.684 158.219 301.676C158.828 301.645 159.266 301.23 159.531 300.434L159.637 300.07C159.66 300.016 159.66 299.961 159.637 299.906L157.305 294.07C157.281 294.008 157.27 293.949 157.27 293.895C157.27 293.809 157.297 293.723 157.352 293.637C157.445 293.496 157.574 293.426 157.738 293.426H157.773C157.984 293.426 158.172 293.488 158.336 293.613C158.508 293.73 158.629 293.887 158.699 294.082L159.695 296.824C159.742 296.98 159.832 297.27 159.965 297.691C160.098 298.113 160.203 298.438 160.281 298.664C160.289 298.68 160.301 298.688 160.316 298.688C160.34 298.688 160.355 298.676 160.363 298.652L160.867 296.824L161.723 294.07C161.785 293.883 161.895 293.73 162.051 293.613C162.215 293.488 162.395 293.426 162.59 293.426ZM167.969 300C167.781 300 167.617 299.934 167.477 299.801C167.344 299.66 167.277 299.496 167.277 299.309V291.855C167.277 291.668 167.344 291.508 167.477 291.375C167.617 291.234 167.781 291.164 167.969 291.164H169.961C172.203 291.164 173.324 292.055 173.324 293.836C173.324 294.766 173.02 295.469 172.41 295.945C171.809 296.414 171.008 296.648 170.008 296.648H168.766C168.703 296.648 168.672 296.68 168.672 296.742V299.309C168.672 299.496 168.605 299.66 168.473 299.801C168.34 299.934 168.176 300 167.98 300H167.969ZM168.672 295.453C168.672 295.508 168.703 295.535 168.766 295.535H169.879C170.582 295.535 171.105 295.398 171.449 295.125C171.793 294.844 171.965 294.414 171.965 293.836C171.965 293.266 171.789 292.867 171.438 292.641C171.094 292.406 170.555 292.289 169.82 292.289H168.766C168.703 292.289 168.672 292.316 168.672 292.371V295.453ZM178.457 299.918C178.09 300.074 177.699 300.152 177.285 300.152C176.879 300.152 176.488 300.074 176.113 299.918C175.738 299.762 175.406 299.543 175.117 299.262C174.836 298.973 174.609 298.609 174.438 298.172C174.266 297.727 174.18 297.238 174.18 296.707C174.18 296.176 174.266 295.688 174.438 295.242C174.609 294.797 174.836 294.43 175.117 294.141C175.406 293.852 175.738 293.629 176.113 293.473C176.488 293.309 176.879 293.227 177.285 293.227C177.699 293.227 178.09 293.309 178.457 293.473C178.832 293.629 179.164 293.852 179.453 294.141C179.742 294.43 179.973 294.797 180.145 295.242C180.316 295.688 180.402 296.176 180.402 296.707C180.402 297.238 180.316 297.727 180.145 298.172C179.973 298.609 179.742 298.973 179.453 299.262C179.164 299.543 178.832 299.762 178.457 299.918ZM177.285 299.027C177.809 299.027 178.223 298.816 178.527 298.395C178.832 297.973 178.984 297.41 178.984 296.707C178.984 296.004 178.832 295.441 178.527 295.02C178.223 294.59 177.809 294.375 177.285 294.375C176.777 294.375 176.371 294.59 176.066 295.02C175.762 295.441 175.609 296.004 175.609 296.707C175.609 297.41 175.762 297.973 176.066 298.395C176.371 298.816 176.777 299.027 177.285 299.027ZM185.816 299.918C185.449 300.074 185.059 300.152 184.645 300.152C184.238 300.152 183.848 300.074 183.473 299.918C183.098 299.762 182.766 299.543 182.477 299.262C182.195 298.973 181.969 298.609 181.797 298.172C181.625 297.727 181.539 297.238 181.539 296.707C181.539 296.176 181.625 295.688 181.797 295.242C181.969 294.797 182.195 294.43 182.477 294.141C182.766 293.852 183.098 293.629 183.473 293.473C183.848 293.309 184.238 293.227 184.645 293.227C185.059 293.227 185.449 293.309 185.816 293.473C186.191 293.629 186.523 293.852 186.812 294.141C187.102 294.43 187.332 294.797 187.504 295.242C187.676 295.688 187.762 296.176 187.762 296.707C187.762 297.238 187.676 297.727 187.504 298.172C187.332 298.609 187.102 298.973 186.812 299.262C186.523 299.543 186.191 299.762 185.816 299.918ZM184.645 299.027C185.168 299.027 185.582 298.816 185.887 298.395C186.191 297.973 186.344 297.41 186.344 296.707C186.344 296.004 186.191 295.441 185.887 295.02C185.582 294.59 185.168 294.375 184.645 294.375C184.137 294.375 183.73 294.59 183.426 295.02C183.121 295.441 182.969 296.004 182.969 296.707C182.969 297.41 183.121 297.973 183.426 298.395C183.73 298.816 184.137 299.027 184.645 299.027ZM190.738 300.152C190.254 300.152 189.902 300.008 189.684 299.719C189.473 299.43 189.367 299.008 189.367 298.453V291.117C189.367 290.93 189.434 290.77 189.566 290.637C189.699 290.504 189.859 290.438 190.047 290.438C190.242 290.438 190.406 290.504 190.539 290.637C190.672 290.77 190.738 290.93 190.738 291.117V298.523C190.738 298.758 190.801 298.914 190.926 298.992C190.941 299 190.977 299.02 191.031 299.051C191.086 299.082 191.125 299.105 191.148 299.121C191.172 299.137 191.203 299.16 191.242 299.191C191.281 299.215 191.309 299.242 191.324 299.273C191.348 299.305 191.359 299.34 191.359 299.379L191.395 299.531C191.395 299.562 191.395 299.598 191.395 299.637C191.395 299.746 191.363 299.848 191.301 299.941C191.223 300.066 191.109 300.137 190.961 300.152C190.891 300.152 190.816 300.152 190.738 300.152Z" fill="#1E1E1E"/>
<path opacity="0.8" d="M88.2109 330.152C87.2656 330.152 86.4453 329.883 85.75 329.344C85.625 329.25 85.5547 329.121 85.5391 328.957C85.5312 328.941 85.5273 328.922 85.5273 328.898C85.5273 328.766 85.5703 328.645 85.6562 328.535C85.7422 328.418 85.8594 328.352 86.0078 328.336C86.0234 328.336 86.043 328.336 86.0664 328.336C86.1914 328.336 86.3047 328.375 86.4062 328.453C86.9062 328.836 87.4531 329.027 88.0469 329.027C88.5547 329.027 88.9727 328.859 89.3008 328.523C89.6367 328.18 89.8047 327.719 89.8047 327.141C89.8047 326.562 89.6523 326.113 89.3477 325.793C89.043 325.465 88.6328 325.301 88.1172 325.301C87.75 325.301 87.3945 325.398 87.0508 325.594C86.9336 325.656 86.8203 325.688 86.7109 325.688C86.5938 325.688 86.4805 325.652 86.3711 325.582C86.1445 325.434 86.0391 325.223 86.0547 324.949L86.2539 321.855C86.2617 321.66 86.3359 321.496 86.4766 321.363C86.625 321.23 86.7969 321.164 86.9922 321.164H90.1914C90.3477 321.164 90.4844 321.223 90.6016 321.34C90.7188 321.449 90.7773 321.586 90.7773 321.75C90.7773 321.914 90.7188 322.055 90.6016 322.172C90.4844 322.281 90.3477 322.336 90.1914 322.336H87.5781C87.5234 322.336 87.4922 322.363 87.4844 322.418L87.2969 324.516C87.2969 324.531 87.3047 324.547 87.3203 324.562C87.3359 324.57 87.3516 324.57 87.3672 324.562C87.7422 324.383 88.1211 324.293 88.5039 324.293C89.293 324.293 89.9375 324.531 90.4375 325.008C90.9375 325.477 91.1875 326.172 91.1875 327.094C91.1875 327.727 91.0469 328.281 90.7656 328.758C90.4844 329.227 90.1211 329.578 89.6758 329.812C89.2305 330.039 88.7422 330.152 88.2109 330.152ZM94.2695 329.883C94.0977 330.062 93.8789 330.152 93.6133 330.152C93.3555 330.152 93.1367 330.062 92.957 329.883C92.7852 329.703 92.6992 329.477 92.6992 329.203C92.6992 328.922 92.7852 328.688 92.957 328.5C93.1367 328.305 93.3555 328.207 93.6133 328.207C93.8789 328.207 94.0977 328.305 94.2695 328.5C94.4492 328.688 94.5391 328.922 94.5391 329.203C94.5391 329.477 94.4492 329.703 94.2695 329.883ZM98.6289 325.676C99.2305 325.676 99.7773 325.34 100.27 324.668C100.301 324.621 100.312 324.57 100.305 324.516C100.234 323.695 100.047 323.082 99.7422 322.676C99.4375 322.27 99.043 322.066 98.5586 322.066C98.168 322.066 97.8438 322.234 97.5859 322.57C97.3359 322.898 97.2109 323.344 97.2109 323.906C97.2109 324.469 97.332 324.906 97.5742 325.219C97.8242 325.523 98.1758 325.676 98.6289 325.676ZM96.4961 329.59C96.3555 329.488 96.2852 329.352 96.2852 329.18C96.2852 329.031 96.3359 328.902 96.4375 328.793C96.5312 328.684 96.6562 328.625 96.8125 328.617C96.8281 328.617 96.8438 328.617 96.8594 328.617C97 328.617 97.1289 328.656 97.2461 328.734C97.5586 328.93 97.8984 329.027 98.2656 329.027C98.8438 329.027 99.3203 328.766 99.6953 328.242C100.07 327.719 100.285 326.883 100.34 325.734C100.34 325.719 100.332 325.711 100.316 325.711C100.301 325.703 100.289 325.703 100.281 325.711C100.023 326.008 99.7266 326.242 99.3906 326.414C99.0547 326.586 98.7227 326.672 98.3945 326.672C97.6367 326.672 97.0352 326.438 96.5898 325.969C96.1445 325.492 95.9219 324.805 95.9219 323.906C95.9219 323.047 96.1758 322.348 96.6836 321.809C97.1914 321.27 97.8125 321 98.5469 321C99.4453 321 100.18 321.367 100.75 322.102C101.32 322.828 101.605 323.891 101.605 325.289C101.605 326.125 101.516 326.863 101.336 327.504C101.156 328.145 100.91 328.656 100.598 329.039C100.285 329.414 99.9375 329.695 99.5547 329.883C99.1719 330.062 98.7617 330.152 98.3242 330.152C97.6289 330.152 97.0195 329.965 96.4961 329.59ZM106.234 325.852C105.859 326.344 105.359 326.59 104.734 326.59C104.109 326.59 103.609 326.344 103.234 325.852C102.859 325.352 102.672 324.664 102.672 323.789C102.672 322.914 102.859 322.23 103.234 321.738C103.609 321.246 104.109 321 104.734 321C105.359 321 105.859 321.246 106.234 321.738C106.617 322.23 106.809 322.914 106.809 323.789C106.809 324.664 106.617 325.352 106.234 325.852ZM104.734 325.781C105.062 325.781 105.32 325.613 105.508 325.277C105.703 324.934 105.801 324.438 105.801 323.789C105.801 323.125 105.703 322.633 105.508 322.312C105.32 321.984 105.062 321.82 104.734 321.82C104.414 321.82 104.156 321.984 103.961 322.312C103.773 322.633 103.68 323.125 103.68 323.789C103.68 324.438 103.773 324.934 103.961 325.277C104.156 325.613 104.414 325.781 104.734 325.781ZM105.438 330.152C105.344 330.152 105.27 330.113 105.215 330.035C105.191 329.988 105.18 329.941 105.18 329.895C105.18 329.855 105.191 329.816 105.215 329.777L109.645 321.387C109.777 321.129 109.992 321 110.289 321C110.383 321 110.453 321.043 110.5 321.129C110.555 321.215 110.559 321.301 110.512 321.387L106.082 329.777C105.941 330.027 105.727 330.152 105.438 330.152ZM111.016 330.152C110.383 330.152 109.875 329.906 109.492 329.414C109.117 328.922 108.93 328.238 108.93 327.363C108.93 326.488 109.117 325.805 109.492 325.312C109.875 324.82 110.383 324.574 111.016 324.574C111.633 324.574 112.129 324.82 112.504 325.312C112.887 325.805 113.078 326.488 113.078 327.363C113.078 328.238 112.887 328.922 112.504 329.414C112.129 329.906 111.633 330.152 111.016 330.152ZM111.016 329.355C111.328 329.355 111.582 329.188 111.777 328.852C111.973 328.508 112.07 328.012 112.07 327.363C112.07 326.707 111.973 326.215 111.777 325.887C111.59 325.559 111.336 325.395 111.016 325.395C110.688 325.395 110.426 325.559 110.23 325.887C110.035 326.207 109.938 326.699 109.938 327.363C109.938 328.02 110.035 328.516 110.23 328.852C110.426 329.188 110.688 329.355 111.016 329.355ZM120.801 330.152C119.66 330.152 118.719 329.75 117.977 328.945C117.242 328.133 116.875 327.02 116.875 325.605C116.875 324.902 116.977 324.262 117.18 323.684C117.391 323.098 117.676 322.609 118.035 322.219C118.395 321.828 118.816 321.527 119.301 321.316C119.785 321.105 120.305 321 120.859 321C121.633 321 122.328 321.242 122.945 321.727C123.078 321.828 123.145 321.969 123.145 322.148C123.145 322.305 123.094 322.441 122.992 322.559C122.891 322.676 122.762 322.738 122.605 322.746C122.59 322.746 122.574 322.746 122.559 322.746C122.418 322.746 122.289 322.707 122.172 322.629C121.781 322.348 121.352 322.207 120.883 322.207C120.117 322.207 119.496 322.512 119.02 323.121C118.543 323.723 118.305 324.535 118.305 325.559C118.305 326.605 118.531 327.434 118.984 328.043C119.445 328.645 120.066 328.945 120.848 328.945C121.418 328.945 121.93 328.762 122.383 328.395C122.5 328.309 122.629 328.266 122.77 328.266C122.777 328.266 122.789 328.266 122.805 328.266C122.953 328.273 123.078 328.332 123.18 328.441C123.281 328.566 123.332 328.707 123.332 328.863C123.332 329.035 123.27 329.18 123.145 329.297C122.488 329.867 121.707 330.152 120.801 330.152ZM127.738 330.152C126.809 330.152 126.039 329.844 125.43 329.227C124.82 328.609 124.516 327.77 124.516 326.707C124.516 326.191 124.598 325.711 124.762 325.266C124.934 324.82 125.16 324.453 125.441 324.164C125.723 323.867 126.043 323.637 126.402 323.473C126.762 323.309 127.137 323.227 127.527 323.227C128.387 323.227 129.051 323.512 129.52 324.082C129.988 324.645 130.223 325.406 130.223 326.367C130.223 326.367 130.223 326.371 130.223 326.379C130.215 326.566 130.137 326.727 129.988 326.859C129.84 326.992 129.664 327.059 129.461 327.059H125.957C125.902 327.059 125.879 327.09 125.887 327.152C125.949 327.754 126.16 328.227 126.52 328.57C126.887 328.906 127.352 329.074 127.914 329.074C128.305 329.074 128.684 328.992 129.051 328.828C129.129 328.789 129.207 328.77 129.285 328.77C129.332 328.77 129.379 328.777 129.426 328.793C129.559 328.832 129.66 328.91 129.73 329.027C129.77 329.105 129.789 329.188 129.789 329.273C129.789 329.32 129.785 329.367 129.777 329.414C129.738 329.547 129.656 329.645 129.531 329.707C128.961 330.004 128.363 330.152 127.738 330.152ZM125.875 326.039C125.875 326.086 125.898 326.109 125.945 326.109H128.945C129 326.109 129.027 326.082 129.027 326.027C129.012 325.48 128.879 325.059 128.629 324.762C128.379 324.465 128.02 324.316 127.551 324.316C127.137 324.316 126.773 324.465 126.461 324.762C126.07 325.145 125.875 325.57 125.875 326.039ZM131.441 330C131.293 330 131.184 329.934 131.113 329.801C131.074 329.738 131.055 329.676 131.055 329.613C131.055 329.543 131.074 329.477 131.113 329.414L132.848 326.625C132.879 326.578 132.879 326.531 132.848 326.484L131.277 323.988C131.238 323.918 131.219 323.852 131.219 323.789C131.219 323.727 131.234 323.664 131.266 323.602C131.336 323.469 131.449 323.402 131.605 323.402H131.711C131.922 323.402 132.121 323.457 132.309 323.566C132.496 323.668 132.645 323.812 132.754 324L133.188 324.727C133.32 324.969 133.523 325.332 133.797 325.816C133.805 325.832 133.816 325.84 133.832 325.84C133.855 325.84 133.867 325.832 133.867 325.816C133.922 325.707 133.98 325.594 134.043 325.477C134.105 325.352 134.172 325.219 134.242 325.078C134.32 324.93 134.379 324.812 134.418 324.727L134.793 324.012C134.887 323.824 135.023 323.676 135.203 323.566C135.391 323.457 135.59 323.402 135.801 323.402H135.859C136.008 323.402 136.121 323.469 136.199 323.602C136.238 323.664 136.258 323.727 136.258 323.789C136.258 323.859 136.238 323.926 136.199 323.988L134.617 326.637C134.586 326.684 134.586 326.734 134.617 326.789L136.316 329.414C136.363 329.484 136.387 329.555 136.387 329.625C136.387 329.68 136.367 329.738 136.328 329.801C136.258 329.934 136.148 330 136 330H135.883C135.672 330 135.473 329.949 135.285 329.848C135.098 329.738 134.945 329.594 134.828 329.414L134.336 328.605C134.07 328.121 133.848 327.738 133.668 327.457C133.652 327.441 133.633 327.434 133.609 327.434C133.594 327.434 133.582 327.441 133.574 327.457C133.395 327.785 133.195 328.168 132.977 328.605L132.543 329.391C132.441 329.578 132.297 329.727 132.109 329.836C131.922 329.945 131.723 330 131.512 330H131.441ZM141.426 330C141.238 330 141.074 329.934 140.934 329.801C140.801 329.66 140.734 329.496 140.734 329.309V321.855C140.734 321.668 140.801 321.508 140.934 321.375C141.074 321.234 141.238 321.164 141.426 321.164H141.438C141.633 321.164 141.797 321.234 141.93 321.375C142.062 321.508 142.129 321.668 142.129 321.855V328.734C142.129 328.797 142.16 328.828 142.223 328.828H145.27C145.434 328.828 145.574 328.887 145.691 329.004C145.809 329.113 145.867 329.25 145.867 329.414C145.867 329.578 145.809 329.719 145.691 329.836C145.574 329.945 145.434 330 145.27 330H141.426ZM148.469 329.801C148.336 329.934 148.172 330 147.977 330C147.789 330 147.629 329.934 147.496 329.801C147.363 329.668 147.297 329.508 147.297 329.32V324.082C147.297 323.895 147.363 323.734 147.496 323.602C147.629 323.469 147.789 323.402 147.977 323.402C148.172 323.402 148.336 323.469 148.469 323.602C148.602 323.734 148.668 323.895 148.668 324.082V329.32C148.668 329.508 148.602 329.668 148.469 329.801ZM148.609 321.938C148.445 322.086 148.234 322.16 147.977 322.16C147.727 322.16 147.52 322.086 147.355 321.938C147.191 321.781 147.109 321.586 147.109 321.352C147.109 321.109 147.191 320.914 147.355 320.766C147.52 320.609 147.727 320.531 147.977 320.531C148.234 320.531 148.445 320.609 148.609 320.766C148.781 320.914 148.867 321.109 148.867 321.352C148.867 321.586 148.781 321.781 148.609 321.938ZM152.523 330.152C151.812 330.152 151.133 329.957 150.484 329.566C150.352 329.488 150.273 329.371 150.25 329.215C150.25 329.184 150.25 329.152 150.25 329.121C150.25 329.004 150.285 328.898 150.355 328.805C150.449 328.68 150.57 328.605 150.719 328.582C150.75 328.582 150.781 328.582 150.812 328.582C150.93 328.582 151.035 328.613 151.129 328.676C151.598 328.965 152.074 329.109 152.559 329.109C152.934 329.109 153.219 329.027 153.414 328.863C153.617 328.699 153.719 328.484 153.719 328.219C153.719 328.125 153.703 328.039 153.672 327.961C153.641 327.875 153.578 327.797 153.484 327.727C153.398 327.648 153.324 327.586 153.262 327.539C153.207 327.492 153.102 327.434 152.945 327.363C152.789 327.293 152.68 327.246 152.617 327.223C152.562 327.199 152.441 327.152 152.254 327.082C151.988 326.98 151.762 326.883 151.574 326.789C151.395 326.695 151.199 326.574 150.988 326.426C150.785 326.27 150.629 326.086 150.52 325.875C150.418 325.664 150.367 325.426 150.367 325.16C150.367 324.598 150.578 324.137 151 323.777C151.43 323.41 152 323.227 152.711 323.227C153.305 323.227 153.875 323.387 154.422 323.707C154.547 323.785 154.621 323.898 154.645 324.047C154.645 324.07 154.645 324.098 154.645 324.129C154.645 324.238 154.609 324.34 154.539 324.434C154.445 324.551 154.324 324.621 154.176 324.645C154.145 324.652 154.109 324.656 154.07 324.656C153.961 324.656 153.859 324.629 153.766 324.574C153.414 324.387 153.07 324.293 152.734 324.293C152.391 324.293 152.129 324.367 151.949 324.516C151.77 324.664 151.68 324.859 151.68 325.102C151.68 325.203 151.703 325.301 151.75 325.395C151.805 325.48 151.863 325.555 151.926 325.617C151.996 325.672 152.098 325.734 152.23 325.805C152.363 325.867 152.473 325.918 152.559 325.957C152.652 325.988 152.789 326.039 152.969 326.109C153.016 326.125 153.055 326.137 153.086 326.145C153.32 326.238 153.508 326.316 153.648 326.379C153.789 326.434 153.957 326.523 154.152 326.648C154.355 326.766 154.512 326.887 154.621 327.012C154.73 327.137 154.824 327.301 154.902 327.504C154.988 327.699 155.031 327.914 155.031 328.148C155.031 328.727 154.809 329.207 154.363 329.59C153.918 329.965 153.305 330.152 152.523 330.152ZM158.711 330.152C158 330.152 157.488 329.953 157.176 329.555C156.863 329.148 156.707 328.578 156.707 327.844V324.598C156.707 324.535 156.676 324.504 156.613 324.504H156.262C156.113 324.504 155.988 324.453 155.887 324.352C155.793 324.25 155.746 324.129 155.746 323.988C155.746 323.84 155.793 323.715 155.887 323.613C155.988 323.504 156.113 323.445 156.262 323.438L156.672 323.402C156.734 323.402 156.766 323.371 156.766 323.309L156.871 322.16C156.887 321.996 156.953 321.859 157.07 321.75C157.195 321.633 157.34 321.574 157.504 321.574C157.66 321.574 157.793 321.633 157.902 321.75C158.02 321.859 158.078 321.996 158.078 322.16V323.309C158.078 323.371 158.109 323.402 158.172 323.402H159.25C159.398 323.402 159.527 323.457 159.637 323.566C159.746 323.668 159.801 323.797 159.801 323.953C159.801 324.102 159.746 324.23 159.637 324.34C159.527 324.449 159.398 324.504 159.25 324.504H158.172C158.109 324.504 158.078 324.535 158.078 324.598V327.855C158.078 328.254 158.152 328.555 158.301 328.758C158.457 328.953 158.703 329.051 159.039 329.051C159.102 329.051 159.172 329.047 159.25 329.039C159.281 329.031 159.312 329.027 159.344 329.027C159.453 329.027 159.555 329.055 159.648 329.109C159.766 329.172 159.84 329.27 159.871 329.402C159.887 329.449 159.895 329.496 159.895 329.543C159.895 329.637 159.871 329.727 159.824 329.812C159.746 329.945 159.637 330.027 159.496 330.059C159.215 330.121 158.953 330.152 158.711 330.152ZM162.402 329.801C162.27 329.934 162.105 330 161.91 330C161.723 330 161.562 329.934 161.43 329.801C161.297 329.668 161.23 329.508 161.23 329.32V324.082C161.23 323.895 161.297 323.734 161.43 323.602C161.562 323.469 161.723 323.402 161.91 323.402C162.105 323.402 162.27 323.469 162.402 323.602C162.535 323.734 162.602 323.895 162.602 324.082V329.32C162.602 329.508 162.535 329.668 162.402 329.801ZM162.543 321.938C162.379 322.086 162.168 322.16 161.91 322.16C161.66 322.16 161.453 322.086 161.289 321.938C161.125 321.781 161.043 321.586 161.043 321.352C161.043 321.109 161.125 320.914 161.289 320.766C161.453 320.609 161.66 320.531 161.91 320.531C162.168 320.531 162.379 320.609 162.543 320.766C162.715 320.914 162.801 321.109 162.801 321.352C162.801 321.586 162.715 321.781 162.543 321.938ZM165.836 329.801C165.703 329.934 165.539 330 165.344 330C165.156 330 164.996 329.934 164.863 329.801C164.73 329.668 164.664 329.508 164.664 329.32V323.965C164.664 323.809 164.719 323.676 164.828 323.566C164.938 323.457 165.07 323.402 165.227 323.402C165.391 323.402 165.531 323.457 165.648 323.566C165.773 323.668 165.844 323.801 165.859 323.965L165.895 324.293C165.902 324.309 165.91 324.316 165.918 324.316C165.934 324.316 165.945 324.312 165.953 324.305C166.305 323.961 166.648 323.695 166.984 323.508C167.328 323.32 167.707 323.227 168.121 323.227C169.473 323.227 170.148 324.102 170.148 325.852V329.309C170.148 329.504 170.082 329.668 169.949 329.801C169.816 329.934 169.652 330 169.457 330C169.27 330 169.105 329.934 168.965 329.801C168.832 329.668 168.766 329.504 168.766 329.309V326.016C168.766 325.445 168.676 325.039 168.496 324.797C168.324 324.547 168.043 324.422 167.652 324.422C167.371 324.422 167.117 324.488 166.891 324.621C166.664 324.746 166.398 324.957 166.094 325.254C166.055 325.301 166.035 325.352 166.035 325.406V329.32C166.035 329.508 165.969 329.668 165.836 329.801ZM174.402 333C173.582 333 172.918 332.848 172.41 332.543C171.91 332.246 171.66 331.816 171.66 331.254C171.66 330.988 171.742 330.73 171.906 330.48C172.07 330.238 172.301 330.023 172.598 329.836C172.613 329.828 172.621 329.816 172.621 329.801C172.621 329.777 172.613 329.758 172.598 329.742C172.215 329.5 172.023 329.141 172.023 328.664C172.023 328.219 172.262 327.816 172.738 327.457C172.746 327.449 172.75 327.438 172.75 327.422C172.75 327.406 172.746 327.395 172.738 327.387C172.496 327.191 172.293 326.941 172.129 326.637C171.973 326.332 171.895 326 171.895 325.641C171.895 324.922 172.141 324.348 172.633 323.918C173.125 323.488 173.73 323.273 174.449 323.273C174.754 323.273 175.047 323.316 175.328 323.402C175.383 323.426 175.438 323.438 175.492 323.438H177.227C177.375 323.438 177.496 323.488 177.59 323.59C177.691 323.691 177.742 323.812 177.742 323.953C177.742 324.094 177.691 324.215 177.59 324.316C177.496 324.418 177.375 324.469 177.227 324.469H176.57C176.555 324.469 176.543 324.477 176.535 324.492C176.527 324.508 176.531 324.52 176.547 324.527C176.797 324.832 176.922 325.215 176.922 325.676C176.922 326.379 176.688 326.934 176.219 327.34C175.75 327.746 175.16 327.949 174.449 327.949C174.16 327.949 173.879 327.891 173.605 327.773C173.551 327.758 173.5 327.77 173.453 327.809C173.258 327.996 173.16 328.207 173.16 328.441C173.16 328.652 173.242 328.812 173.406 328.922C173.578 329.031 173.863 329.086 174.262 329.086H175.48C176.27 329.086 176.863 329.215 177.262 329.473C177.66 329.73 177.859 330.137 177.859 330.691C177.859 331.348 177.539 331.895 176.898 332.332C176.266 332.777 175.434 333 174.402 333ZM173.559 326.672C173.801 326.93 174.098 327.059 174.449 327.059C174.801 327.059 175.094 326.93 175.328 326.672C175.57 326.414 175.691 326.07 175.691 325.641C175.691 325.211 175.574 324.871 175.34 324.621C175.105 324.363 174.809 324.234 174.449 324.234C174.09 324.234 173.789 324.359 173.547 324.609C173.312 324.859 173.195 325.203 173.195 325.641C173.195 326.07 173.316 326.414 173.559 326.672ZM174.602 332.086C175.164 332.086 175.625 331.969 175.984 331.734C176.344 331.5 176.523 331.227 176.523 330.914C176.523 330.648 176.422 330.461 176.219 330.352C176.016 330.242 175.703 330.188 175.281 330.188H174.285C174.02 330.188 173.754 330.164 173.488 330.117C173.473 330.109 173.457 330.105 173.441 330.105C173.402 330.105 173.367 330.121 173.336 330.152C173 330.41 172.832 330.711 172.832 331.055C172.832 331.375 172.988 331.625 173.301 331.805C173.621 331.992 174.055 332.086 174.602 332.086ZM180.859 330.152C180.148 330.152 179.469 329.957 178.82 329.566C178.688 329.488 178.609 329.371 178.586 329.215C178.586 329.184 178.586 329.152 178.586 329.121C178.586 329.004 178.621 328.898 178.691 328.805C178.785 328.68 178.906 328.605 179.055 328.582C179.086 328.582 179.117 328.582 179.148 328.582C179.266 328.582 179.371 328.613 179.465 328.676C179.934 328.965 180.41 329.109 180.895 329.109C181.27 329.109 181.555 329.027 181.75 328.863C181.953 328.699 182.055 328.484 182.055 328.219C182.055 328.125 182.039 328.039 182.008 327.961C181.977 327.875 181.914 327.797 181.82 327.727C181.734 327.648 181.66 327.586 181.598 327.539C181.543 327.492 181.438 327.434 181.281 327.363C181.125 327.293 181.016 327.246 180.953 327.223C180.898 327.199 180.777 327.152 180.59 327.082C180.324 326.98 180.098 326.883 179.91 326.789C179.73 326.695 179.535 326.574 179.324 326.426C179.121 326.27 178.965 326.086 178.855 325.875C178.754 325.664 178.703 325.426 178.703 325.16C178.703 324.598 178.914 324.137 179.336 323.777C179.766 323.41 180.336 323.227 181.047 323.227C181.641 323.227 182.211 323.387 182.758 323.707C182.883 323.785 182.957 323.898 182.98 324.047C182.98 324.07 182.98 324.098 182.98 324.129C182.98 324.238 182.945 324.34 182.875 324.434C182.781 324.551 182.66 324.621 182.512 324.645C182.48 324.652 182.445 324.656 182.406 324.656C182.297 324.656 182.195 324.629 182.102 324.574C181.75 324.387 181.406 324.293 181.07 324.293C180.727 324.293 180.465 324.367 180.285 324.516C180.105 324.664 180.016 324.859 180.016 325.102C180.016 325.203 180.039 325.301 180.086 325.395C180.141 325.48 180.199 325.555 180.262 325.617C180.332 325.672 180.434 325.734 180.566 325.805C180.699 325.867 180.809 325.918 180.895 325.957C180.988 325.988 181.125 326.039 181.305 326.109C181.352 326.125 181.391 326.137 181.422 326.145C181.656 326.238 181.844 326.316 181.984 326.379C182.125 326.434 182.293 326.523 182.488 326.648C182.691 326.766 182.848 326.887 182.957 327.012C183.066 327.137 183.16 327.301 183.238 327.504C183.324 327.699 183.367 327.914 183.367 328.148C183.367 328.727 183.145 329.207 182.699 329.59C182.254 329.965 181.641 330.152 180.859 330.152Z" fill="#1E1E1E"/>
<path opacity="0.8" d="M234.676 296.484C234.668 296.5 234.668 296.516 234.676 296.531C234.684 296.547 234.699 296.555 234.723 296.555H236.973C237.027 296.555 237.055 296.527 237.055 296.473V294.234C237.055 294.047 237.078 293.488 237.125 292.559C237.125 292.543 237.117 292.535 237.102 292.535C237.086 292.535 237.074 292.543 237.066 292.559C236.871 292.965 236.641 293.41 236.375 293.895L234.676 296.484ZM238.941 296.555C239.09 296.555 239.215 296.609 239.316 296.719C239.426 296.82 239.48 296.945 239.48 297.094C239.48 297.242 239.426 297.367 239.316 297.469C239.215 297.57 239.09 297.621 238.941 297.621H238.438C238.383 297.621 238.355 297.652 238.355 297.715V299.355C238.355 299.535 238.289 299.688 238.156 299.812C238.031 299.938 237.879 300 237.699 300C237.527 300 237.375 299.938 237.242 299.812C237.117 299.688 237.055 299.535 237.055 299.355V297.715C237.055 297.652 237.027 297.621 236.973 297.621H233.703C233.578 297.621 233.469 297.578 233.375 297.492C233.281 297.398 233.234 297.289 233.234 297.164C233.234 296.852 233.32 296.566 233.492 296.309L236.387 291.75C236.504 291.57 236.656 291.43 236.844 291.328C237.031 291.219 237.234 291.164 237.453 291.164H237.664C237.852 291.164 238.012 291.234 238.145 291.375C238.285 291.508 238.355 291.668 238.355 291.855V296.473C238.355 296.527 238.383 296.555 238.438 296.555H238.941ZM241.508 296.484C241.5 296.5 241.5 296.516 241.508 296.531C241.516 296.547 241.531 296.555 241.555 296.555H243.805C243.859 296.555 243.887 296.527 243.887 296.473V294.234C243.887 294.047 243.91 293.488 243.957 292.559C243.957 292.543 243.949 292.535 243.934 292.535C243.918 292.535 243.906 292.543 243.898 292.559C243.703 292.965 243.473 293.41 243.207 293.895L241.508 296.484ZM245.773 296.555C245.922 296.555 246.047 296.609 246.148 296.719C246.258 296.82 246.312 296.945 246.312 297.094C246.312 297.242 246.258 297.367 246.148 297.469C246.047 297.57 245.922 297.621 245.773 297.621H245.27C245.215 297.621 245.188 297.652 245.188 297.715V299.355C245.188 299.535 245.121 299.688 244.988 299.812C244.863 299.938 244.711 300 244.531 300C244.359 300 244.207 299.938 244.074 299.812C243.949 299.688 243.887 299.535 243.887 299.355V297.715C243.887 297.652 243.859 297.621 243.805 297.621H240.535C240.41 297.621 240.301 297.578 240.207 297.492C240.113 297.398 240.066 297.289 240.066 297.164C240.066 296.852 240.152 296.566 240.324 296.309L243.219 291.75C243.336 291.57 243.488 291.43 243.676 291.328C243.863 291.219 244.066 291.164 244.285 291.164H244.496C244.684 291.164 244.844 291.234 244.977 291.375C245.117 291.508 245.188 291.668 245.188 291.855V296.473C245.188 296.527 245.215 296.555 245.27 296.555H245.773ZM249.102 299.883C248.93 300.062 248.711 300.152 248.445 300.152C248.188 300.152 247.969 300.062 247.789 299.883C247.617 299.703 247.531 299.477 247.531 299.203C247.531 298.922 247.617 298.688 247.789 298.5C247.969 298.305 248.188 298.207 248.445 298.207C248.711 298.207 248.93 298.305 249.102 298.5C249.281 298.688 249.371 298.922 249.371 299.203C249.371 299.477 249.281 299.703 249.102 299.883ZM251.844 300C251.688 300 251.551 299.945 251.434 299.836C251.324 299.727 251.27 299.594 251.27 299.438C251.27 299.273 251.324 299.137 251.434 299.027C251.551 298.918 251.688 298.863 251.844 298.863H253.109C253.172 298.863 253.203 298.832 253.203 298.77V292.805C253.203 292.742 253.172 292.711 253.109 292.711H252.055C251.938 292.711 251.836 292.672 251.75 292.594C251.664 292.508 251.621 292.402 251.621 292.277C251.621 292.152 251.66 292.043 251.738 291.949C251.816 291.848 251.918 291.781 252.043 291.75C252.441 291.656 252.785 291.543 253.074 291.41C253.441 291.246 253.77 291.164 254.059 291.164C254.207 291.164 254.332 291.215 254.434 291.316C254.535 291.418 254.586 291.543 254.586 291.691V298.77C254.586 298.832 254.613 298.863 254.668 298.863H255.746C255.902 298.863 256.035 298.918 256.145 299.027C256.254 299.137 256.309 299.273 256.309 299.438C256.309 299.594 256.254 299.727 256.145 299.836C256.035 299.945 255.902 300 255.746 300H251.844ZM261.066 295.852C260.691 296.344 260.191 296.59 259.566 296.59C258.941 296.59 258.441 296.344 258.066 295.852C257.691 295.352 257.504 294.664 257.504 293.789C257.504 292.914 257.691 292.23 258.066 291.738C258.441 291.246 258.941 291 259.566 291C260.191 291 260.691 291.246 261.066 291.738C261.449 292.23 261.641 292.914 261.641 293.789C261.641 294.664 261.449 295.352 261.066 295.852ZM259.566 295.781C259.895 295.781 260.152 295.613 260.34 295.277C260.535 294.934 260.633 294.438 260.633 293.789C260.633 293.125 260.535 292.633 260.34 292.312C260.152 291.984 259.895 291.82 259.566 291.82C259.246 291.82 258.988 291.984 258.793 292.312C258.605 292.633 258.512 293.125 258.512 293.789C258.512 294.438 258.605 294.934 258.793 295.277C258.988 295.613 259.246 295.781 259.566 295.781ZM260.27 300.152C260.176 300.152 260.102 300.113 260.047 300.035C260.023 299.988 260.012 299.941 260.012 299.895C260.012 299.855 260.023 299.816 260.047 299.777L264.477 291.387C264.609 291.129 264.824 291 265.121 291C265.215 291 265.285 291.043 265.332 291.129C265.387 291.215 265.391 291.301 265.344 291.387L260.914 299.777C260.773 300.027 260.559 300.152 260.27 300.152ZM265.848 300.152C265.215 300.152 264.707 299.906 264.324 299.414C263.949 298.922 263.762 298.238 263.762 297.363C263.762 296.488 263.949 295.805 264.324 295.312C264.707 294.82 265.215 294.574 265.848 294.574C266.465 294.574 266.961 294.82 267.336 295.312C267.719 295.805 267.91 296.488 267.91 297.363C267.91 298.238 267.719 298.922 267.336 299.414C266.961 299.906 266.465 300.152 265.848 300.152ZM265.848 299.355C266.16 299.355 266.414 299.188 266.609 298.852C266.805 298.508 266.902 298.012 266.902 297.363C266.902 296.707 266.805 296.215 266.609 295.887C266.422 295.559 266.168 295.395 265.848 295.395C265.52 295.395 265.258 295.559 265.062 295.887C264.867 296.207 264.77 296.699 264.77 297.363C264.77 298.02 264.867 298.516 265.062 298.852C265.258 299.188 265.52 299.355 265.848 299.355ZM273.547 296.309C273.539 296.324 273.543 296.344 273.559 296.367C273.574 296.383 273.59 296.391 273.605 296.391H275.844C275.867 296.391 275.883 296.383 275.891 296.367C275.906 296.344 275.914 296.324 275.914 296.309L275.586 295.195C275.438 294.719 275.16 293.75 274.754 292.289C274.746 292.273 274.734 292.266 274.719 292.266C274.703 292.266 274.695 292.273 274.695 292.289C274.477 293.156 274.207 294.125 273.887 295.195L273.547 296.309ZM277.707 300C277.504 300 277.32 299.941 277.156 299.824C276.992 299.699 276.879 299.535 276.816 299.332L276.301 297.562C276.277 297.508 276.238 297.48 276.184 297.48H273.289C273.227 297.48 273.188 297.508 273.172 297.562L272.645 299.332C272.582 299.535 272.469 299.699 272.305 299.824C272.141 299.941 271.957 300 271.754 300H271.719C271.547 300 271.41 299.93 271.309 299.789C271.246 299.703 271.215 299.609 271.215 299.508C271.215 299.453 271.227 299.398 271.25 299.344L273.734 291.82C273.805 291.625 273.922 291.469 274.086 291.352C274.25 291.227 274.438 291.164 274.648 291.164H274.871C275.074 291.164 275.258 291.227 275.422 291.352C275.594 291.469 275.715 291.625 275.785 291.82L278.27 299.344C278.293 299.398 278.305 299.453 278.305 299.508C278.305 299.609 278.27 299.703 278.199 299.789C278.105 299.93 277.973 300 277.801 300H277.707ZM280.695 299.801C280.562 299.934 280.398 300 280.203 300C280.016 300 279.855 299.934 279.723 299.801C279.59 299.668 279.523 299.508 279.523 299.32V294.082C279.523 293.895 279.59 293.734 279.723 293.602C279.855 293.469 280.016 293.402 280.203 293.402C280.398 293.402 280.562 293.469 280.695 293.602C280.828 293.734 280.895 293.895 280.895 294.082V299.32C280.895 299.508 280.828 299.668 280.695 299.801ZM280.836 291.938C280.672 292.086 280.461 292.16 280.203 292.16C279.953 292.16 279.746 292.086 279.582 291.938C279.418 291.781 279.336 291.586 279.336 291.352C279.336 291.109 279.418 290.914 279.582 290.766C279.746 290.609 279.953 290.531 280.203 290.531C280.461 290.531 280.672 290.609 280.836 290.766C281.008 290.914 281.094 291.109 281.094 291.352C281.094 291.586 281.008 291.781 280.836 291.938ZM284.129 299.801C283.996 299.934 283.832 300 283.637 300C283.449 300 283.289 299.934 283.156 299.801C283.023 299.668 282.957 299.508 282.957 299.32V293.965C282.957 293.809 283.012 293.676 283.121 293.566C283.23 293.457 283.363 293.402 283.52 293.402C283.684 293.402 283.824 293.457 283.941 293.566C284.059 293.668 284.125 293.801 284.141 293.965L284.188 294.574C284.195 294.582 284.203 294.586 284.211 294.586C284.227 294.586 284.234 294.582 284.234 294.574C284.469 294.152 284.75 293.824 285.078 293.59C285.406 293.348 285.746 293.227 286.098 293.227C286.152 293.227 286.203 293.23 286.25 293.238C286.422 293.246 286.555 293.324 286.648 293.473C286.711 293.582 286.742 293.699 286.742 293.824C286.742 293.871 286.734 293.922 286.719 293.977C286.688 294.133 286.602 294.254 286.461 294.34C286.328 294.426 286.18 294.469 286.016 294.469C286.008 294.469 286 294.469 285.992 294.469C285.977 294.469 285.957 294.469 285.934 294.469C285.645 294.469 285.359 294.578 285.078 294.797C284.797 295.008 284.559 295.344 284.363 295.805C284.34 295.859 284.328 295.914 284.328 295.969V299.32C284.328 299.508 284.262 299.668 284.129 299.801ZM290.023 300.152C289.188 300.152 288.523 299.852 288.031 299.25C287.539 298.641 287.293 297.793 287.293 296.707C287.293 295.676 287.57 294.84 288.125 294.199C288.688 293.551 289.355 293.227 290.129 293.227C290.465 293.227 290.762 293.285 291.02 293.402C291.285 293.512 291.559 293.684 291.84 293.918C291.848 293.926 291.859 293.93 291.875 293.93C291.891 293.922 291.898 293.906 291.898 293.883L291.84 292.887V291.129C291.84 290.934 291.906 290.77 292.039 290.637C292.18 290.504 292.344 290.438 292.531 290.438C292.727 290.438 292.891 290.504 293.023 290.637C293.156 290.77 293.223 290.934 293.223 291.129V299.438C293.223 299.594 293.168 299.727 293.059 299.836C292.949 299.945 292.816 300 292.66 300C292.496 300 292.352 299.949 292.227 299.848C292.102 299.738 292.027 299.602 292.004 299.438L291.98 299.273C291.98 299.266 291.973 299.262 291.957 299.262C291.941 299.262 291.93 299.266 291.922 299.273C291.344 299.859 290.711 300.152 290.023 300.152ZM290.34 299.016C290.855 299.016 291.336 298.77 291.781 298.277C291.82 298.238 291.84 298.188 291.84 298.125V295.066C291.84 295.012 291.82 294.965 291.781 294.926C291.352 294.566 290.887 294.387 290.387 294.387C289.918 294.387 289.523 294.598 289.203 295.02C288.883 295.434 288.723 295.988 288.723 296.684C288.723 297.434 288.863 298.012 289.145 298.418C289.426 298.816 289.824 299.016 290.34 299.016ZM296.469 299.801C296.336 299.934 296.172 300 295.977 300C295.789 300 295.629 299.934 295.496 299.801C295.363 299.668 295.297 299.508 295.297 299.32V293.965C295.297 293.809 295.352 293.676 295.461 293.566C295.57 293.457 295.703 293.402 295.859 293.402C296.023 293.402 296.164 293.457 296.281 293.566C296.398 293.668 296.465 293.801 296.48 293.965L296.527 294.574C296.535 294.582 296.543 294.586 296.551 294.586C296.566 294.586 296.574 294.582 296.574 294.574C296.809 294.152 297.09 293.824 297.418 293.59C297.746 293.348 298.086 293.227 298.438 293.227C298.492 293.227 298.543 293.23 298.59 293.238C298.762 293.246 298.895 293.324 298.988 293.473C299.051 293.582 299.082 293.699 299.082 293.824C299.082 293.871 299.074 293.922 299.059 293.977C299.027 294.133 298.941 294.254 298.801 294.34C298.668 294.426 298.52 294.469 298.355 294.469C298.348 294.469 298.34 294.469 298.332 294.469C298.316 294.469 298.297 294.469 298.273 294.469C297.984 294.469 297.699 294.578 297.418 294.797C297.137 295.008 296.898 295.344 296.703 295.805C296.68 295.859 296.668 295.914 296.668 295.969V299.32C296.668 299.508 296.602 299.668 296.469 299.801ZM303.887 299.918C303.52 300.074 303.129 300.152 302.715 300.152C302.309 300.152 301.918 300.074 301.543 299.918C301.168 299.762 300.836 299.543 300.547 299.262C300.266 298.973 300.039 298.609 299.867 298.172C299.695 297.727 299.609 297.238 299.609 296.707C299.609 296.176 299.695 295.688 299.867 295.242C300.039 294.797 300.266 294.43 300.547 294.141C300.836 293.852 301.168 293.629 301.543 293.473C301.918 293.309 302.309 293.227 302.715 293.227C303.129 293.227 303.52 293.309 303.887 293.473C304.262 293.629 304.594 293.852 304.883 294.141C305.172 294.43 305.402 294.797 305.574 295.242C305.746 295.688 305.832 296.176 305.832 296.707C305.832 297.238 305.746 297.727 305.574 298.172C305.402 298.609 305.172 298.973 304.883 299.262C304.594 299.543 304.262 299.762 303.887 299.918ZM302.715 299.027C303.238 299.027 303.652 298.816 303.957 298.395C304.262 297.973 304.414 297.41 304.414 296.707C304.414 296.004 304.262 295.441 303.957 295.02C303.652 294.59 303.238 294.375 302.715 294.375C302.207 294.375 301.801 294.59 301.496 295.02C301.191 295.441 301.039 296.004 301.039 296.707C301.039 297.41 301.191 297.973 301.496 298.395C301.801 298.816 302.207 299.027 302.715 299.027ZM308.609 302.508C308.477 302.641 308.312 302.707 308.117 302.707C307.93 302.707 307.77 302.641 307.637 302.508C307.504 302.375 307.438 302.211 307.438 302.016V293.988C307.438 293.832 307.492 293.699 307.602 293.59C307.711 293.48 307.844 293.426 308 293.426C308.164 293.426 308.305 293.48 308.422 293.59C308.547 293.691 308.621 293.824 308.645 293.988L308.668 294.129C308.676 294.145 308.684 294.152 308.691 294.152C308.707 294.152 308.719 294.148 308.727 294.141C309.43 293.555 310.102 293.262 310.742 293.262C311.57 293.262 312.211 293.566 312.664 294.176C313.125 294.777 313.355 295.594 313.355 296.625C313.355 297.172 313.277 297.676 313.121 298.137C312.965 298.59 312.754 298.965 312.488 299.262C312.223 299.551 311.918 299.777 311.574 299.941C311.238 300.105 310.883 300.188 310.508 300.188C309.953 300.188 309.398 299.957 308.844 299.496C308.828 299.488 308.812 299.488 308.797 299.496C308.781 299.504 308.773 299.516 308.773 299.531L308.809 300.574V302.016C308.809 302.211 308.742 302.375 308.609 302.508ZM310.25 299.051C310.742 299.051 311.145 298.84 311.457 298.418C311.77 297.988 311.926 297.398 311.926 296.648C311.926 295.156 311.41 294.41 310.379 294.41C309.91 294.41 309.406 294.66 308.867 295.16C308.828 295.199 308.809 295.246 308.809 295.301V298.359C308.809 298.414 308.828 298.461 308.867 298.5C309.32 298.867 309.781 299.051 310.25 299.051Z" fill="#1E1E1E"/>
</svg>
